<?xml version="1.0" encoding="UTF-8"?>
<svg version="1.1" viewBox="0 0 2000 2000" width="1280" height="1280" xmlns="http://www.w3.org/2000/svg">
<path transform="translate(688,329)" d="m0 0h624l16 4 13 7 12 11 9 14 4 12 1 5 1 425 434 51 12 3 6 4 8 9 3 8v17l-37 314-3 10-6 8-7 6-10 4h-15l-383-45-3-1v240h119l1-12 11-76 1-5h77l-3-24-1-10v-10l3-14 5-10 9-10 8-6 12-5 12-2h10l16 3 14 6 10 8 5 5 7 9 5 11 5 19 6 28v2h66l1 1 34 237 13 91 16 4 25 7 20 7 15 8 9 8 2 4v8l-4 6-7 6-15 8-30 10-24 6-37 7-49 7-48 5-52 4-59 3-32 1h-132l-55-2-65-4-53-5-48-6-41-7-27-6-25-7-19-7-14-8-7-6-3-6 1-9 6-7 13-8-159-1-62-2-58-3-13-1 2 22 35 5 36 7 28 7 21 7 16 8 9 6 5 7 1 7-3 6-9 8-15 8-30 10-34 8-47 8-48 6-54 5-66 4-60 2h-115l-59-2-53-3-59-5-50-6-49-8-31-7-24-7-16-6-13-7-9-8-2-3-1-6 3-7 5-5 10-7 16-7 9-3-20 2h-14l-3-3-1-8 3-14 5-8 11-9 33-22 12-9 16-13 9-8 15-47v-3l-8-2 2-10 14-49 12-39 17-53 14-41 14-38-3-44v-6h-15v-58l13-1-10-15-11-18-14-26-14-32-13-35-9-28-12-45-8-37-7-38-3-21 1-4 15 9 18 13 14 11 11 10 8 7 15 15 9 11 11 13 16 24 9 16 10 24 9 31 1 2-4-37-1-19v-49l1-26-2-13v-16l3-8 1-3-11-20 1-5 16-3h3l2-12 8-32 10-32 12-32 12-26 4-7 3 4 10 28 10 35 11 45 10 50v4l10 3 20 8 21 10 14 11 17 14h2l7-8 8-9-12-11-5-10-2-9 1-11 7-21-6 10-4 11v15l5 12-1 2-4-5-4-9-1-4v-12l4-11 7-11 18-22 9-21 6-11 10-14 10-11 10-6 12-4 7-1h12l19 1 13 3 11 6 9 9 1-471 4-15 7-12 9-10 9-7 13-6zm-195 591 1 2zm-1 2m12 58v5l2-1-1-4zm40 24-6 31-1 7 7 4 2-1-5-4 2-4 11-11 5 1 9-10 7-8 2-4h-22zm-119 4-1 5 2 4 1-1v-7zm-22 130-4 16-6 23 1 4 13-37 1-3zm-99 2 1 4zm264 3-16 16-13 10-10 6-6 2-10 1-21-3-10-2-8 11-6 9h76l22 1 1-4 2-37v-10zm-259 25 1 2zm1 4 1 4zm1 5 1 14 3 26 2 25 4-4 5-6-2-9-9-32-3-14zm81 4 1 3zm-1 3 1 3zm-1 4m1233 79-11 2-10 5-6 5-5 9-2 5-1 11 4 37 1 1h89l-1-10-7-31-4-10-7-9-8-7-13-6-11-2zm-1025 142-3 16-9 55-1 6v8l12 40 6 18 11 34h19l1-3-1-174zm-165 153-1 11v13h9l-7-24zm-71 26-3 8-4 15v3h-4l-4 14-3 13 2 20 3 28v6l-5 1v1l24-1 41-2 29-1 53-1 1-2-10-37-1-2-11 2-7 2-1-5-18-55-3-7zm254 0 1 7 7 22h-2v4l24-4 3-2-8-11-5-12-2-4zm18 80 5 26 1 1 72 5 41 4h9l-3-19-1-2-17-2-49-5-37-5z" fill="#FAFAFA"/>
<path transform="translate(688,329)" d="m0 0h624l16 4 13 7 12 11 9 14 4 12 1 5 1 425 434 51 12 3 6 4 8 9 3 8v17l-37 314-3 10-6 8-7 6-10 4h-15l-383-45-3-1v240h119l1-12 11-76 1-5h77l-3-24-1-10v-10l3-14 5-10 9-10 8-6 12-5 12-2h10l16 3 14 6 10 8 5 5 7 9 5 11 5 19 6 28v2h66l1 1 34 237 13 91 16 4 25 7 20 7 15 8 9 8 2 4v8l-4 6-7 6-15 8-30 10-24 6-37 7-49 7-48 5-52 4-59 3-32 1h-132l-55-2-65-4-53-5-48-6-41-7-27-6-25-7-19-7-14-8-7-6-3-6 1-9 6-7 13-8-159-1-62-2-58-3-13-1 4 44 2 23v7h-17l-4-21-35-209-12-71-5-30-2-13v-6h-115l-3 22-8 49-2 11-2-2-8-31-5-26v-15l2-4h2l2-6 13-13 12-9 19-11 11-6-3-2-6-2h-7l-37 25-11 9-7 9-3 7-1 6v17l8 37 12 43 12 37 15 43 4 11v4h-2l-19-53-16-50-11-40-5-24-1-7v-21l4-10 8-11 12-10 24-16 11-7-2-2-32-8-18-5-81-21-19-5h-6l-13 7-11 10-9 14-5 14-6 29-2 15h-1v-12l3-25 3-13 4-9 6-10 9-10 14-9 10-4 17-3h24l24 2 48 8 50 9 36 4h38l21-3h59v73h-15l5 57 11 126v2h446v-102h-39l7-11 12-17 11-16 9-13 108-1v-991l-2-22-5-18-6-12-9-11-10-6-14-4h-121l-5 3-3 7-1 16-3 7-5 5-7 2h-274l-9-3-5-7-1-4-1-16-4-8-4-2h-123l-14 4-9 6-7 7-8 16-4 16-2 21v482l4 6 3 10v24l-4 11-3 5v16l10 13 12 19 11 19 14 26 16 32 15 33 16 37 4 11-7 2-11 1 5 22 2 16v37l-3 19-3 11-2 1 2-10 3-17v-41l-2-17-3-16v-4l-44 6-18 2 4 7 8 6 10 5 11 4v1l-9-1-10-3-11-7-6-7-2-3v-3l-14 2-20 1h-64l-19-2v-27l2-26 7-8 4-4-2-4-17-16-11-11-8-7-9-9-8 6-6 3h-7l-21-6-22-8-27-13-1-2 5 1 22 10 24 9 13 4 5 1h9l8-4 3-2-2-4v-4l14-12 5 2 9-9-1-3-3-3 14-17 10-13 12-15 10-15 2 1 5 13 1 3 11-9 13-10 5-11-1-9-6-19v-21l5-6 3-9v-15l-3-4-6 1-7 8-4 8-7-6-7-11-2-4 1 7-4-5-6-18v-6l-15 10-11 5-7 2h-8l4-3 8-5-19 9-11 4h-5l1 24 4 20 5 12 7 11 9 7 12 5 13 1 14-3 12-6 9-9 4-7h2l-1 5-7 14-11 12-3 2v7l-10 10-7 8-2 2-5 1h-18l-17-3-15-6-10-7-8-9-1 7-5-2-10-9-5-10-2-9 1-11 7-21-6 10-4 11v15l5 12-1 2-4-5-4-9-1-4v-12l4-11 7-11 18-22 9-21 6-11 10-14 10-11 10-6 12-4 7-1h12l19 1 13 3 11 6 9 9 1-471 4-15 7-12 9-10 9-7 13-6zm-195 591 1 2zm-1 2m1131 345-11 2-10 5-6 5-5 9-2 5-1 11 4 37 1 1h89l-1-10-7-31-4-10-7-9-8-7-13-6-11-2z" fill="#455A64"/>
<path transform="translate(358,793)" d="m0 0 3 4 10 28 10 35 11 45 10 50v4l10 3 20 8 21 10 14 11 17 14h2l7-8 8-9h3l1-4 2-2 7 8 11 7 19 7-1 11-5 24v3l7 3-5-4 2-4 12-12 5 1 13-15 13-14 7-8 4-4v-7l10-9 7-10 6-14h-2l-2 5-7 8-7 6-12 5-11 2-13-1-12-5-9-7-7-10-5-11-4-16-1-7v-24l13-4 12-5 10-5 2 1-10 6-2 1 10-1 12-5 11-7 4-3h2l4 16 4 9v-3l1-4 5 12 7 9 3 3 6-10 8-7 5 1 3 4v15l-4 11-4 4v22l6 18 1 9-6 12-13 10-9 8h-2l-5-10-2-6-12 16-22 28-12 15 4 4-2 4-8 8-5-2-9 8-5 4 2 4v4l-8 5-3 1h-9l-15-4-22-8-25-11-4-1 25 12 25 9 18 5h7l9-5 5-4 15 15 8 7 14 14 8 7 3 3-2 4-27 27-13 10-10 6-6 2-10 1-21-3-10-2-11 16-2 2h75l20 1 2 1 1-4v6l19 1h64l20-1 14-1 5 9 7 6 10 5 10 3h4l-16-6-11-8-4-5-1-4 42-5 14-2h7l5 26 1 11v41l-3 17-2 9 4-15 2-15v-37l-3-21-3-14v-3l14-2 5 24 3 23v36l-3 17-1 4 5 1 3 2v4l-6-1-3-1v9l7 2 3 3 1 7-3 5-5 2h-3v5h-3l-1-5-9-3h-4l-8 6-16 8-9 3-16 3-10 1h-38l-36-4-79-14-19-3-24-2h-24l-17 3-12 5-13 9-8 9-7 12-4 14-3 19-1 15 5-28 5-17 6-12 8-10 9-8 13-7 10 1 15 4 74 19 23 6 15 4 21 6v3l-22 14-14 10-12 10-7 11-3 8v21l4 22 7 28 10 34 15 46 15 41v3h2l-10-29-18-53-12-41-7-28-5-24v-17l2-9 7-11 11-10 39-26 1-1h7l11 4-4 3-20 11-15 10-13 12-5 6-2 4h-2l-1 4v15l6 30 7 27 16 50 11 35 3 9v3l19-1v-176h80l7 45 7 40 31 184v5l-29-2-46-5-40-6-9-2 4 16 2 10 72 5 50 5 7 40 2 15h17l-3-30-1-12v-10l35 5 36 7 28 7 21 7 16 8 9 6 5 7 1 7-3 6-9 8-15 8-30 10-34 8-47 8-48 6-54 5-66 4-60 2h-115l-59-2-53-3-59-5-50-6-49-8-31-7-24-7-16-6-13-7-9-8-2-3-1-6 3-7 5-5 10-7 16-7 9-3-20 2h-14l-3-3-1-8 3-14 5-8 11-9 33-22 12-9 16-13 9-8 15-47v-3l-8-2 2-10 14-49 12-39 17-53 14-41 14-38-3-44v-6h-15v-58l13-1-10-15-11-18-14-26-14-32-13-35-9-28-12-45-8-37-7-38-3-21 1-4 15 9 18 13 14 11 11 10 8 7 15 15 9 11 11 13 16 24 9 16 10 24 9 31 1 2-4-37-1-19v-49l1-26-2-13v-16l3-8 1-3-11-20 1-5 16-3h3l2-12 8-32 10-32 12-32 12-26zm67 215-1 5 2 4 1-1v-7zm-22 130-4 16-6 23 1 4 13-37 1-3zm-99 2 1 4zm5 28 1 2zm1 4 1 4zm1 5 1 14 3 26 2 25 4-4 5-6-2-9-9-32-3-14zm81 4 1 3zm-1 3 1 3zm-1 4m43 374-1 11v13h9l-7-24zm-71 26-3 8-4 15v3h-4l-4 14-3 13 2 20 3 28v6l-5 1v1l24-1 41-2 29-1 53-1 1-2-10-37-1-2-11 2-7 2-1-5-18-55-3-7zm254 0 1 7 7 22h-2v4l24-4 3-2-8-11-5-12-2-4z" fill="#F3942B"/>
<path transform="translate(1621,1251)" d="m0 0h10l16 3 14 6 10 8 5 5 7 9 5 11 5 19 6 28v2h66l1 1 34 237 13 91 16 4 25 7 20 7 15 8 9 8 2 4v8l-4 6-7 6-15 8-30 10-24 6-37 7-49 7-48 5-52 4-59 3-32 1h-132l-55-2-65-4-53-5-48-6-41-7-27-6-25-7-19-7-14-8-7-6-3-6 1-9 6-7 13-8-159-1-62-2-58-3-13-1-1-2-4-47h443v54h230l1-13 34-238 8-58 6-39h77l-3-24-1-10v-10l3-14 5-10 9-10 8-6 12-5zm2 16-11 2-10 5-6 5-5 9-2 5-1 11 4 37 1 1h89l-1-10-7-31-4-10-7-9-8-7-13-6-11-2z" fill="#F4942B"/>
<path transform="translate(1367,808)" d="m0 0h9l426 50 12 3 6 4 8 9 3 8v17l-37 314-3 10-6 8-7 6-10 4h-15l-383-45-3-1v-61h11l85 10h2l2-13-16-1-76-9-8-2v-15h12l169 20 2-13-21-2-153-18-9-2v-59l1-5-1-1v-85l15 1h11l6-3 4-5 2-8 4-34v-12l-4-7-3-1v-2l-35-5z" fill="#263238"/>
<path transform="translate(932,593)" d="m0 0h8l2 4 6 52 3 16 4 3 15 4 17 3 4 3-1 4h1v-7h15l19-2 14-3 10-3 4-26 5-44 2-4h8l15 3 4 2v14l-7 63 1 14 14 85v14l-5 10 24 102 28 118 16 71v6l-9 10-14 11-12 6-8 2-26 2-15 3-24 7-25 7-12 2h-24l-22-4-36-11-20-4-26-2-13-4-11-7-11-9-8-9 1-10 7-30h2l-1-3 2-10 21-91 16-68 2-6 3-15 7-30 2-6 4-19 2-10-4-6-1-8v-9l14-85 1-14-7-63v-14l8-3z" fill="#F59730"/>
<path transform="translate(358,793)" d="m0 0 3 4 10 28 10 35 11 45 10 50v4l10 3 20 8 21 10 14 11 17 14h2l7-8 8-9h3l1-4 2-2 7 8 11 7 19 7-1 11-5 24v3l7 3-5-4 2-4 12-12 5 1 13-15 13-14 7-8 4-4v-7l10-9 7-10 6-14h-2l-2 5-7 8-7 6-12 5-11 2-13-1-12-5-9-7-7-10-5-11-4-16-1-7v-24l13-4 12-5 10-5 2 1-10 6-2 1 10-1 12-5 11-7 4-3h2l4 16 4 9v-3l1-4 5 12 7 9 3 3 6-10 8-7 5 1 3 4v15l-4 11-4 4v22l6 18 1 9-6 12-13 10-9 8h-2l-5-10-2-6-12 16-22 28-12 15 4 4-2 4-8 8-5-2-9 8-5 4 2 4v4l-8 5-3 1h-9l-15-4-22-8-25-11-4-1 25 12 25 9 18 5h7l9-5 5-4 15 15 8 7 14 14 8 7 3 3-2 4-27 27-13 10-10 6-6 2-10 1-21-3-10-2-11 16-3 3-34 3-35 5-29 7-16 6-16 8-9 7-3 2-6-18-8-30 4 34 1 13v13l-13 21-19 38-11 25-10 25-2-1-3-40v-6h-15v-58l13-1-10-15-11-18-14-26-14-32-13-35-9-28-12-45-8-37-7-38-3-21 1-4 15 9 18 13 14 11 11 10 8 7 15 15 9 11 11 13 16 24 9 16 10 24 9 31 1 2-4-37-1-19v-49l1-26-2-13v-16l3-8 1-3-11-20 1-5 16-3h3l2-12 8-32 10-32 12-32 12-26zm67 215-1 5 2 4 1-1v-7zm-22 130-4 16-6 23 1 4 13-37 1-3zm-99 2 1 4zm5 28 1 2zm1 4 1 4zm82 9 1 3zm-1 3 1 3z" fill="#AD6358"/>
<path transform="translate(473,1316)" d="m0 0h24l24 2 48 8 50 9 36 4h38l21-3h59v73h-15l5 57 11 126v2h447v-102h26l4 6-2-6h55l2-5 10-14 11-16 14-20 3-1 13 19 16 23 9 13 95 1v10l-27 188h-230v-54l-442 1 10 115v7h-17l-4-21-35-209-12-71-5-30-2-13v-6h-115l-3 22-8 49-2 11-2-2-8-31-5-26v-15l2-4h2l2-6 13-13 12-9 19-11 11-6-3-2-6-2h-7l-37 25-11 9-7 9-3 7-1 6v17l8 37 12 43 12 37 15 43 4 11v4h-2l-19-53-16-50-11-40-5-24-1-7v-21l4-10 8-11 12-10 24-16 11-7-2-2-32-8-18-5-81-21-19-5h-6l-13 7-11 10-9 14-5 14-6 29-2 15h-1v-12l3-25 3-13 4-9 6-10 9-10 14-9 10-4z" fill="#263238"/>
<path transform="translate(1457,425)" d="m0 0h296v295h-296z" fill="#FAFAFA"/>
<path transform="translate(264,353)" d="m0 0h295v295h-295z" fill="#FAFAFA"/>
<path transform="translate(777,1636)" d="m0 0h443v54h229l-1 12-3 21 375 1-7-47v-5l20 4 24 7 19 7 13 7 9 8 2 4v8l-4 6-7 6-15 8-30 10-24 6-37 7-49 7-48 5-52 4-59 3-32 1h-132l-55-2-65-4-53-5-48-6-41-7-27-6-25-7-19-7-14-8-7-6-3-6 1-9 6-7 13-8-159-1-62-2-58-3-13-1-1-2z" fill="#FAFAFA"/>
<path transform="translate(491,1691)" d="m0 0v3l-31 14-15 7-36 17-14 8-5 6-5 12-1 9 1 5 15 1h191l40-2 9-2 1-5 1-46-2-17v-6h16l56 4 50 5 7 40 2 15h17l-3-30-1-12v-10l35 5 36 7 28 7 21 7 16 8 9 6 5 7 1 7-3 6-9 8-15 8-30 10-34 8-47 8-48 6-54 5-66 4-60 2h-115l-59-2-53-3-59-5-50-6-49-8-31-7-24-7-16-6-13-7-9-8-2-3-1-6 3-7 5-5 10-7 16-7 12-4 1-1 56-7 78-11 55-9 20-4 24-1 41-2 29-1z" fill="#F9F9F9"/>
<path transform="translate(633,1409)" d="m0 0h80l7 45 7 40 31 184v5l-29-2-46-5-40-6-9-2 4 16 4 24 1 13-1 43-2 6-9 2-40 2h-191l-13-1-3-3-1-7 4-13 5-8 6-5 19-10 28-13 24-11 22-10-2-11-7-25v-6l9-3 116-28 14-3 1 4 12-3 12-2 2-1-8-11-5-12-1-3-19-1v-2l18-1z" fill="#AD6358"/>
<path transform="translate(568,834)" d="m0 0h12l19 1 13 3 11 6 9 9 7 12 8 26 10 16 13 12 6 9 3 10v24l-4 11-3 5v16l10 13 12 19 11 19 14 26 16 32 15 33 16 37 4 11-7 2-11 1 5 22 2 16v37l-3 19-3 11-2 1 2-10 3-17v-41l-2-17-3-16v-4l-44 6-18 2 4 7 8 6 10 5 11 4v1l-9-1-10-3-11-7-6-7-2-3v-3l-14 2-20 1h-64l-19-2v-27l2-26 7-8 4-4-2-4-17-16-11-11-8-7-9-9-8 6-6 3h-7l-21-6-22-8-27-13-1-2 5 1 22 10 24 9 13 4 5 1h9l8-4 3-2-2-4v-4l14-12 5 2 9-9-1-3-3-3 14-17 10-13 12-15 10-15 2 1 5 13 1 3 11-9 13-10 5-11-1-9-6-19v-21l5-6 3-9v-15l-3-4-6 1-7 8-4 8-7-6-7-11-2-4 1 7-4-5-6-18v-6l-15 10-11 5-7 2h-8l4-3 8-5-19 9-11 4h-5l1 24 4 20 5 12 7 11 9 7 12 5 13 1 14-3 12-6 9-9 4-7h2l-1 5-7 14-11 12-3 2v7l-10 10-7 8-2 2-5 1h-18l-17-3-15-6-10-7-8-9-1 7-5-2-10-9-5-10-2-9 1-11 7-21-6 10-4 11v15l5 12-1 2-4-5-4-9-1-4v-12l4-11 7-11 18-22 9-21 6-11 10-14 10-11 10-6 12-4zm-75 86 1 2z" fill="#37474F"/>
<path transform="translate(473,1316)" d="m0 0h24l24 2 48 8 50 9 36 4h38l21-3h59v73h-15l5 57 11 126v2h446v42l-442 1 10 115v7h-17l-4-21-35-209-12-71-5-30-2-13v-6h-115l-3 22-8 49-2 11-2-2-8-31-5-26v-15l2-4h2l2-6 13-13 12-9 19-11 11-6-3-2-6-2h-7l-37 25-11 9-7 9-3 7-1 6v17l8 37 12 43 12 37 15 43 4 11v4h-2l-19-53-16-50-11-40-5-24-1-7v-21l4-10 8-11 12-10 24-16 11-7-2-2-32-8-18-5-81-21-19-5h-6l-13 7-11 10-9 14-5 14-6 29-2 15h-1v-12l3-25 3-13 4-9 6-10 9-10 14-9 10-4z" fill="#37474F"/>
<path transform="translate(156,947)" d="m0 0 10 5 20 14 13 10 14 12 12 11 13 13 9 11 11 13 16 24 9 16 10 24 9 31 1 2-4-37-1-19v-49l1-18 2-3 6 23 8 20 10 18 8 10 9 10 11 12 9 9 11 9 17 12 13 8-4 20-5 20 12-34 3-3 15 8 24 11 24 9 10 4-7 11-6 8-1 1-34 3-35 5-29 7-16 6-16 8-9 7-3 2-6-18-8-30 4 34 1 13v13l-13 21-19 38-11 25-10 25-2-1-3-40v-6h-15v-58l13-1-10-15-11-18-14-26-14-32-13-35-9-28-12-45-8-37-7-38-3-21zm148 193 1 4zm5 28 1 2zm1 4 1 4zm82 9 1 3zm-1 3 1 3z" fill="#FAFAFA"/>
<path transform="translate(790,1362)" d="m0 0h408v89h-408z" fill="#263238"/>
<path transform="translate(1343,1436)" d="m0 0 4 5 8 11 11 16 14 20 2 3 95 1v10l-27 188h-230v-54h1v53h122z" fill="#37474F"/>
<path transform="translate(198,1587)" d="m0 0 12 1 138 25 2 1-1 10-4 17 2 20 3 28-1 6-15 4-46 8-47 7-73 10-57 7h-14l-3-3-1-8 3-14 5-8 11-9 33-22 12-9 16-13 9-8z" fill="#AD6358"/>
<path transform="translate(633,1409)" d="m0 0h80l7 45 7 40 23 137v5h-62l-13-3-16-8-13-12-8-13-4-11-19-1v-2l18-1z" fill="#455A63"/>
<path transform="translate(774,1594)" d="m0 0h446v42h-443l-3-34z" fill="#455A64"/>
<path transform="translate(568,834)" d="m0 0h12l19 1 13 3 11 6 9 9 7 12 8 26 10 16 13 12 6 9 3 10v24l-4 11-3 3 3-10v-3l-7 12-6 6-5-2-10-7-13-4-6-19v-21l5-6 3-9v-15l-3-4-6 1-7 8-4 8-7-6-7-11-2-4 1 7-4-5-6-18v-6l-15 10-11 5-7 2h-8l4-3 8-5-19 9-11 4h-5l1 24 4 20 5 12 7 11 9 7 12 5 13 1 14-3 12-6 9-9 4-7h2l-1 5-7 14-11 12-3 2v7l-10 10-7 8-2 2-5 1h-18l-17-3-15-6-10-7-8-9-1 7-5-2-10-9-5-10-2-9 1-11 7-21-6 10-4 11v15l5 12-1 2-4-5-4-9-1-4v-12l4-11 7-11 18-22 9-21 6-11 10-14 10-11 10-6 12-4zm-75 86 1 2z" fill="#273339"/>
<path transform="translate(641,1718)" d="m0 0h2l-1 46-2 6-9 2-40 2h-191l-13-1-3-3-1-7 4-13 5-8 6-5 19-10 7-3 3 1-3 5v7l3 2 6 1h27l31-2 42-4 48-6 45-7z" fill="#263238"/>
<path transform="translate(341,1644)" d="m0 0 4 1 4 32 1 16-3 3-29 6-55 9-80 11-63 8-9 1h-14l-3-3-1-8 3-14 5-8 11-9 15-10 5-2-3 9 1 5 2 1h15l22-3 29-6 34-8 28-7 29-8 30-9z" fill="#273339"/>
<path transform="translate(671,1409)" d="m0 0h42l7 45 7 40 16 95v5h-25l-13-4-10-6-9-8-7-10-6-14-2-12z" fill="#FAFAFA"/>
<path transform="translate(761,1452)" d="m0 0h1l7 83 16 182 3 35v7h-17l-4-21-35-209-12-71v-2h41z" fill="#37474F"/>
<path transform="translate(358,793)" d="m0 0 3 4 10 28 10 35 11 45 10 50v3l-9-2-24-7-5 2v6l4 6 9 8 16 8 7 3-6 8-5 9 1 13-3-4-17-32-24-44-2-1h-10l-20 3h-4l2-12 8-32 10-32 12-32 12-26z" fill="#FAFAFA"/>
<path transform="translate(589,868)" d="m0 0h2l4 16 4 9v-3l1-4 5 12 7 9 3 3 6-10 8-7 5 1 3 4v15l-4 11-4 4-2 3v-2h-2l2 8v9l-1 3h-3l-3-8v-8l2-8h-3l-1 10 1 10h-2l-2 5-7 8-7 6-12 5-11 2-13-1-12-5-9-7-7-10-5-11-4-16-1-7v-24l13-4 12-5 10-5 2 1-10 6-2 1 10-1 12-5 11-7z" fill="#AD6359"/>
<path transform="translate(406,1424)" d="m0 0h1l4 34 5 28 8 36 10 40-2 24h-70l15-56z" fill="#FAFAFA"/>
<path transform="translate(646,1616)" d="m0 0 5 1 10 8 14 7 13 3 63 1 7 42v5l-29-2-46-5-40-6-9-2-4-15-8-32 12-3z" fill="#FAFAFA"/>
<path transform="translate(1621,1251)" d="m0 0h10l16 3 14 6 10 8 5 5 7 9 5 11 5 19 8 38v2l5 2 6 7v10l-4 7-6 4h-11l-6-4-4-6v-12l4-6-6-27-6-26-4-10-7-9-9-7-11-5-11-2-16 1-12 5-6 5-5 9-2 5-1 11 5 47 6 4 2 4h2l1 11-3 6-7 6h-13l-5-5-3-4-1-9 1-5h2l1-8-4-33-1-10v-10l3-14 5-10 9-10 8-6 12-5z" fill="#28343A"/>
<path transform="translate(473,1316)" d="m0 0h24l24 2 48 8 50 9 36 4 19 1 8 1-5 4-39 20-2 1h-8l-6-2h-7l-37 25-11 9-7 9-3 7-1 6v17l8 37 12 43 12 37 15 43 4 11v4h-2l-19-53-16-50-11-40-5-24-1-7v-21l4-10 8-11 12-10 24-16 11-7-2-2-32-8-18-5-81-21-19-5h-6l-13 7-11 10-9 14-5 14-6 29-2 15h-1v-12l3-25 3-13 4-9 6-10 9-10 14-9 10-4z" fill="#263238"/>
<path transform="translate(1705,904)" d="m0 0h14l43 5 9 3 7 7 2 5v12l-4 8-9 6-4 1-15-1-42-5-8-4-5-6-2-4v-13l5-8 5-4z" fill="#445963"/>
<path transform="translate(1367,864)" d="m0 0h13l17 2 5 2v2l4 1 4 7v12l-5 40-4 6-5 4-3 1h-11l-12-2-3-1z" fill="#F3932C"/>
<path transform="translate(1719,1128)" d="m0 0h8l8 3 8 4 6 7 4 9v15l-4 9-7 8-10 5-5 1h-8l-11-4-9-8-4-8-1-3v-15l6-12 8-7z" fill="#F3932B"/>
<path transform="translate(1367,1090)" d="m0 0h9l170 20 4 1-1 11-1 2-16-1-162-19-3-1z" fill="#FAFAFA"/>
<path transform="translate(619,925)" d="m0 0h3l-1 16 2 8h3v-12l-1-8h2l2 5v16l6 18 1 9-6 12-13 10-9 8h-2l-5-10-2-6-12 16-22 28-12 15-4-2-9-7 2-4 12-12 5 1 13-15 13-14 7-8 4-4v-7l10-9 7-10 5-11-1-14z" fill="#AD6358"/>
<path transform="translate(1682,1124)" d="m0 0h9l10 3 6 5-1 3-5 4-6 12v15l4 9 3 5-8 4h-14l-10-4-9-9-4-9v-15l4-9 7-8 10-5z" fill="#455963"/>
<path transform="translate(335,933)" d="m0 0h8l5 6 17 32 12 22 10 18v5l-6 1-8-6v-3l-2-4-8-1-8-7v-2l-4-2-7-6v-1l13-2h6l-12-23-4-7v-2l-33 5 8 16 9 16v7l4 9 10 14 2 4h-5l-4-5-13-24-12-22-14-26-1-5 3-2 8-1 2 2 21-2v-3z" fill="#F9F9F9"/>
<path transform="translate(713,1409)" d="m0 0h44l2 9 2 23v15h-41l-2-9-5-32z" fill="#263238"/>
<path transform="translate(1539,883)" d="m0 0 136 16-2 14-37-4-93-11-5-1v-9z" fill="#FAFAFA"/>
<path transform="translate(506,982)" d="m0 0 5 5 7 6 14 7 12 4-1 11-5 24-2 3-23-15-12-8-13-10-2-4 7-8 8-9h3l1-4z" fill="#FAFAFA"/>
<path transform="translate(1210,1213)" d="m0 0h9l7 6 3 4 4-6 5-4h9l5 5 1 2v12l-4 9-8 10-11 9-4-1-11-9-7-9-4-9v-12l3-5z" fill="#F5952B"/>
<path transform="translate(1142,462)" d="m0 0 8 1 7 8 1 3 6-9 6-3 8 1 4 5 1 3v9l-4 10-7 9-10 9-5 2-12-11-7-8-4-8-1-9 2-7 4-4z" fill="#F5952B"/>
<path transform="translate(1367,1120)" d="m0 0 16 1 84 10-1 13-3 1-94-11-2-1z" fill="#FAFAFA"/>
<path transform="translate(575,1409)" d="m0 0h22v9l-8 50-4 23-2-2-8-31-5-26v-15l2-4h2z" fill="#273339"/>
<path transform="translate(341,951)" d="m0 0h6l16 30v2l-21 3-1-1h-8l-3 3-9-16-8-16 7-2z" fill="#F5952B"/>
<path transform="translate(334,930)" d="m0 0h10l4 4 15 28 12 22 14 26 3 6-2 3-7-1 4-2-2-7-12-22-14-26-13-24-3-3h-11v3l-17 3-5-1-3-1-8 2 1 5 12 23 12 22 13 24 5 7 7 2v2l-3 1h-8l-5-4-8-16-6-10-8-16-13-23-8-15 1-5 16-3z" fill="#3B4C54"/>
<path transform="translate(990,1390)" d="m0 0h7l6 3 6 7 1 3v8l-4 8-7 5-6 1-9-3-5-6-2-5v-8l3-6 7-6z" fill="#FAFAFA"/>
<path transform="translate(597,984)" d="m0 0 2 3-1 5-10 14-13 16-10 13-12 15-4-2-9-7 2-4 12-12 5 1 13-15 13-14 7-8z" fill="#FAFAFA"/>
<path transform="translate(903,1391)" d="m0 0h10l8 4 4 5 1 3v10l-4 7-6 4-3 1h-10l-2-1v-32z" fill="#FAFAFA"/>
<path transform="translate(869,1391)" d="m0 0h11l8 4 4 6 1 3v8l-3 6-7 6-3 1h-11l-1-1v-32z" fill="#FAFAFA"/>
<path transform="translate(964,375)" d="m0 0h72l3 3-1 5-1 1h-74l-2-2 1-5z" fill="#FAFAFA"/>
<path transform="translate(612,1361)" d="m0 0 6 1-4 3-36 24-11 9-7 9-3 7-1 6v17l8 37 12 43 12 37 15 43 4 11v4h-2l-19-53-16-50-11-40-5-24-1-7v-21l4-10 8-11 12-10 24-16 11-7z" fill="#6B5D5F"/>
<path transform="translate(821,1289)" d="m0 0h9l5 6 2 5v11l-4 8-4 3h-7l-6-5-3-8v-8l4-9z" fill="#29363D"/>
<path transform="translate(864,1289)" d="m0 0h9l5 5 2 5v13l-5 8-3 2h-7l-5-4-3-6-1-9 3-9z" fill="#29373D"/>
<path transform="translate(898,1289)" d="m0 0h9l5 5 2 5 1 7-2 8-4 6-3 2h-7l-5-4-3-6-1-7 2-9 4-6z" fill="#29363D"/>
<path transform="translate(1101,1391)" d="m0 0h14l5 3 2 4v7l-2 5 3 10 1 2-1 2-6-1-2-9-1-1-8-1v11l-4 2-2-2v-30z" fill="#FAFAFA"/>
<path transform="translate(1577,1028)" d="m0 0 7 3 4 8v9l-4 8-3 3-7 1-5-3-3-5-1-2v-8l3-8 5-5z" fill="#FAFAFA"/>
<path transform="translate(1495,1426)" d="m0 0h1v42l-3 98-4 95-1 18h-1v-26l3-108 4-99z" fill="#FAFAFA"/>
<path transform="translate(1490,1019)" d="m0 0h6l4 4 1 4-1 5 2 3v8l-5 6-2 1-9-1-4-4-1-9 3-5 2-2v-6z" fill="#F0F1F1"/>
<path transform="translate(1762,1050)" d="m0 0 4 1v4l-9 3-1 2h6l5 3 2 4v8l-4 5-4 2h-6l-5-3-3-6 1-10 4-8 6-4z" fill="#FAFAFA"/>
<path transform="translate(1440,1013)" d="m0 0h6l1 4-9 4 8 3 4 6v6l-4 6-4 2-8-1-5-5-1-8 3-9 6-7z" fill="#FAFAFA"/>
<path transform="translate(1547,1025)" d="m0 0 6 1 5 5 1 2v8l-4 9-5 5-9 1-1-3 1-2 7-2 1-1-9-4-3-7 1-6 5-5z" fill="#F9F9F9"/>
<path transform="translate(847,1391)" d="m0 0 4 1 11 29-2 4-4-2-2-5-12-1-1 6-2 2-4-1 1-6 9-24z" fill="#FAFAFA"/>
<path transform="translate(1080,1391)" d="m0 0 4 1 11 29-2 4-4-2-2-5-12-1-1 5-2 3-4-1 1-6 9-24z" fill="#FAFAFA"/>
<path transform="translate(418,993)" d="m0 0 4 2 6 10 1 3v8l-4 10-4 5-6 3-4 1 11 11-1 2-11-11-9-7h3l4 2h5v-13l-2-9 3-7 9 2 2 1-2-6zm7 15-1 5 2 4 1-1v-7z" fill="#AD6358"/>
<path transform="translate(1046,1390)" d="m0 0h7l7 3 2 4-1 2-5-1-2-1h-8l-6 4-1 3v7l3 5 4 2h8l4-2 4 1-1 5-7 3h-9l-8-5-4-6-1-9 3-7 5-5z" fill="#FAFAFA"/>
<path transform="translate(989,1396)" d="m0 0h9l5 5 1 2v9l-5 6-2 1h-7l-6-5-1-2v-9l3-5z" fill="#273339"/>
<path transform="translate(769,1289)" d="m0 0 6 1 3 2v4l-6-1-3-1v9l7 2 3 3 1 7-3 5-5 2h-3v5h-3l-1-5-9-3-2-3 2-2 5 1 5 2-1-9-3-1 1-5 3-1v-5z" fill="#2B373D"/>
<path transform="translate(291,937)" d="m0 0 4 1 1 5 18 34 12 22 13 24 1 2-5-1-5-8-10-19-12-22-15-28-3-5z" fill="#28353B"/>
<path transform="translate(1710,1045)" d="m0 0h3l-1 14-1 6h3l1 3-1 2h-3v5l-4 1-1-1v-6h-9l-6-1-1-3 7-8z" fill="#FAFAFA"/>
<path transform="translate(790,1289)" d="m0 0h9l5 3 2 4v8l-7 8-4 4 11 1v5h-21l-1-4 16-15v-6l-2-2h-6l-3 2-4-1 1-4z" fill="#28353B"/>
<path transform="translate(930,979)" d="m0 0 2 4-3 15-10 61-8 43-2 7h5v1h-6l-1-5 3-17 3-15-2-1h2l1-7-3-1 3-1 10-54z" fill="#FAFAFA"/>
<path transform="translate(1725,1046)" d="m0 0 16 2 1 4-1 1-13-1-1 4h6l6 5 1 2v8l-5 6-8 1-5-3-2-4 5-1 3 2 5-1 2-5-1-3-7-1-4 1-1-1 1-12z" fill="#FAFAFA"/>
<path transform="translate(1406,1009)" d="m0 0 13 1 4 1v5l-14-1v4l7 1 5 5v9l-6 6h-9l-5-4v-3l4-1 2 2h7l1-2v-6l-6-2-6 1 1-10z" fill="#FAFAFA"/>
<path transform="translate(1618,1034)" d="m0 0h8l5 4 1 2v9l-4 5-7 5 9 3v4h-8l-12-2-1-3 4-4 13-9v-8h-7l-4 2-2-2 1-4z" fill="#FAFAFA"/>
<path transform="translate(1669,1040)" d="m0 0h9l7 1 1 4-5 5 3 6v8l-5 6-2 1h-8l-5-4 1-4 4 1 1 1h6l2-3v-6l-6-2-1-4 5-4-7-1-1-4z" fill="#FAFAFA"/>
<path transform="translate(1256,1509)" d="m0 0 3 4 22 45 3-4 20-41 1 3-18 37-3 7 1 7 16 33-1 3-13-26-5-11-3 4-17 35-1-3 17-35 1-7-13-27-10-21z" fill="#37474F"/>
<path transform="translate(582,1013)" d="m0 0 1 2-15 26-3 6 8-7 7-7v3l-20 20h-2v-2l-5-2v-3l13-16 10-13z" fill="#28343A"/>
<path transform="translate(575,1456)" d="m0 0h15l-1 12-4 23-2-2-8-31z" fill="#434C53"/>
<path transform="translate(1129,1391)" d="m0 0h23l1 5-2 1h-8v27l-4 1-1-1v-27h-8l-2-1z" fill="#FAFAFA"/>
<path transform="translate(949,1391)" d="m0 0h23l1 5-2 1h-8v27l-4 1-1-1v-27h-8l-2-1z" fill="#FAFAFA"/>
<path transform="translate(453,1320)" d="m0 0 2 1-14 8-11 10-9 14-5 14-6 29-2 15h-1v-12l3-25 3-13 4-9 6-10 9-10 14-9z" fill="#29353B"/>
<path transform="translate(873,1397)" d="m0 0h7l6 5 1 9-4 6-3 2h-7z" fill="#29363D"/>
<path transform="translate(823,1294)" d="m0 0h5l3 4 1 3v9l-4 6-4 1-4-4-2-9 2-7z" fill="#FAFAFA"/>
<path transform="translate(907,1397)" d="m0 0h6l5 3 2 4v8l-5 6-2 1h-6z" fill="#273339"/>
<path transform="translate(900,1294)" d="m0 0h5l4 6v11l-3 5-5 1-5-6v-11z" fill="#FAFAFA"/>
<path transform="translate(866,1294)" d="m0 0h5l4 6v11l-5 6-5-1-3-5v-11z" fill="#FAFAFA"/>
<path transform="translate(936,1031)" d="m0 0h1v23l-1 10v16 3l-2-1v5l2 1-2 5-3 34h-1l-1-6 1-35v-5l1-1 2-24-3-2h4l-2-8h2z" fill="#FAFAFA"/>
<path transform="translate(1459,1015)" d="m0 0h9l8 1 2 5-14 24-3 2-2-2 1-5 11-19-12-1-1-4z" fill="#FAFAFA"/>
<path transform="translate(1072,1026)" d="m0 0 2 4 11 51 6 35v6l-2-4-8-36-9-50z" fill="#FAFAFA"/>
<path transform="translate(1018,800)" d="m0 0h1v5l7-1h22l17-1 1-3v2l7-2 1 2-2 3v-2l-16 4-6 1h-58v-1l25-2 1-3h-13v-1z" fill="#FAFAFA"/>
<path transform="translate(441,1064)" d="m0 0 5 1 22 10 24 9 13 4 5 1h9l8-4h2l-1 3-9 5h-7l-21-6-22-8-27-13z" fill="#2A373D"/>
<path transform="translate(1575,1034)" d="m0 0 6 1 2 5-1 10-5 5-4-1-3-5v-7l3-6z" fill="#28353B"/>
<path transform="translate(418,993)" d="m0 0 4 2 6 10 1 3v8l-4 10-4 5-6 3-4 1 11 11-1 2-11-11-9-7h3l4 2h5v-13l-2-9 3-7 9 2 2 1-2-6zm-3 11-2 5 2 10v13l5-2 5-8 2-6v-7l-10-5z" fill="#2B383F"/>
<path transform="translate(962,802)" d="m0 0 1 3 7-1 1-2v2l15-2h19v1l-35 5-4 1-28-2-8-2v-1l32 1z" fill="#FAFAFA"/>
<path transform="translate(1603,1032)" d="m0 0 4 1v10l-2 17-2 3-4-1 2-20 1-3h-5l1-5z" fill="#FAFAFA"/>
<path transform="translate(612,1361)" d="m0 0 6 1-4 3-36 24-11 9-7 9-3 7-1 6-3-1 2-8 6-10 5-6 14-11 21-14 11-7z" fill="#775E5E"/>
<path transform="translate(1486,1692)" d="m0 0 4 1 16 9 17 11-2 1-24-13-8-5-4 1-16 11-10 7-2-1 15-12z" fill="#FAFAFA"/>
<path transform="translate(548,898)" d="m0 0h1l1 33 4-1v9l12-4 1 3-5 5-3 1-6-3-2-7-5 1v-17z" fill="#2D3B42"/>
<path transform="translate(586,1555)" d="m0 0 3 1 17 50 1 6h-2l-19-53z" fill="#6D5D5F"/>
<path transform="translate(685,1195)" d="m0 0 4 1 4 7 8 6 10 5 11 4v1l-9-1-10-3-11-7-6-7z" fill="#2E363C"/>
<path transform="translate(637,1061)" d="m0 0 1 2v2l3-2-2 4-8 8-12 19-13 18-2 1 2-5 27-41z" fill="#263238"/>
<path transform="translate(619,925)" d="m0 0h3l-1 16 2 8h3v-12l-1-8h2l2 5v15l-3 3-4-1-3-4-2-13z" fill="#F1922D"/>
<path transform="translate(554,1418)" d="m0 0h1l1 19 6 29v6l-3-3-5-24-1-7v-19z" fill="#635C60"/>
<path transform="translate(551,1072)" d="m0 0 4 2 8 8 11 9 9 9 8 7 4 5-4-2-14-12-16-15-10-10z" fill="#263238"/>
<path transform="translate(1547,1030)" d="m0 0 6 2 1 6-4 4-6-1-2-6z" fill="#29363D"/>
<path transform="translate(1437,1027)" d="m0 0 6 1 2 3-1 6-3 2-5-1-3-5 2-5z" fill="#29373D"/>
<path transform="translate(1755,1065)" d="m0 0h6l3 3v5l-3 3h-6l-2-2v-7z" fill="#28353B"/>
<path transform="translate(1489,1034)" d="m0 0h6l2 2v6l-3 3-6-1-2-2v-5z" fill="#28353C"/>
<path transform="translate(652,906)" d="m0 0 5 5 10 15 6 12 3 10-1 7h-1l-3-14-8-16-9-15z" fill="#41545E"/>
<path transform="translate(539,913)" d="m0 0 4 1 2 3v6l-3 3-4-2-1-5-5-2 1-2 4-1z" fill="#2B363D"/>
<path transform="translate(576,909)" d="m0 0 1 3-4 2-1 6-5 1-2-1-1-6 2-4h9z" fill="#28343A"/>
<path transform="translate(675,961)" d="m0 0h1l-1 8-4 10-6 5-3-1 1-4 6-7z" fill="#3E515A"/>
<path transform="translate(418,993)" d="m0 0 4 2 6 10 1 3v8l-4 10-4 5-3-1 4-4 4-10v-7l-9-4 3-1 5 2-2-6z" fill="#2E3D44"/>
<path transform="translate(1106,1397)" d="m0 0h8l2 2v5l-2 2h-8z" fill="#263238"/>
<path transform="translate(380,998)" d="m0 0 4 2 8 16-2 3-7-1 4-2-2-7-5-9z" fill="#3A4B53"/>
<path transform="translate(576,1525)" d="m0 0 3 1 9 29h-3l-9-27z" fill="#635C60"/>
<path transform="translate(568,1498)" d="m0 0h2l8 25v2h-3l-7-23z" fill="#695D60"/>
<path transform="translate(346,1025)" d="m0 0 5 1 3 4v3l-7-1-9-5v-1z" fill="#FAFAFA"/>
<path transform="translate(621,932)" d="m0 0 4 8 2-3v9l-1 3h-3l-3-8v-8z" fill="#AD6359"/>
<path transform="translate(744,1303)" d="m0 0v3l-8 7-12 6-8 3h-6l2-2 12-4 9-4 9-7z" fill="#424145"/>
<path transform="translate(761,1307)" d="m0 0 5 1v9l-9-3 2-5z" fill="#FAFAFA"/>
<path transform="translate(612,1361)" d="m0 0 6 1-4 3-17 11-2-2 17-11z" fill="#795E5E"/>
<path transform="translate(769,1289)" d="m0 0 6 1 3 2v4l-10-1z" fill="#29363C"/>
<path transform="translate(1706,1055)" d="m0 0h2l-1 9h-8l2-4z" fill="#2E3D44"/>
<path transform="translate(604,1123)" d="m0 0v3l-11 15-4-2-4-5 4 2 3 2 8-10z" fill="#263238"/>
<path transform="translate(670,979)" d="m0 0h1v13l-5-5-2-3z" fill="#455A64"/>
<path transform="translate(627,903)" d="m0 0 2 1-5 8v3l3 1-3 3-2 5h-1v-11l4-8z" fill="#2B393F"/>
<path transform="translate(586,1555)" d="m0 0 3 1 4 12v2h-3l-4-11z" fill="#715D5F"/>
<path transform="translate(564,935)" d="m0 0h2l1 3-5 5-3 1-3-2 1-3z" fill="#343B3E"/>
<path transform="translate(414 1e3)" d="m0 0 3 1-2 1-1 7 2 7v8l-2-4-3-13z" fill="#29363D"/>
<path transform="translate(906,825)" d="m0 0 5 2-1 5h-7l2-6z" fill="#F5952B"/>
<path transform="translate(554,1418)" d="m0 0h1l1 21-3-1v-19z" fill="#535B62"/>
<path transform="translate(567,892)" d="m0 0 6 2-1 4-8-1-1-2 1-2z" fill="#2A373D"/>
<path transform="translate(703,1322)" d="m0 0h7l-2 2-14 2h-10v-1z" fill="#4C4346"/>
<path transform="translate(536,898)" d="m0 0 5 1v3l-4 2h-5l1-4z" fill="#29363D"/>
<path transform="translate(560,1402)" d="m0 0 3 1-5 8-2 9-3-1 2-8z" fill="#775E5E"/>
<path transform="translate(941,651)" d="m0 0 4 1 1 4-2 2-5-1 1-5z" fill="#F5952B"/>
<path transform="translate(867,1067)" d="m0 0 5 1 1 4-2 2-4-1-1-5z" fill="#F5952B"/>
<path transform="translate(1079,848)" d="m0 0 5 1 1 4-4 2-3-2z" fill="#F5952B"/>
<path transform="translate(1081,1402)" d="m0 0 2 3 2 6h-7l1-5z" fill="#2B383F"/>
<path transform="translate(850,1315)" d="m0 0 4 2-1 5-5-1-1-3z" fill="#29353C"/>
<path transform="translate(853,1049)" d="m0 0 5 2-1 5-5-1-1-3z" fill="#F5952B"/>
<path transform="translate(364 1e3)" d="m0 0h7l4 7-5-1-6-5z" fill="#F5952B"/>
<path transform="translate(848,1402)" d="m0 0 2 2 2 7h-7z" fill="#2B383F"/>
<path transform="translate(932,1017)" d="m0 0 5 1 1 4-1 1h-5l-1-5z" fill="#F5952B"/>
<path transform="translate(572,1512)" d="m0 0h2l4 11v2h-3l-3-9z" fill="#725D5F"/>
<path transform="translate(769,1309)" d="m0 0 4 1 1 5-2 2h-3z" fill="#FAFAFA"/>
<path transform="translate(870,1102)" d="m0 0 5 1 1 4-4 2-3-2z" fill="#F5952B"/>
<path transform="translate(671,936)" d="m0 0 2 2 3 10-1 7h-1l-3-14z" fill="#FAFAFA"/>
<path transform="translate(911,1102)" d="m0 0 4 2-1 5h-5l1-6z" fill="#F5952B"/>
<path transform="translate(623,929)" d="m0 0 2 1 1 4v9l-2-3-2-4z" fill="#29353C"/>
<path transform="translate(675,961)" d="m0 0h1l-1 8-3 6h-1v-6z" fill="#FAFAFA"/>
<path transform="translate(591,1570)" d="m0 0 3 1 3 10-4-2z" fill="#625C60"/>
<path transform="translate(571,1391)" d="m0 0h2l-1 3-8 7h-3l5-6z" fill="#5B5B61"/>
<path transform="translate(553,930)" d="m0 0h1v9l3 1-4 1-2-7-1-3z" fill="#2C3940"/>
<path transform="translate(495,986)" d="m0 0" fill="#455A64"/>
<path transform="translate(494,985)" d="m0 0" fill="#FAFAFA"/>
<path transform="translate(488,980)" d="m0 0" fill="#FAFAFA"/>
<path transform="translate(487,979)" d="m0 0" fill="#FAFAFA"/>
<path transform="translate(486,977)" d="m0 0" fill="#455A64"/>
<path transform="translate(485,976)" d="m0 0" fill="#37474F"/>
</svg>
