<?xml version="1.0" encoding="UTF-8"?>
<svg version="1.1" viewBox="0 0 2000 2000" width="1280" height="1280" xmlns="http://www.w3.org/2000/svg">
<path transform="translate(1616,139)" d="m0 0h227v227h-106l1 979 13-28 8-15 4-5h4l4 6 6 21 5 32 3 31v34l-4 25-6 21-8 19-8 15-7 10-9 11-5 5v39l14-29 12-22 16-26 12-18 13-19 20-28 4-1 1 2 2 27v26l-2 20-4 18-5 14-6 12-7 9-8 8-14 9-16 7-20 6 26 1v32h-6l6 67 3 34v11l11 2 31 9 24 9 19 10 9 7 5 7 1 3v8l-5 8-9 8-14 8-19 8-28 9-36 9-45 9-49 8-59 8-63 7-77 7-85 6-94 5-78 3-77 2-64 1h-154l-64-1-106-3-90-4-84-5-78-6-82-8-65-8-60-9-48-9-35-8-31-9-22-8-17-8-11-8-7-8-2-4v-8l4-7 5-5 9-7 23-11 30-10 31-8h3l-6-11-17-32-11-23-14-33-12-34-9-28-11-44-8-44-4-35-2-33v-41l2-31 4-32 5-26 9-36 11-32 11-26 14-28 10-17 14-21 8-10 9-10 8-7 15-11 19-10 21-7 15-3 8-1h22l20 3 18 5 19 9 2-10 12-38 11-31 9-20 7-12 8-10 9-6h2v-304l4-10 7-7 11-5 106-1h353v-266l2-18 5-13 7-11 10-11 10-7 11-5 11-3 8-1h617zm-1032 854-28 1 4 17 1 8v15l-6 57-5 43v16l23 13 27 15 3 2 6-1 12-6 21-4 10-1h38l17 4 17-54v-4h171l-9 27-16 52 2 5 8 11 11 13 4 5h40v-234zm-28 8v31l-2 35-4 40v9h1l8-70 1-14v-14l-2-13zm-7 115-3 28 1 4 1-1 2-20v-11zm149 78-14 4 4 3 3 2h6l3-9z" fill="#FDFDFD"/>
<path transform="translate(1616,139)" d="m0 0h227v227h-106l1 979 13-28 8-15 4-5h4l4 6 6 21 5 32 3 31v34l-4 25-6 21-8 19-8 15-7 10-9 11-5 5v39l14-29 12-22 16-26 12-18 13-19 20-28 4-1 1 2 2 27v26l-2 20-4 18-5 14-6 12-7 9-8 8-14 9-16 7-20 6 26 1v32h-6l6 67 8 94v6h-159l6-68-326 1-8 10-11 14-11 13-11 14-28 34-12 14-9 11-12 14-9 10-7 8-12 13-7 1-17-10-36-26-13-10-2-3 11-14 13-16 13-17 11-13 10-13 4-6-4-6v-7l5-10 8-7 15-9 14-5 6-1-10-13-6-8-10-8v-1l7-1-3-8v-14l4-6 3-3 9-1 6 3 5 6 3 6 2 18 27-1 4-2v2h5l2-5 5-5v6l22-11 24-11 14-5 11 1 12 4 8 6 2 6-7 11-3 4h294v-11l3-37 1-5h-7v-32l43-1-25-12-19-10-13-10-9-10-7-10-10-17-8-19-5-18-2-10v-8l4-1 14 10 10 8 14 12 15 15 9 11 11 14 12 19 10 19 6 15v3h5v-25l-8-12-10-13-12-14-12-17-11-19-10-24-6-18-5-25-1-12v-27l2-15 4-16 3-7 4 1 9 10 8 11 9 14 9 16 8 17 8 22 6 22 6 30 3 23 1 12v-1117l-3-18-5-16-6-11-7-9-8-6-12-5-8-2h-133l-5 4-3 7-1 15-3 10-6 5-6 2h-302l-6-2-6-5-3-10-1-15-4-8-5-3h-133l-13 3-10 5-10 10-8 16-5 17-2 14v848l10 7 12 11 10 12 7 11 5 8 5 14 4 18v26l-4 15-5 13-11 23-16 27-17 26v47l14 10 76 56 16 12 57 42 16 12 18 13-4 7-12 16-28 38-15 20-28 38-21 28-5 7-5-2-19-13-69-48-32-22-20-14-16-11-20-14-16-11-23-16-9-6-5 5-7 8-5-2-14-11-26-20-18-14-17-13-56-43-10-8 2-4 2-5-14-10-19-13-8-5-10 7-18 10-17 9-26 11-21 7-20 4-18 2h-40l-23-3-21-5-18-7-17-9-13-10-10-10-10-14-7-14-5-16-3-18v-19l3-24 3-7 40-17 12-6 8-7 1-2-4-2-6-7-5-11-5-21-3-20-1-12-1-80 3 3 2-14 2-2-1 18-1 19v41l2 25 5 32 4 14 7 11 5 4 7-4 18-13 33-22 21-13 22-12 26-13h2l-4-10-13-29-2-5 1-3 13 25 9 19 30-10 21-4h22l18 4 20 7 13 5 6-18-15 4-4-1 17-5h3l2-9 9-29v-3l-19 5-16 4-4-1 27-8 7-2h7l3-12 18-57 14-46h171l-3 11-17 55-4 13 2 5 8 11 11 13 3 4h29l12 1-1-280v-59l1-545 4-14 6-11 11-13 10-8 13-6 11-3 8-1h617z" fill="#37474E"/>
<path transform="translate(935,356)" d="m0 0h1v871h-1v-234l-379 1 4 13 2 12v15l-6 57-5 43v16l24 13 23 13 5 3 6-1 12-6 21-4 10-1h38l16 4-1 8-5 15-13 4-1 1 5 3 6 1-3 11-5 15-14 3-24 7 33-8 4-1-1 7-11 35-16 5 11-3h4l-3 11-3 8-27-10-14-4-10-2h-22l-25 5-22 8-4 1-9-17-11-23-2-2 12 27 6 13v4l-23 11-22 12-23 14-36 24-18 13-7 4-6-5-7-11-4-14-5-32-2-25v-41l2-35-3 22h-1l-1-8 1 77 3 26 5 24 5 12 4 6 6 5-2 4-10 8-25 11-24 10-3 1h-8l5-42 8-52 10-50 11-43 3-12-13-12-7-9 1-9 9-14 7-10 6-15 2-9-10 21-7 11-6 8v-3l8-13 8-16 7-16 1-5-21 6-16 8-11 7-16 15-10 13-11 18-8 17-9 27-5 22-4 31-1 13v34l2 26 4 26 6 25 7 21 9 21 12 22 12 18 7 9 9 11 11 12 15 15 11 9 13 10 24 16 22 12 17 8 25 10 28 9 30 7 25 4 19 2 17 1h22l10-1 13-18 9-12 4-2 14 11 16 13 14 11 20 16 13 10 4-2 3-1h9l10 6 8 10 8 14 5 16h2l7-6 9-6 15-7 6-2h13l8 5 2 4v10l-6 7-12 5-7 1h-24l5 4-1 3 1 5 5 2 3 4-3 1 3 5 7 5v2h-4l3 5 8 5v3l-5-1 14 29 4 8 2 5 6 14 1 8-4 16-6 10-4 3-6-1-19-14-18-14-6-5-94-1-234-1-165-1-14-17-13-18-16-24-10-16-9-15-15-28-12-25-14-33-12-34-9-28-11-44-8-44-4-35-2-33v-41l2-31 4-32 5-26 9-36 11-32 11-26 14-28 10-17 14-21 8-10 9-10 8-7 15-11 19-10 21-7 15-3 8-1h22l20 3 18 5 19 9 2-10 12-38 11-31 9-20 7-12 8-10 9-6h2v-304l4-10 7-7 11-5 106-1h353zm-379 645v31l-2 35-4 40v9h1l8-70 1-14v-14l-2-13zm-7 115-3 28 1 4 1-1 2-20v-11z" fill="#C6C6C6"/>
<path transform="translate(1074,578)" d="m0 0h524v524h-524z" fill="#E4E4E4"/>
<path transform="translate(376,1116)" d="m0 0h4l-1 8-11 24-11 18 4-5 9-15 8-17 2-6 1 4-5 16-5 12-11 15-5 10v6l7 9 7 7 6 5-16 64-9 47-8 54-4 32-1 2 10-1-3 19-1 11v19l3 18 5 16 7 14 8 11 9 10 8 7 14 9 17 8 18 6 20 4 17 2h40l25-3 20-5 24-9 20-9 19-10 20-12 3-2 17 12 19 13 5 4-2 5-2 4 15 12 12 9 65 50 18 14 17 13 13 10 5 2 9-11h2l1-2 19 13 23 16 16 11 20 14 16 11 20 14 19 13 69 48 16 11 11 7 2-4 12-16 28-38 12-16 14-19 12-16 14-19 11-15 2-2 2 4 13 10 9 8 9 13 3 3v2l-15 5-14 7-11 8-6 9-1 3v7l4 7-13 16-11 14-13 16-11 14-13 16-1 3 11 9 14 10 18 13 15 10 9 5 7-1 7-7 7-8 11-12 9-11 12-14 11-13 14-17 9-11 13-16 11-14 12-14 14-18h326v11l-5 56 158 1-2-17-3-38 11 2 31 9 24 9 19 10 9 7 5 7 1 3v8l-5 8-9 8-14 8-19 8-28 9-36 9-45 9-49 8-59 8-63 7-77 7-85 6-94 5-78 3-77 2-64 1h-154l-64-1-106-3-90-4-84-5-78-6-82-8-65-8-60-9-48-9-35-8-31-9-22-8-17-8-11-8-7-8-2-4v-8l4-7 5-5 9-7 23-11 30-10 34-9 3 3 11 18 15 22 14 19 12 15 399 2 94 1 8 7 16 12 19 14 6 1 5-5 5-9 3-14-2-10-5-12v-2l-2-1-2-6-9-19-7-14 2-1 4 2v-3l-5-2-5-4-2-5 5 1-10-10-1-3 3-1-7-5-2-6h2l-5-5-1-2h25l10-2 10-5 4-5v-10l-3-5-6-3h-13l-15 6-11 6-10 8-3 2-4-13-8-16-9-12-10-6h-9l-5 3-5-2-13-11-9-7-14-11-16-13-14-11-8-6-4 2-8 11-14 19-10 1h-22l-27-2-29-4-27-6-24-7-28-10-26-12-17-9-16-10-14-10-13-10-14-12-20-20-9-11-8-10-12-18-10-17-9-19-7-18-6-21-5-22-3-21-2-26v-34l3-31 4-23 6-22 7-19 9-19 12-18 9-11 8-8 10-8 13-8 14-6z" fill="#E3E3E3"/>
<path transform="translate(935,356)" d="m0 0h1v871h-1v-234l-379 1-3-9-5-12-9-10-10-6-16-8-13-4-15-2-15 1-13 4-3 1v-304l4-10 7-7 11-5 106-1h353z" fill="#E3E3E3"/>
<path transform="translate(1616,139)" d="m0 0h227v227h-106l1 979 13-28 8-15 4-5h4l4 6 6 21 5 32 3 31v34l-4 25-6 21-8 19-8 15-7 10-9 11-5 5v39l14-29 12-22 16-26 12-18 13-19 20-28 4-1 1 2 2 27v26l-2 20-4 18-5 14-6 12-7 9-8 8-14 9-16 7-20 6 26 1v32h-6l6 67 8 94v6h-159l6-68-326 1-8 10-11 14-11 13-11 14-28 34-12 14-9 11-12 14-9 10-7 8-12 13-7 1-17-10-36-26-13-10-2-3 11-14 13-16 13-17 11-13 10-13 4-6-4-6v-7l5-10 8-7 15-9 14-5 6-1-10-13-6-8-10-8v-1l7-1-3-8v-14l4-6 3-3 9-1 6 3 5 6 3 6 2 18 27-1 4-2v2h5l2-5 5-5v6l22-11 24-11 14-5 11 1 12 4 8 6 2 6-7 11-3 4h294v-11l3-37 1-5h-7v-32l43-1-25-12-19-10-13-10-9-10-7-10-10-17-8-19-5-18-2-10v-8l4-1 14 10 10 8 14 12 15 15 9 11 11 14 12 19 10 19 6 15v3h5v-25l-8-12-10-13-12-14-12-17-11-19-10-24-6-18-5-25-1-12v-27l2-15 4-16 3-7 4 1 9 10 8 11 9 14 9 16 8 17 8 22 6 22 6 30 3 23 1 12 1-1102h1v1168h10v-71l3-39 4-31 6-31 6-25 10-30 1-2v-1009l-4-14-6-12-12-14-14-9-14-5-14-2-55-1z" fill="#455963"/>
<path transform="translate(999,287)" d="m0 0h672l14 2 16 6 13 9 9 10 4 5 7 17 2 8v1009l-6 16-6 19-7 31-6 36-4 40-1 16-1 71h-10l-1-1168-2-23-5-21-8-16-7-9-8-6-12-5-8-2h-133l-5 4-3 7-1 15-3 10-6 5-6 2h-302l-6-2-6-5-3-10-1-15-4-8-5-3h-133l-13 3-10 5-10 10-8 16-5 17-2 14-1 14-1 832-5-2-18-8-18-5-1-281v-59l1-545 4-14 6-11 11-13 10-8 13-6 11-3z" fill="#263238"/>
<path transform="translate(1330,640)" d="m0 0h15l10 3 9 5 10 9 8 10 12 23 10 30 6 27 4 24v6l10 2 16 8 13 11 10 12 9 14 10 19 11 27 11 35 12 43 5 25 1 7v23l-3 12-5 10-7 7-11 6-11 3-6 1h-286l-14-3-10-4-10-9-5-8-4-15v-23l5-28 11-40 11-35 6-17 10-23 11-20 9-12 7-8 8-7 11-7 12-5 7-1 1-13 6-29 7-25 8-21 9-17 8-11 6-7 11-8 12-5z" fill="#F7972B"/>
<path transform="translate(479,942)" d="m0 0 16 1 16 4 16 8 11 6 9 9 6 12 7 25 2 12v15l-6 57-5 43v16l24 13 23 13 5 3 6-1 12-6 21-4 10-1h38l16 4-1 8-5 15-13 4-1 1 5 3 6 1-3 11-5 15-14 3-24 7 33-8 4-1-1 7-11 35-16 5 11-3h4l-3 11-3 8-27-10-14-4-10-2h-22l-25 5-22 8-4 1-9-17-11-23-2-2 12 27 6 13v4l-23 11-22 12-23 14-36 24-18 13-7 4-6-5-7-11-4-14-5-32-2-25v-41l2-35-3 22h-1l-1-8 1 77 3 26 5 24 5 12 4 6 6 5-2 4-10 8-25 11-24 10-3 1h-8l5-42 8-52 10-50 11-43 3-12-13-12-7-9 1-9 9-14 7-10 6-15 2-9-10 21-7 11-6 8v-3l8-13 8-16 7-16 8-25 14-46 12-36 9-24 9-19 10-14 11-8 13-5zm77 59v31l-2 35-4 40v9h1l8-70 1-14v-14l-2-13zm-7 115-3 28 1 4 1-1 2-20v-11z" fill="#F6962B"/>
<path transform="translate(376,1116)" d="m0 0h4l-1 8-11 24-11 18 4-5 9-15 8-17 2-6 1 4-5 16-5 12-11 15-5 10v6l7 9 7 7 6 5-16 64-9 47-8 54-4 32-1 2 10-1-3 19-1 11v19l3 18 5 16 7 14 8 11 9 10 8 7 14 9 17 8 18 6 20 4 17 2h40l25-3 20-5 24-9 20-9 19-10 20-12 3-2 17 12 19 13 5 4-2 5-2 4 2 3-9 12 5 5 12 10 28 22 16 13 28 22 16 13 14 11 10 8 3 4-8 10-15 11-4 3-4-13-8-16-9-12-10-6h-9l-5 3-5-2-13-11-9-7-14-11-16-13-14-11-8-6-4 2-8 11-14 19-10 1h-22l-27-2-29-4-27-6-24-7-28-10-26-12-17-9-16-10-14-10-13-10-14-12-20-20-9-11-8-10-12-18-10-17-9-19-7-18-6-21-5-22-3-21-2-26v-34l3-31 4-23 6-22 7-19 9-19 12-18 9-11 8-8 10-8 13-8 14-6z" fill="#E3E3E3"/>
<path transform="translate(1616,139)" d="m0 0h227v227h-106v984h-1l-1-1006-4-14-6-12-12-14-14-9-14-5-14-2-55-1z" fill="#E2E2E2"/>
<path transform="translate(1694,414)" d="m0 0h1v1168h10v-71l3-39 4-31 6-31 6-25 10-30 10-23 12-25 7-10h4l4 6 6 21 5 32 3 31v34l-4 25-6 21-8 19-8 15-7 10-9 11-5 5v39l14-29 12-22 16-26 12-18 13-19 20-28 4-1 1 2 2 27v26l-2 20-4 18-5 14-6 12-7 9-8 8-14 9-16 7-20 6 26 1v32h-6l1 9v13h-133l1-17 1-5h-7v-32l43-1-25-12-19-10-13-10-9-10-7-10-10-17-8-19-5-18-2-10v-8l4-1 14 10 10 8 14 12 15 15 9 11 11 14 12 19 10 19 6 15v3h5v-25l-8-12-10-13-12-14-12-17-11-19-10-24-6-18-5-25-1-12v-27l2-15 4-16 3-7 4 1 9 10 8 11 9 14 9 16 8 17 8 22 6 22 6 30 3 23 1 12z" fill="#445963"/>
<path transform="translate(732,1114)" d="m0 0h163l-3 11-17 55-4 13 2 5 8 11 11 13 3 4 3 2v3l3 6v10l-4 6h-2l10 10 2 6-1 6-5 5-2 3 5 4 3 6v7l-5 7-3 2 2 6 1 2v9l-5 6-9 4-13 3h-29l-13-3-5 1-4 7h-62l-21-14-15-9-26-14-22-10-1-4 4-13 7-24 7-21 6-21 28-91z" fill="#455A64"/>
<path transform="translate(1116,1463)" d="m0 0h440v93h-440z" fill="#F7972B"/>
<path transform="translate(1194,1634)" d="m0 0 9 1 7 6 4 8 2 18 27-1 4-2v2h5l2-5 5-5v6l22-11 24-11 14-5 11 1 12 4 8 6 2 6-7 11-10 13-14 18-11 14-13 16-11 14-11 13-11 14-28 34-12 14-9 11-12 14-9 10-7 8-12 13-7 1-17-10-36-26-13-10-2-3 11-14 13-16 13-17 11-13 10-13 4-6-4-6v-7l5-10 8-7 15-9 14-5 6-1-10-13-6-8-10-8v-1l7-1-3-8v-14l4-6 3-3z" fill="#F6962B"/>
<path transform="translate(649,1588)" d="m0 0 5 2 17 14 14 11 15 12 28 22 4-2 3-1h9l10 6 8 10 8 14 5 16h2l7-6 9-6 15-7 6-2h13l8 5 2 4v10l-6 7-12 5-7 1h-24l5 4-1 3 1 5 5 2 3 4-3 1 3 5 7 5v2h-4l3 5 8 5v3l-5-1 14 29 4 8 2 5 6 14 1 8-4 16-6 10-4 3-6-1-19-14-18-14-17-13-11-9-10-8-18-14-13-11-11-9-16-13-11-9-17-14-8-7-9-7-11-10-11-9-8-8-5-4-3-4 1-6 6-11 14-20 13-18 9-12z" fill="#F6962B"/>
<path transform="translate(316)" d="m0 0h4v354h32l-1 18-4 38v11l16 11 23 16 16 11 23 16 16 11 4 3-3 9-7 14h-235l-10-23 19-13 23-16 19-13 23-16 15-10-1-17-5-50h33z" fill="#E4E4E4"/>
<path transform="translate(589)" d="m0 0h4v281h33l-6 60v7l23 16 16 11 23 16 35 24 2 2-10 22h-235l-10-20v-3l16-11 23-16 16-11 23-16 16-11 4-3v-10l-5-49v-8h32z" fill="#E4E4E4"/>
<path transform="translate(1763,1297)" d="m0 0h4l4 6 6 21 5 32 3 31v34l-4 25-6 21-8 19-8 15-7 10-9 11-5 5v39l14-29 12-22 16-26 12-18 13-19 20-28 4-1 1 2 2 27v26l-2 20-4 18-5 14-6 12-7 9-8 8-14 9-16 7-23 7h-6l8-16 12-22 6-7 10-8 10-9 8-8 14-16-5 4-16 16-8 7-12 12v-3l9-17 13-22 14-22 12-16-5 5-10 13-12 17-14 22-13 23-12 23-10 21-1 3h-7l3-9v-43l-13 11-9 10-2 4-1 27h-5v-71l3-39 4-31 6-31 6-25 10-30 10-23 12-25z" fill="#F6962B"/>
<path transform="translate(479,942)" d="m0 0 16 1 16 4 16 8 11 6 9 9 6 12 7 25 2 12v15l-6 57-5 43-1 12-2 3v-13l-1 8-1 3-6-2-29-15-18-8-4-2 1-6-6-2-11-7-10-9-8-10-1-4 14 12 11 5 13 3h15l12-3 10-6 5-4 9-13 6-16 3-16 1-13v-11l-2-10-8-16-7 10-7 7-14 7-3 2-2 4h-9l-1-4 3-2 9-2 12-6 7-6-14 8-11 4-9 2h-14l2-5 4-7-8 6-12 6-10 3-4 8-7 6-12-12h-7l-3 5v13l4 12 4 6 4 2 7 1 3 7v12l-3 25-2 5-12 4-11 7-12 12-13 24-8 17-9 25-2 7-4-2-10-9-6-7-2-3 1-9 9-14 7-10 6-15 2-9-10 21-7 11-6 8v-3l8-13 8-16 7-16 8-25 14-46 12-36 9-24 9-19 10-14 11-8 13-5zm77 59v31l-2 35-4 40v9h1l8-70 1-14v-14l-2-13z" fill="#273339"/>
<path transform="translate(678,1550)" d="m0 0 4 1 18 14 17 13 52 40 18 14 17 13 13 10 5 2 9-11h2l1-2 19 13 23 16 16 11 20 14 16 11 17 12-2 5-12 16-8 10-9 10-7 8-17 17-11 9-10 8h-33l-7-16v-2l-2-1-2-6-9-19-7-14 2-1 4 2v-3l-5-2-5-4-2-5 5 1-10-10-1-3 3-1-7-5-2-6h2l-5-5-1-2h25l10-2 10-5 4-5v-10l-3-5-6-3h-13l-20 8 6-8 1-3-9-8-28-22-16-13-28-22-16-13-14-11-20-16v-3z" fill="#C5C5C5"/>
<path transform="translate(1341,1667)" d="m0 0h294l-1 18-2 22-1 5h-324l3-5 11-14 14-18z" fill="#263238"/>
<path transform="translate(652,1167)" d="m0 0h38l16 4-1 8-5 15-13 4-1 1 5 3 6 1-3 11-5 15-14 3-24 7 33-8 4-1-1 7-11 35-16 5 11-3h4l-3 11-3 8-27-10-14-4-10-2h-22l-27 5-10-22-8-16-5-11v-3l8-7 12-12 11-9 9-8 18-13 14-8 12-3z" fill="#F6A89F"/>
<path transform="translate(542,993)" d="m0 0 4 4 7 16 1 7v11l-2 20-4 15-5 12-10 13-10 7-10 4-6 1h-15l-16-4-11-6-10-10 4 7 9 10 12 9 10 5-1 17-3 17-3 3-8-1-10-5-10-9-8-9-4-7 3-31 1-8v-12l-2-7h-7l-6-4-5-10-2-7v-13l3-5 1-1h7l7 6 4 6 6-4 4-6 2-4 12-4 12-6 7-5-2 5-5 8 14-1 15-4 20-10-4 5-13 8-5 2-7 1-3 1 1 3h9l2-5 12-5 8-6 7-8z" fill="#F6A89E"/>
<path transform="translate(1331,657)" d="m0 0h14l10 5 6 5 9 12 10 21 8 24 8 39 1 13h-123l5-28 8-30 8-21 9-17 10-13 8-6 5-3z" fill="#E4E4E4"/>
<path transform="translate(869,1195)" d="m0 0h2l9 13 12 14 3 4 3 2v3l3 6v10l-4 6h-2l10 10 2 6-1 6-5 5-2 3 5 4 3 6v7l-5 7-3 2 2 6 1 2v9l-5 6-9 4-13 3h-29l-16-4-9-5-7-8-1-7 5-4 7-1 17 4 9 1h19l19-3h-37l-23-2-9-1-12-6-7-8-1-9 3-5 6-3 6-2-12-7-5-7v-10l5-5 7-2 9 1 16 8 20 4h24l11-2-33-1-18-3-16-5-7-3-7-7-3-6 1-8 5-5 8-1 18 4 16 3h7l2-9z" fill="#F6A89F"/>
<path transform="translate(1694,414)" d="m0 0h1v1168h-7v-25l-8-12-10-13-12-14-12-17-11-19-10-24-6-18-5-25-1-12v-27l2-15 4-16 3-7 4 1 9 10 8 11 9 14 9 16 8 17 8 22 6 22 6 30 3 23 1 12z" fill="#F6962B"/>
<path transform="translate(1187,1233)" d="m0 0h98v97h-98z" fill="#E1E1E1"/>
<path transform="translate(1074,1235)" d="m0 0h93v94h-92l-1-1z" fill="#E2E2E2"/>
<path transform="translate(1305,1235)" d="m0 0h93v94h-91l-2-1z" fill="#E3E3E3"/>
<path transform="translate(1729,176)" d="m0 0h8l4 5v6l14 3 16 8 3 4v7l-4 5-2 1h-8l-13-6-7-3 1 34 15 5 11 6 7 7 4 9 1 4v12l-4 11-8 9-8 5-13 4h-5v13l-4 5h-6l-6-12-12-14-14-9-14-5-1-5 5-5h8l16 9 13 4v-35l-9-2-12-5-8-6-6-7-3-8v-17l4-9 7-8 6-4 11-4 9-1 1-8z" fill="#FDFDFD"/>
<path transform="translate(512,676)" d="m0 0h82l7 5 3 5 1 4v44l-3 7-7 6-3 1h-80l-7-4-4-6-1-3v-47l4-7 5-4z" fill="#F7972B"/>
<path transform="translate(1827,1423)" d="m0 0h2l1 2 2 27v26l-2 20-4 18-5 14-6 12-7 9-8 8-14 9-16 7-23 7h-6l8-16 12-22 6-7 10-8 10-9 8-8 14-16-5 4-16 16-8 7-12 12v-3l9-17 13-22 14-22 12-16-5 5-10 13-12 17-14 22-13 23-12 23-10 21-1 3h-7l3-9 1-45h1l1 38 14-29 12-22 16-26 12-18 13-19 20-28z" fill="#F4962C"/>
<path transform="translate(668,1564)" d="m0 0 4 1 10 8 14 11 25 20 14 11 16 13 9 7 14 11 16 13 9 7 3 4-8 10-15 11-4 3-4-13-8-16-9-12-10-6h-9l-5 3-5-2-13-11-9-7-14-11-16-13-14-11-9-7 4-7 10-12z" fill="#FCFCFB"/>
<path transform="translate(1181,1670)" d="m0 0 4 1 9 8 9 13 3 3v2l-15 5-14 7-11 8-6 9-1 3v7l4 7-13 16-11 14-13 16-11 14-13 16-1 2-4-1-10-8-11-8 1-4 11-14 13-16 11-14 13-16 22-28 13-16 11-14z" fill="#FCFCFC"/>
<path transform="translate(1579,1456)" d="m0 0 4 1 13 9 10 8 14 12 15 15 9 11 11 14 12 19 10 19 6 15v3l-7-1-25-12-19-10-13-10-9-10-7-10-10-17-8-19-5-18-2-10v-8z" fill="#F6962B"/>
<path transform="translate(724,1114)" d="m0 0h8l-2 9-22 71-5 18-6 18-6 21-7 21-4 13-2 11 26 12 22 12 20 12 16 11h62l5-8 7 1-2 5-14 20-12 16 4 2 36 26 19 14 14 10 18 13 17 13 16 11 16 13 5 5-5-2-15-10-17-12-20-14-18-13-17-12-18-13-14-10-18-13-14-10-18-13-20-14-19-13-19-12-15-9-17-9-16-8-1-3h-2l1-9 4-11-15 4-4-1 17-5h3l2-9 9-29v-3l-19 5-16 4-4-1 27-8 7-2h7l3-12 18-57z" fill="#263238"/>
<path transform="translate(1194,1634)" d="m0 0 9 1 7 6 4 8 2 18 27-1 4-2 1 4-3 3-10 30-3 14h-2l-1-3v-15l3-11 6-13-4 2-6 15-7 24-2 9-2-1-1-4v-11l4-16 6-12-4 2-6 14-7 24-3 11-2-1-1-11-7 11-9 10-10 6-8 1-6-3-4-5-1-2v-7l5-10 8-7 15-9 14-5 6-1-10-13-6-8-10-8v-1l7-1-3-8v-14l4-6 3-3z" fill="#28353B"/>
<path transform="translate(1074,1134)" d="m0 0h330v10h-330z" fill="#E4E4E4"/>
<path transform="translate(628,892)" d="m0 0h136v13h-263v-12z" fill="#A6A6A6"/>
<path transform="translate(1234,1246)" d="m0 0 7 1 5 6 3 9 1 9 4 1 5 4 5 11 5 16v10l-3 4-3 1h-54l-5-3-1-1v-12l5-16 5-10 6-5h3l1-9 4-10z" fill="#F4962B"/>
<path transform="translate(933,888)" d="m0 0h2v58h-7l-11-5-10 5h-13l-10-4-8-8-4-10v-13l4-10 7-7 8-4 3-1h13l11 5 10-5z" fill="#A6A6A5"/>
<path transform="translate(678,1550)" d="m0 0 4 1 18 14 17 13 52 40 18 14 17 13 12 9-6 7-7 8-4-2-12-10-28-22-16-13-17-13-13-11-13-10-15-12-14-11-2-3z" fill="#F6A89F"/>
<path transform="translate(1348,1247)" d="m0 0h8l5 6 3 9 1 9 6 2 4 5 5 11 4 14v10l-4 4-23 1h-24l-11-1-3-3-1-7 5-19 6-12 6-5h3l1-9 4-10z" fill="#A4A4A4"/>
<path transform="translate(1117,1247)" d="m0 0h8l5 6 4 13v5l6 2 6 8 7 21v11l-4 4h-57l-4-3v-12l5-16 5-10 4-4 5-1 1-9 4-10z" fill="#445963"/>
<path transform="translate(735,1646)" d="m0 0h9l10 6 8 10 8 14 5 16h2l7-6 9-6 15-7 6-2h13l8 5 2 4v10l-6 7-12 5-7 1h-24l5 4v2l-30-10-21-5v-2l10-2-14-10-7-7-5-9v-10l6-7z" fill="#29363D"/>
<path transform="translate(1640,1614)" d="m0 0h129l2 9v13h-133l1-17z" fill="#263238"/>
<path transform="translate(1074,1152)" d="m0 0h283v10h-283z" fill="#E4E4E4"/>
<path transform="translate(552,921)" d="m0 0h135v13h-186v-12z" fill="#A6A6A6"/>
<path transform="translate(1169,1657)" d="m0 0 5 5 7 6 2 2-5 5-7 8-8 10-11 14-13 16-11 14-13 16-10 13-14 17-10 13-5 7-8-6v-3l14-19 15-20 28-38 16-21 10-14 16-21z" fill="#F6A89E"/>
<path transform="translate(682,1539)" d="m0 0 9 6 18 14 54 39 46 32 21 14 1 3-9 11-5-2-14-11-26-20-18-14-17-13-56-43-10-8 2-4z" fill="#37474E"/>
<path transform="translate(1595,417)" d="m0 0 9 1 6 5 2 8-2 7-6 5-5 1-4 16-3 11-2 1 2 2-1 6-1 1h-6l-2-2 1-8h-21l2 3v5l-2 2h-6l-2-2v-5l2-2-2-2-8-32v-3h-4v-4h7l1 7 31-1 1-2h3v-9l4-6z" fill="#E8E8E8"/>
<path transform="translate(892,675)" d="m0 0h43v39h-43l-8-4-4-5-2-5v-11l4-8 7-5z" fill="#FEFEFE"/>
<path transform="translate(526,1431)" d="m0 0 5 2 18 13 16 11 23 16 43 30 8 6-5 5-19 11-4-1-9-10-7-8-18-20-11-12-32-34-8-8z" fill="#263238"/>
<path transform="translate(1481,432)" d="m0 0h9l7 6 3 5 5-8 5-3h9l5 5 2 10-4 13-9 11-12 10-5-2-12-11-6-8-4-10v-9l3-6z" fill="#E4E4E4"/>
<path transform="translate(1554,1125)" d="m0 0h7l7 4 4 7 4-5 5-5 3-1h7l5 4 2 4v11l-4 10-8 10-11 9-4 1-11-10-5-5-6-9-2-6v-11l4-6z" fill="#F7972B"/>
<path transform="translate(766,675)" d="m0 0h93v13h-131v-12z" fill="#A6A6A6"/>
<path transform="translate(724,1114)" d="m0 0h8l-2 9-22 71-5 18-6 18-6 21-7 21-4 13-2 11-1 2-5-2v-2h-2l1-9 4-11-15 4-4-1 17-5h3l2-9 9-29v-3l-19 5-16 4-4-1 27-8 7-2h7l3-12 18-57z" fill="#28353B"/>
<path transform="translate(1632,818)" d="m0 0 9 1 8 5 4 5 3 9-1 9-3 6-8 7-6 2h-8l-9-4-5-5-4-8v-9l4-9 7-6z" fill="#FBFBFB"/>
<path transform="translate(1036,818)" d="m0 0 9 1 8 5 4 5 3 8-1 11-4 6-7 6-6 2h-8l-9-4-7-8-2-6v-8l4-9 7-6z" fill="#FBFBFB"/>
<path transform="translate(316)" d="m0 0h4v354h-4z" fill="#C6C6C6"/>
<path transform="translate(1187,1233)" d="m0 0h98v97h-98zm4 4v89l1 1h88l1-1v-89z" fill="#2A373E"/>
<path transform="translate(933,888)" d="m0 0h2v58h-7l-10-5-7-8-4-10v-12l6-12 8-7 7-3z" fill="#F7972B"/>
<path transform="translate(1412,431)" d="m0 0h9l8 4 5 7 1 10-2 9 11 14-5 5h-3l-11-14-4 1h-9l-6-3-6-7-1-2v-12l4-6 6-5z" fill="#E4E4E4"/>
<path transform="translate(1694,414)" d="m0 0h1v1168h-3v-10l1-11z" fill="#A8A8A8"/>
<path transform="translate(589)" d="m0 0h4v281h-4z" fill="#C6C6C6"/>
<path transform="translate(1735,1529)" d="m0 0h1v44l-4 9h-22v-27l6-9 10-10z" fill="#263238"/>
<path transform="translate(764,1344)" d="m0 0h59l-1 5-6 12-10 14-9-6-19-14-14-10z" fill="#37474E"/>
<path transform="translate(1331,1493)" d="m0 0h8l6 3 6 7 1 3v10l-3 6-7 6-10 1-8-4-4-5-2-5v-7l3-7 4-5z" fill="#FAFAFA"/>
<path transform="translate(390,1206)" d="m0 0h1l-1 18-1 19v41l2 25 5 32 4 14 7 11 5 4 7-4 8-6 2 1-13 12-8 7-10 9-11 9-12 11-10 8-2-1 26-26 5-4 4-4 10-8 1-2-4-2-6-7-5-11-5-21-3-20-1-12-1-80 3 3 2-14z" fill="#2A373D"/>
<path transform="translate(1629,1356)" d="m0 0 4 4 12 22 8 16 9 20 9 25 7 23 6 26 3 19 2 26-2 1-3-16-7-8-12-12-9-11-6-8 1-2 11 12 7 8 13 13-2-14-5-23-3-6-1-9-7-24-8-22-2-4-6-16-14-29-5-8z" fill="#2B383F"/>
<path transform="translate(736,1650)" d="m0 0 7 1 8 5 8 9 10 19 4 9v2l-5-2-19-11-9-7-7-8-1-2v-11z" fill="#F7972B"/>
<path transform="translate(814,1676)" d="m0 0h11l6 3 1 1v7l-4 6-8 4-4 1h-25l-15-1v-2l19-11 10-5z" fill="#C4C4C4"/>
<path transform="translate(1205,1699)" d="m0 0h2l-1 4-13 22-9 10-7 5h-8l-5-3-1-1v-7l6-9 8-7 19-10z" fill="#F7972B"/>
<path transform="translate(1758,1317)" d="m0 0 1 3-9 20-6 15-8 26-1 8 2-1-2 5-3 4-7 30-7 41-6 41v6l15-14 11-12 12-16 5-8 1 2-8 14-12 16-15 15-10 7-2 10-2 1 1-25 5-36 11-54 8-32 8-26 8-20 8-17z" fill="#2B393F"/>
<path transform="translate(780,1206)" d="m0 0h9l6 5 1 2v9l-4 7-7 6-5 2h-10l-5-4-2-3v-7l3-8 5-5h2v-2z" fill="#FBFBFB"/>
<path transform="translate(1296,338)" d="m0 0h80l2 2v5l-2 2h-80l-2-2v-5z" fill="#FDFDFD"/>
<path transform="translate(1241,1494)" d="m0 0h10l8 4 4 5 2 5v7l-4 8-5 4-5 2h-10l-1-1v-33z" fill="#FBFBFB"/>
<path transform="translate(1207,1494)" d="m0 0h10l8 4 5 7 1 8-2 7-5 6-7 3h-10l-1-1v-33z" fill="#FBFBFB"/>
<path transform="translate(638,1634)" d="m0 0 9 1 7 6 2 6-1 7-4 6-5 4-9 1-8-5-3-4-1-8 3-7 5-5z" fill="#FCFCFC"/>
<path transform="translate(1157,1816)" d="m0 0h8l7 4 4 5 1 3v7l-5 8-6 3h-8l-7-4-4-6-1-7 3-7 5-5z" fill="#FCFCFC"/>
<path transform="translate(1816,1453)" d="m0 0v3l-11 15-12 19-9 15-13 23-3 6 18-18 8-7 15-15v3l-12 13-7 8-10 10-14 11-4 5-16 30-5 8h-2l1-5 14-29 10-19 13-22 11-17 10-14 9-12z" fill="#29363D"/>
<path transform="translate(1150,1377)" d="m0 0h9l5 5 3 9v7l-4 9-4 4h-8l-5-4-3-6v-15l4-6z" fill="#F9F9F9"/>
<path transform="translate(1074,431)" d="m0 0h60v11h-60z" fill="#E4E4E4"/>
<path transform="translate(1230,1377)" d="m0 0h9l5 5 3 9v7l-4 9-5 4h-7l-5-4-3-6v-14l3-6z" fill="#F8F8F8"/>
<path transform="translate(1195,1377)" d="m0 0h8l5 4 3 6v13l-4 8-4 3h-7l-6-5-3-9v-7l3-8z" fill="#F9F9F9"/>
<path transform="translate(683,1539)" d="m0 0 5 2 30 20 20 14 17 12 18 13 17 12 19 14 24 18v2l-4-2-14-9-16-11-23-16-17-12-36-26-15-11-21-16z" fill="#263238"/>
<path transform="translate(1333,1658)" d="m0 0v3l-8 10-10 13-13 16-12 16-14 17-22 28-14 17-11 14-14 17-8 10-14 17-7 8v-3l10-13 22-28 13-16 10-13 13-16 11-14 14-17 11-14 28-34 11-14z" fill="#2B393F"/>
<path transform="translate(1074,471)" d="m0 0h60v10h-60z" fill="#E4E4E4"/>
<path transform="translate(1074,451)" d="m0 0h60v10h-60z" fill="#E4E4E4"/>
<path transform="translate(1595,417)" d="m0 0 9 1 6 5 2 8-2 7-6 5-9 1-6-3-4-6v-9l4-6z" fill="#F7972B"/>
<path transform="translate(1447,1494)" d="m0 0h13l5 3 3 5-1 8-2 3 2 4v6h2l1 4-5 1-3-5-2-6-2-1h-6l-1 12-3 1-2-1v-33z" fill="#FCFCFC"/>
<path transform="translate(631,1676)" d="m0 0 5 2 12 10 13 10 18 14 16 13 12 9 16 13 14 11 16 13 14 11 12 10 14 11 13 11 3 2-1 2-18-14-13-10-14-11-15-12-14-11-13-10-16-13-14-11-11-9-14-11-17-14-11-9-7-6z" fill="#2C3A40"/>
<path transform="translate(1598,1479)" d="m0 0 8 6 14 12 14 14 9 11 11 15 8 13 10 19-1 3-9-14-13-5-8-5 2-1 14 6h2l-10-15-4-5-21-10-15-10-1-2 5 2 20 11 8 3-12-14-7-8-4-4v-2l-5-2-9-5 2-1 4 1-7-7-5-4z" fill="#2B383F"/>
<path transform="translate(1194,1639)" d="m0 0 7 1 6 5 3 7 1 6v9h-19l-3-7v-14l3-6z" fill="#F9F9F9"/>
<path transform="translate(1148,1644)" d="m0 0v3l-14 19-33 42-26 32-11 14-18 21v-3l14-19 13-16 10-13 13-16 11-14 26-32 8-10z" fill="#263238"/>
<path transform="translate(1093,1374)" d="m0 0h3v3l6 1 3 2v2l-4-1-5-2v14l7 2 3 3v7l-4 5-6 1v5h-3v-5l-6-1-5-3v-3l4 2 7 3v-14l-6-2-4-4v-7l5-5h5z" fill="#35454C"/>
<path transform="translate(1185,1494)" d="m0 0 4 4 10 27-1 4-4-1-2-4v-3l-13 1-3 6h-4l-1-2 11-30z" fill="#FAFAFA"/>
<path transform="translate(1426,1494)" d="m0 0 4 4 10 27-1 4-4-1-2-4v-3l-13 1-3 7-4-1 1-8 9-24z" fill="#FAFAFA"/>
<path transform="translate(1740,262)" d="m0 0 6 1 9 6 3 6v7l-3 6-8 5-7 1z" fill="#E4E4E4"/>
<path transform="translate(1416,795)" d="m0 0 5 4 2 4v9l-4 6-5 4h-11l-6-4-3-5v-11l4-6h2l1 9 3 4 6 1 4-2 1-2z" fill="#29353C"/>
<path transform="translate(1331,1499)" d="m0 0h8l6 5 2 5-1 7-6 7h-9l-5-4-2-4v-8l4-6z" fill="#F7972B"/>
<path transform="translate(1632,818)" d="m0 0 9 1 8 5 4 5 3 9-1 9-3 6-8 7-6 2h-8l-9-4-5-5-4-8v-9l4-9 7-6zm-2 4-8 4-5 6-1 3v11l5 8 6 4 3 1h8l8-4 6-9v-11l-5-8-8-5z" fill="#C6C6C6"/>
<path transform="translate(1036,818)" d="m0 0 9 1 8 5 4 5 3 8-1 11-4 6-7 6-6 2h-8l-9-4-7-8-2-6v-8l4-9 7-6zm-2 4-8 4-4 5-2 4v11l6 9 8 4h8l8-4 6-9v-11l-4-7-5-4-4-2z" fill="#C6C6C6"/>
<path transform="translate(1254,796)" d="m0 0h1l2 11 5 3 6-1 3-5 1-8 5 4 1 2v11l-4 6-5 3h-11l-8-7-1-3v-9l4-6z" fill="#28343B"/>
<path transform="translate(1390,1493)" d="m0 0h7l7 3 2 2-1 4-5-1-3-1h-7l-6 4-2 4 1 9 1 3 5 2h9l4-2 4 1-1 5-7 3h-9l-6-3-5-5-2-4v-11l3-6 6-5z" fill="#FBFBFB"/>
<path transform="translate(1724,205)" d="m0 0h2v32l-10-4-5-4-2-4v-9l3-5 5-4z" fill="#E4E4E4"/>
<path transform="translate(454,1203)" d="m0 0 2 3 1 4 2-4 2 14 3 16 6 26v2l27-14 29-15 16-8h3v2l-34 18-28 14-12 5-3-1-7-26-7-31z" fill="#2B383F"/>
<path transform="translate(1119,1249)" d="m0 0 6 1 5 10 2 10-1 1h-22l2-11 4-8z" fill="#DCDCDC"/>
<path transform="translate(1350,1249)" d="m0 0 5 1 4 5 3 9v7h-22l2-11 4-8z" fill="#E0E0E0"/>
<path transform="translate(1416,438)" d="m0 0 7 2 4 5v8l-4 5-8 2-6-3-3-5v-6l4-6z" fill="#FEFEFE"/>
<path transform="translate(779,812)" d="m0 0h6l4 5 1 2v12l-4 6-6 1-5-4-2-7 1-9z" fill="#E4E4E4"/>
<path transform="translate(1236,1249)" d="m0 0 5 2 4 9 2 10h-22l2-10 4-8z" fill="#E4E4E4"/>
<path transform="translate(648,811)" d="m0 0h5l-3 2-5 3-3 7 4-2h6l5 3 2 5-1 6-5 5h-7l-6-5-1-6 2-10 3-5z" fill="#E7E7E7"/>
<path transform="translate(976,1459)" d="m0 0h1v42l-3-1-10-20 1-5 10-14z" fill="#263239"/>
<path transform="translate(555,993)" d="m0 0 2 3 4 15 1 8v15l-6 57-5 43-1 12-2 3v-13l9-83 2-21v-14l-2-13-2-3z" fill="#45535A"/>
<path transform="translate(1289,1494)" d="m0 0h24l1 4-1 1h-9v27l-1 2-5-1v-28h-10z" fill="#F9F9F9"/>
<path transform="translate(1475,1494)" d="m0 0h24l1 5h-10v29l-4 1-1-1-1-28-10-1z" fill="#FDFDFD"/>
<path transform="translate(736,1650)" d="m0 0 7 1 8 5 8 9 7 14-4-2-10-8-14-11-5-4 1-3z" fill="#F6F6F6"/>
<path transform="translate(1758,1317)" d="m0 0 1 3-9 20-6 15-8 26-1 8 2-1-2 5-3 4-6 26-3-1 4-20 8-30 9-26 11-24z" fill="#2F3D44"/>
<path transform="translate(1190,1706)" d="m0 0 2 1-11 13-11 14-3 4-4-2v-7l6-9 8-7z" fill="#F7F7F7"/>
<path transform="translate(760,1716)" d="m0 0h14l15 4 11 6 8 6v2l-5-1-19-7-27-7-1-2z" fill="#29363D"/>
<path transform="translate(1246,1499)" d="m0 0 6 1 5 5 2 5-1 7-7 6h-6v-23z" fill="#F7972B"/>
<path transform="translate(1211,1499)" d="m0 0 7 1 6 7v9l-5 6-2 1h-6z" fill="#F7972B"/>
<path transform="translate(818,1245)" d="m0 0 10 3 21 5 8 1 36 1-3 2-11 2h-24l-20-4-16-8z" fill="#2E3C43"/>
<path transform="translate(751,1704)" d="m0 0h18l13 4 13 7 6 5-2 2-21-8-17-5-12-3z" fill="#28353B"/>
<path transform="translate(1258,1656)" d="m0 0 1 4-8 22-6 24-2 2-1-1v-19l4-13 8-14z" fill="#29353C"/>
<path transform="translate(767,1729)" d="m0 0h14l15 4 13 7 6 4v3l-33-11-17-4-1-2z" fill="#29363D"/>
<path transform="translate(576,811)" d="m0 0h1v21h3v2h-3v6h-1v-6h-18l6-9z" fill="#E4E4E4"/>
<path transform="translate(819,1277)" d="m0 0 11 2 17 3 13 1h36l-4 2-9 2-9 1h-20l-15-3-18-6z" fill="#2C3940"/>
<path transform="translate(1139,536)" d="m0 0h1v23h-12l-4-4v-6l5-6 7 1 2 1v-8z" fill="#F8F8F8"/>
<path transform="translate(1288,536)" d="m0 0h1v23h-12l-4-5 1-7 4-4 7 1 2 1v-8z" fill="#F7F7F7"/>
<path transform="translate(1352,543)" d="m0 0h2v18l-5 5-6-1v-1l8-1 1-5-2 1h-7l-4-3-1-5 2-5 3-2h7l2 1z" fill="#2D3A41"/>
<path transform="translate(1296,537)" d="m0 0h2l1 8 1-1h8l4 5v6l-4 4-6 1-3-2-3 1z" fill="#F4F4F4"/>
<path transform="translate(1321,543)" d="m0 0h6l2 2 1-2h2v16l-3-1-2 1h-6l-5-5v-6z" fill="#F6F6F6"/>
<path transform="translate(1150,1377)" d="m0 0h9l5 5 3 9v7l-4 9-4 4h-8l-5-4-3-6v-15l4-6zm2 2-5 5-2 6v8l3 8 4 3 7-1 4-6 1-3v-11l-5-8z" fill="#28353C"/>
<path transform="translate(1230,1377)" d="m0 0h9l5 5 3 9v7l-4 9-5 4h-7l-5-4-3-6v-14l3-6zm2 2-5 5-2 6v9l4 8 4 2 5-1 4-4 2-5v-10l-4-8-3-2z" fill="#2E3B42"/>
<path transform="translate(1239,543)" d="m0 0 6 1 1 1 2-2v16l-2-1-2 1h-7l-4-4-1-4 2-5z" fill="#F6F6F6"/>
<path transform="translate(1195,1377)" d="m0 0h8l5 4 3 6v13l-4 8-4 3h-7l-6-5-3-9v-7l3-8zm2 2-5 4-2 5v12l5 8 6 1 4-2 4-9v-8l-3-8-4-3z" fill="#28353B"/>
<path transform="translate(1762,1397)" d="m0 0 1 3-14 29-11 18-12 16-5 6v-3l16-25 9-15 12-21z" fill="#2B3940"/>
<path transform="translate(827,1310)" d="m0 0 25 1h40l-3 2-19 3h-19l-14-2-10-3z" fill="#2C3A40"/>
<path transform="translate(1135,1196)" d="m0 0h6l5 5v6l-3 4-8 1-4-4-1-5 3-5z" fill="#B5B9BC"/>
<path transform="translate(1106,1196)" d="m0 0h6l5 5v6l-3 4-8 1-4-4-1-5 3-5z" fill="#B7BCBE"/>
<path transform="translate(1111,543)" d="m0 0 6 2 3 4-1 7-4 3h-6l-5-5v-6l4-4z" fill="#B6BABD"/>
<path transform="translate(1333,1658)" d="m0 0v3l-8 10-10 13-13 16-12 16-5 6-5 2 2-4 14-17 8-10 14-17 11-14z" fill="#2D3B41"/>
<path transform="translate(699,810)" d="m0 0 5 1 2 3v5 4l3 3v8l-4 5-2 1h-6l-5-4-1-2v-8l4-4-1-8 2-3zm-1 12-4 2-2 3v6l4 5h7l5-5-1-7-5-4z" fill="#FEFEFE"/>
<path transform="translate(454,1203)" d="m0 0 2 3 1 4 2-4 2 14 3 16 6 26v2l5-3 3 1-2 2-7 2-3-7-9-37-3-14z" fill="#2D3C42"/>
<path transform="translate(526,1162)" d="m0 0 3 2 2-1 7 12 7 8 9 14 5 13 1 8-3 2-4-15-8-16-10-14-9-11z" fill="#2B3940"/>
<path transform="translate(1119,1377)" d="m0 0h8l6 5 1 2v8l-4 6-8 7-4 3 16 1v2h-22l2-4 16-14 1-8-3-4-8-1-4 3h-3l1-3z" fill="#28353C"/>
<path transform="translate(528,1018)" d="m0 0h1l2 15v29l-6-2-1 9-9-1-5-4 1-2 9 4 2 1v-11l6 1z" fill="#2C3940"/>
<path transform="translate(535,999)" d="m0 0h3l-1 4-8 8-14 7-3 2-2 4h-9l-1-4 3-2 9-2 12-6 7-6z" fill="#364046"/>
<path transform="translate(1809,1494)" d="m0 0v3l-12 13-7 8-10 10-10 8v-3l7-7 7-8 12-11z" fill="#2D3A41"/>
<path transform="translate(1223,1796)" d="m0 0v3l-11 14-11 13-8 10-7 8v-3l10-13 22-28z" fill="#2C3A40"/>
<path transform="translate(925,810)" d="m0 0h10v12h-7l-5 2 1-13z" fill="#E4E4E4"/>
<path transform="translate(1150,544)" d="m0 0h7l4 4 1 3-1 1h-13l2 4 6 1 4-2-2 4h-8l-4-4v-7z" fill="#424E54"/>
<path transform="translate(1077,537)" d="m0 0 4 2 5 7v2h2l2-5 5-6h2v22h-2l-1-17-6 8-4-2-4-6-1 17h-2z" fill="#303F46"/>
<path transform="translate(522,1246)" d="m0 0 4 5 18 37v4l-3-1-14-30-5-12z" fill="#2C3A40"/>
<path transform="translate(496,1029)" d="m0 0 2 2 10-1 2 2v9l-3 5-2-1-4-3v-7l-4-1z" fill="#2C373D"/>
<path transform="translate(779,810)" d="m0 0h6l5 5 2 5v9l-4 9-4 2-7-1-5-8v-12l5-8zm0 2-5 6-1 9 3 8 4 3 6-1 4-6v-12l-4-6-1-1z" fill="#FEFEFE"/>
<path transform="translate(536,1034)" d="m0 0h5l2 2h5l-1 4-4 2-3 5-3 1-4-1v-9z" fill="#29363C"/>
<path transform="translate(1636,1422)" d="m0 0 5 5 12 16 11 14 5 7-1 2-12-13-13-18-7-11z" fill="#2D3C42"/>
<path transform="translate(911,810)" d="m0 0h2v22l3 1h-3v6h-2v-6h-17l2-4 11-14zm-1 4-13 16v2h14v-18z" fill="#FEFEFE"/>
<path transform="translate(1098,1394)" d="m0 0 5 1 3 3v7l-4 5-6 1v5h-3v-5l-6-1-5-3v-3l4 2 8 3v-13h1v13l7-3 1-5-1-3-4-2z" fill="#29363D"/>
<path transform="translate(383,1114)" d="m0 0h1l-1 7-2 4-7 15-8 15-8 12-3 2 2-4 12-21 9-20 3-9z" fill="#3E4E56"/>
<path transform="translate(1212,536)" d="m0 0h1v11h12v-11h2v23h-2v-10h-12v10h-2v-22z" fill="#36474E"/>
<path transform="translate(1452,1499)" d="m0 0 9 1 2 3-1 5-3 2h-8v-10z" fill="#F7972B"/>
<path transform="translate(822,810)" d="m0 0h6l5 4 1 2v8l-13 13 13 1v2h-18l2-4 13-12 1-7-4-4h-7l-4 2 1-3z" fill="#FEFEFE"/>
<path transform="translate(1343,546)" d="m0 0h6l3 3v6l-4 3-6-1-2-6z" fill="#F3F3F3"/>
<path transform="translate(962,1479)" d="m0 0 3 1 7 15v2l-5-2-10-8z" fill="#BFBFBF"/>
<path transform="translate(752,810)" d="m0 0 6 1 5 5v12l-4 8-4 3-5 1v-2l8-4 2-6-2 1h-8l-5-4-1-8 3-5zm1 1-5 3-3 5 2 6 4 3h6l5-6-1-7-3-3z" fill="#FEFEFE"/>
<path transform="translate(1139,536)" d="m0 0h1v23h-12l-4-4v-6l5-6 7 1 2 1v-8zm-9 9-4 3v7l4 3 6-1 2-2v-7l-4-3z" fill="#303F47"/>
<path transform="translate(1321,543)" d="m0 0h6l2 2 1-2h2v16l-3-1-2 1h-6l-5-5v-6zm0 3-3 3 1 7 3 2 6-1 2-3v-5l-3-3z" fill="#323E44"/>
<path transform="translate(1288,536)" d="m0 0h1v23h-12l-4-5 1-7 4-4 7 1 2 1v-8zm-9 9-4 3v7l4 3 6-1 2-2v-7l-4-3z" fill="#2F3E45"/>
<path transform="translate(801,1777)" d="m0 0h8l9 2 9 5-2 1-11-4h-14l-13 4-4 3-2-1 8-6 8-3z" fill="#2F3D44"/>
<path transform="translate(1296,537)" d="m0 0h2l1 8 1-1h8l4 5v6l-4 4-6 1-3-2-3 1zm6 8-4 4 1 7 4 2 5-1 3-4-1-5-4-3z" fill="#29363C"/>
<path transform="translate(1150,1377)" d="m0 0h9l5 5 3 9v7l-3-3-2-9-3-5-7-1-4 4-2 6-3-1 1-5z" fill="#303D44"/>
<path transform="translate(512,811)" d="m0 0h6l4 2 3 7-2 6-12 12 13 1v1h-18l4-5 8-7 4-5v-6l-3-3-4-1-5 2-3 1 1-3z" fill="#FEFEFE"/>
<path transform="translate(534,811)" d="m0 0h16l-6 7-2 3 4 1 4 5v6l-4 6-2 1h-8l-3-2v-2l8 2 5-1 1-3v-7l-4-4-4-1 2-4 5-5-12-1z" fill="#FEFEFE"/>
<path transform="translate(1239,543)" d="m0 0 6 1 1 1 2-2v16l-2-1-2 1h-7l-4-4-1-4 2-5zm-1 3-3 2v7l3 3h5l3-3v-7l-3-2z" fill="#2E3B42"/>
<path transform="translate(1224,1388)" d="m0 0h1l1 11 4 8 6 1 4-2 4-6 1 4-5 6-2 1h-7l-5-4-3-6v-12z" fill="#28343B"/>
<path transform="translate(1295,1648)" d="m0 0 1 2-2 6v19l5 12-1 2-5-7-3-11v-10l3-10z" fill="#324148"/>
<path transform="translate(665,1198)" d="m0 0h19l-4 2-31 3h-10v-1l17-3z" fill="#314047"/>
<path transform="translate(555,993)" d="m0 0 2 3 4 15 1 8v15l-1 10h-1l-1-5v-21l-2-13-2-3z" fill="#647279"/>
<path transform="translate(576,811)" d="m0 0h1v21h3v2h-3v6h-1v-6h-18l6-9zm-2 4-13 16v2h14l1-1v-17z" fill="#FEFEFE"/>
<path transform="translate(1187,1390)" d="m0 0 3 3 2 9 3 5 6 1 4-1 1-4 3-1-1 5-5 4h-7l-6-5-3-9z" fill="#2C3A40"/>
<path transform="translate(870,810)" d="m0 0h15l-2 4-5 5 5 3 2 4v8l-5 5h-9l-3-3 10 1 4-3 1-6-3-5-5-2 2-4 5-6h-12z" fill="#FEFEFE"/>
<path transform="translate(1096,1395)" d="m0 0 7 3 1 6-5 5h-3z" fill="#F2F2F2"/>
<path transform="translate(1608,1511)" d="m0 0 5 2 20 11 10 4-2 3-17-8-15-10z" fill="#2C3A41"/>
<path transform="translate(1631,828)" d="m0 0 7 6 6 7-12 11-2-2 9-9-1-3-8-7z" fill="#C6C6C6"/>
<path transform="translate(1040,828)" d="m0 0 2 1-2 4-7 6 2 4 7 7-2 2-12-11 6-7z" fill="#C6C6C6"/>
<path transform="translate(682,1229)" d="m0 0h6l-1 2-19 5-16 4-4-1 27-8z" fill="#314047"/>
<path transform="translate(433,1031)" d="m0 0 5 3 5 6 2 6v11l-2-1-3-7-5-2v-1l7 1-6-12-3-2z" fill="#2E3C43"/>
<path transform="translate(1333,1658)" d="m0 0v3l-8 10-10 13-5 5v-3l11-14 11-13z" fill="#2F3D44"/>
<path transform="translate(1090,1379)" d="m0 0h3v13l-6-2-1-1v-7z" fill="#F8F8F8"/>
<path transform="translate(1763,1343)" d="m0 0 1 3-12 23-7 11-2-1 15-27z" fill="#2E3C43"/>
<path transform="translate(551,1108)" d="m0 0h1l1 10-3 28-2 3v-13z" fill="#4C5B63"/>
<path transform="translate(648,811)" d="m0 0h5l-3 2-5 3-3 7 4-2h6l3 3h-9l-4 4v8l-2-1-1-6 2-10 3-5z" fill="#FDFDFD"/>
<path transform="translate(778,1792)" d="m0 0 5 3 17 14 9 7-1 2-18-14-12-9z" fill="#2F3D44"/>
<path transform="translate(1724,1421)" d="m0 0h1l-1 12-3 16-3-2 2-13 3-12z" fill="#2D3B42"/>
<path transform="translate(1119,1377)" d="m0 0h8l6 5 1 2v8h-3v-7l-3-4-8-1-4 3h-3l1-3z" fill="#2A373E"/>
<path transform="translate(1206,1817)" d="m0 0v3l-13 16-7 8v-3l10-13 7-9z" fill="#303F46"/>
<path transform="translate(1255,543)" d="m0 0 3 1 5-1 5 4v12h-2l-1-12-5-1-3 3-1 10h-1z" fill="#364349"/>
<path transform="translate(631,1676)" d="m0 0 5 2 12 10 8 6-1 3-17-14-7-6z" fill="#314047"/>
<path transform="translate(537,1022)" d="m0 0 7 1 3 3-1 4-5-1-5-3z" fill="#2A373E"/>
<path transform="translate(503,1018)" d="m0 0h7v2h2l-2 4h-9l-1-4z" fill="#2A373D"/>
<path transform="translate(698,812)" d="m0 0 5 1 1 1v5l-3 2-4-1-1-1v-5z" fill="#E4E4E4"/>
<path transform="translate(1728,1398)" d="m0 0 2 2-1 9-3 14-3-1 4-20z" fill="#303F46"/>
<path transform="translate(624,822)" d="m0 0 4 2 2 2v9l-5 5-6 1-5-3-1-2 9 2 4-2 2-4-1-6z" fill="#FEFEFE"/>
<path transform="translate(1093,1374)" d="m0 0h3v3l6 1 3 2v2l-4-1-6-2v12h-1v-12h-5l1-2h3z" fill="#29353C"/>
<path transform="translate(1181,543)" d="m0 0h4l6 1 3 3v12h-1l-2-12-5-1-2 1-2 12h-1z" fill="#2F3C42"/>
<path transform="translate(1755,1465)" d="m0 0 1 2-8 14-5 7-4 1 2-4 11-15z" fill="#303F46"/>
<path transform="translate(372,1139)" d="m0 0 1 3-10 18-7 9v-3l8-13z" fill="#405057"/>
<path transform="translate(1295,1706)" d="m0 0v3l-10 13-5 2 2-4 9-11z" fill="#2C3A41"/>
<path transform="translate(559,1039)" d="m0 0h1v14l-2 19h-1l-1-9z" fill="#4C5A61"/>
<path transform="translate(925,810)" d="m0 0h10v2h-9l-1 9 2-1h6l2 2h-7l-5 2 1-13z" fill="#FEFEFE"/>
<path transform="translate(1597,422)" d="m0 0 3 1v15h-3v-12l-3-1z" fill="#F5F5F5"/>
<path transform="translate(615,811)" d="m0 0h15v2h-14l-1 9 2 1-3 2-1-2z" fill="#FEFEFE"/>
<path transform="translate(1166,543)" d="m0 0h2l1 2 3-2h3v2l-5 3-1 2-1 9h-2z" fill="#37454D"/>
<path transform="translate(1077,537)" d="m0 0 4 2-1 2-1 18h-2z" fill="#273339"/>
<path transform="translate(465,1251)" d="m0 0h2l3 11v2l5-3 3 1-2 2-7 2-3-7z" fill="#2F3D44"/>
<path transform="translate(1195,1377)" d="m0 0 2 1v2l-4 3-4 12h-1v-9l4-7z" fill="#2A373E"/>
<path transform="translate(1426,1505)" d="m0 0 2 3 2 7h-8z" fill="#F7972B"/>
<path transform="translate(1185,1505)" d="m0 0 2 3 2 7h-8z" fill="#F7972B"/>
<path transform="translate(1152,545)" d="m0 0h5l2 2v3h-11z" fill="#FAFAFA"/>
<path transform="translate(1710,1514)" d="m0 0 1 2h2v2l-2 1-2 10-2 1v-10l2-5z" fill="#314047"/>
<path transform="translate(1816,1453)" d="m0 0v3l-11 15-2 2v-4z" fill="#2E3C42"/>
<path transform="translate(496,811)" d="m0 0h2v29h-1v-26l-6 2z" fill="#FEFEFE"/>
<path transform="translate(1629,1356)" d="m0 0 4 4 8 14-3 1-9-16z" fill="#314047"/>
<path transform="translate(1291,1671)" d="m0 0h2l6 18-5-5-3-8z" fill="#2D3B42"/>
<path transform="translate(1352,543)" d="m0 0h2v9l-2 1-1-6-8-1 1-2h6l2 1z" fill="#2F3C42"/>
<path transform="translate(809,1778)" d="m0 0 9 1 9 5-2 1-11-4-10-1v-1z" fill="#2C3A40"/>
<path transform="translate(489,1254)" d="m0 0 2 1v2l-11 5h-3v-2z" fill="#2C3A40"/>
<path transform="translate(682,1229)" d="m0 0h6l-1 2-10 3h-5l-1-2z" fill="#2E3C43"/>
<path transform="translate(1151,1196)" d="m0 0h2l1 2 3-2 3 1-5 3-2 4-1 8h-1z" fill="#2D3A40"/>
<path transform="translate(1157,545)" d="m0 0 3 1 2 5-1 1h-13v-2h11z" fill="#34434A"/>
<path transform="translate(555,993)" d="m0 0 2 3 3 11v9h-1l-2-11-2-3z" fill="#4E5D64"/>
<path transform="translate(1274,553)" d="m0 0 5 4 6-1 4-3v6h-12l-3-3z" fill="#2E3B41"/>
<path transform="translate(1125,553)" d="m0 0 5 4 6-1 4-3v6h-12l-3-3z" fill="#2E3B41"/>
<path transform="translate(1230,1377)" d="m0 0 2 1v2l-4 4-2 6-3-1 2-7z" fill="#2C3940"/>
<path transform="translate(1130,1273)" d="m0 0 3 3 3-3 1 5-2 2-5-1z" fill="#314046"/>
<path transform="translate(526,1162)" d="m0 0 3 2 2-1 6 11h-3l-8-10z" fill="#384448"/>
<path transform="translate(1320,544)" d="m0 0m-2 1 2 1-1 8 3 3 5 1v1h-6l-5-5v-6z" fill="#2B3940"/>
<path transform="translate(1203,1687)" d="m0 0 3 1 4-1v7l-2 2-5-7z" fill="#EA983F"/>
<path transform="translate(1763,1343)" d="m0 0 1 3-8 16-2-1 2-5z" fill="#303F46"/>
<path transform="translate(380,1123)" d="m0 0 1 4-4 14-3-1 3-9z" fill="#C1C1C1"/>
<path transform="translate(1732,1387)" d="m0 0 1 4 1 3-3 6h-2l1-10z" fill="#29353C"/>
<path transform="translate(433,1031)" d="m0 0 5 3 5 6 1 4h-3l-5-9-3-2z" fill="#364144"/>
<path transform="translate(1129,543)" d="m0 0h5v3l-6 1-3 8h-1v-6z" fill="#445157"/>
<path transform="translate(801,1777)" d="m0 0h8v2l-12 2v-3z" fill="#303E45"/>
<path transform="translate(1308,1688)" d="m0 0h2l-2 5-5 5h-2l2-4z" fill="#2E3C43"/>
<path transform="translate(1639,1375)" d="m0 0 3 1 5 11h-3l-5-10z" fill="#2C3A40"/>
<path transform="translate(510,1062)" d="m0 0 14 6v1l-9-1-5-4z" fill="#324148"/>
<path transform="translate(1330,543)" d="m0 0h2v16l-7-1 4-4h2z" fill="#36454B"/>
<path transform="translate(1608,1511)" d="m0 0 5 2 9 5-1 3-12-8z" fill="#2F3E44"/>
<path transform="translate(1734,1381)" d="m0 0 1 4v4l2-1-2 5h-2l-1-5-1-2z" fill="#34444B"/>
<path transform="translate(1758,1317)" d="m0 0 1 3-6 13-2-3z" fill="#34444B"/>
<path transform="translate(1278,543)" d="m0 0h5v3l-6 1-3 7-1-4 3-5z" fill="#3B494F"/>
<path transform="translate(1333,1658)" d="m0 0v3l-8 10-1-3z" fill="#35454D"/>
<path transform="translate(1105,1273)" d="m0 0 3 3 2-2v5l-4 1-2-1v-5z" fill="#2E3C43"/>
<path transform="translate(923,835)" d="m0 0 5 2 7-1v3l-8 1-4-3z" fill="#FEFEFE"/>
<path transform="translate(796,1806)" d="m0 0 8 6 5 4-1 2-13-10z" fill="#3B4C54"/>
<path transform="translate(1202,1692)" d="m0 0 4 3v2l-8 2z" fill="#F7972B"/>
<path transform="translate(781,1692)" d="m0 0 4 4v1h-9v-2z" fill="#F7972F"/>
<path transform="translate(1737,1370)" d="m0 0 1 4-2 7-3 1 2-10z" fill="#2E3C43"/>
</svg>
