<?xml version="1.0" encoding="UTF-8"?>
<svg version="1.1" viewBox="0 0 2000 2000" width="1280" height="1280" xmlns="http://www.w3.org/2000/svg">
<path transform="translate(1458)" d="m0 0h4v269h31l-6 60-1 4 4 2 12 8 23 16 16 11 23 16 18 12-9 21-1 1h-165v234h368l10 4 8 9 4 9 1 110v213l-4 10-6 8-8 5-6 2-7 1h-360v170l43-1 12-6 16-4h26l18 4 13 5 2 1 256 1v15l-1 8 6 2 9 7 9 11 7 14 4 15 2 19-1 22-1 11h9v13l-1 23h-1l-1-33-7-1-2 16-6 23-2 4h8v1l-8 1-9 19-8 11-9 11-7 6-2 33h18l9 4 7 6 5 10 2 8v15l-4 17-7 14-7 9-8 8-14 7-8 2-9 1h-16l-9-1v79h37v1l-37 1h-43l-1 17h-13l-1 16-10 88-1 5 12 1 36 7 28 7 21 7 16 8 7 6 2 3v8l-6 7-14 8-22 8-36 9-43 8-50 7-59 7-78 7-53 4-108 6-77 3-67 2-50 1-94 1h-72l-95-1-85-2-87-3-96-5-61-4-83-7-47-5-62-8-43-7-37-8-25-7-16-6-11-6-7-6-2-3v-8l6-7 10-6 14-6 23-7 30-7 38-7 50-7 5-1 15-112 1-5h-173l-32 173-1 3h-10l1-15 43-319 5-41 1-2h-34v-12l3-48-38 1-1-20v-29h42l1-24 10-171 1-6 2-1-4-8v-11l6-14 10-15 8-10 11-13 15-16 8-8 8-7 10-9 14-11 15-12 17-12 4-3-1-11-1-19 2-15 4-13 7-16 1-3-9 14-4 11-2 13-1 22h-1l-1-10v-12l2-15 4-12 7-11 12-16 6-12 3-16 2-12 4-11 7-10 8-7 8-4 3-1-15-1-12-4-8-6-6-8-1-3v-11l6-12 8-6 7-3 1-157h203v202l-105 1 8 7 6 8 5 12 3 13 4 30 3 7 21 28 8 16 4 12 2 12v18h-1l-4-26-5-15-8-15-9-12-10-14 7 11 12 21 7 21 4 24v11h-8l-10-20 3 21h-15l-8-33-3-10v26l-2 16-1 2-17 2 9 10 11 12 7 8 17 17v2l4 2 29 29 2 1v2l4 2 10 9 3 2 5-1 13-14 3-4 1-763 2-17 6-16 8-11 8-9 14-9 13-5 9-2h693l16 4 14 7 10 8 10 12 6 12 3 9 2 17v70l19-13 6-4-1-18-4-38v-8h31zm-1093 761 1 2zm-1 2-2 7 1 9 4 6 8 7 12 5 4-1-14-7-8-9-3-9-1-8zm47 29m-1 1m-19 4m12 2m-47 86m-1 1 1 2zm17 50-3 6-1 9 7-4-2-11zm131 208 2 27-9 1 5 6 14-2 12-2-2-4-3-1-2-4-9-11-7-10zm-336 178v41h36l2-34v-7zm350 41-26 1 3 12h57v-6l-3-3-8-3-8-1zm-255 63-6 34-30 162v3h173l1-1 22-162 4-36zm193 0-11 61-25 135v3h55l12-34 19-56 21-63 13-42v-4zm1121 94 1 9 2 7 11 15 12 19 2 2-1-7-14-43-1-2zm19 0 2 9 14 46 2 5h1l7-36 5-22v-2zm39 0-6 21-10 47-1 6h2l11-18 10-13 12-14 13-12 7-6 5-11zm-227 2v102l44 1h79v-15h79l1-7-12-25-12-20-11-16-18-1h-49l-46 2h-18l-10-2-14-7-7-7h-2l-2-4zm268 13-10 9-8 7-12 13-12 16-12 20-1 5 2 5h74v15h24l-1-14-10-69-6-2-24-5zm-71 37 1 2zm-1186 55-21 114v2l13-1 37-4 3-8 4-12v-2l-3-1h-9l20-56 11-31v-1zm989 0-1 47-2 15-4 12-6 11-8 10-2 1v2l87 6 70 6h10v-10l-6-67-2-16h-13v-17z" fill="#FDFDFD"/>
<path transform="translate(1458)" d="m0 0h4v269h31l-6 60-1 4 4 2 12 8 23 16 16 11 23 16 18 12-9 21-1 1h-165v234h368l10 4 8 9 4 9 1 110v213l-4 10-6 8-8 5-6 2-7 1h-360v170l43-1 12-6 16-4h26l18 4 13 5 2 1 256 1v15l-1 8 6 2 9 7 9 11 7 14 4 15 2 19-1 22-1 11h9v13l-1 23h-1l-1-33-7-1-2 16-6 23-2 4h8v1l-8 1-9 19-8 11-9 11-7 6-2 33h18l9 4 7 6 5 10 2 8v15l-4 17-7 14-7 9-8 8-14 7-8 2-9 1h-16l-9-1v79h37v1l-37 1h-43l-1 17h-13l-1 16-12 104-4 36-1 1h-107l-1-1-6-67-2-17-5-56-1-16h-13v-17h-123v47l-2 15-4 12-6 11-8 10-13 10-12 6-16 4h-503v-1l70-15 32-8 4-2v-9l-4-9v-2l365-1 15-4 11-6 11-10 7-10 6-13 3-14v-1320l-3-21-5-15-7-11-9-8-12-5-10-2h-140l-5 5-3 8-1 15-3 9-6 5-7 2h-304l-9-3-4-4-3-8-1-16-4-10-4-3h-144l-16 4-11 8-7 11-5 15-3 21v560l6-16 4-5 2-1h12l54 8 5 2 1 4-7 16-3 8 8-4 7 1 3 6-1 10-6 18-1 5v20l3 21 1 21-3 21-7 24-8 21-5 10v3l5 3-2 5-9 12-14 18-9 11-11 13-11 12-14 14-1 13 14 2 18 5 16 8 10 9 5 5 10 12 6 8 6 11 12 24 10 24 5 15 4 10 4 14 7 24 9 34 8 37 5 24 5 25 8 50 9 64 4 32v9l-9 3-132 28-3 4-17 42v7l4 11 2 13 4 15v4h-6l-2-6-2-11-8 7-2 1-1 5-6-1-11 4 6 3-3 2-21 2-22 4-8 1 5-5 4-2-22-5-12-5-9-8-3-3-95-10 1-5 19-54 10-28-53-1v-2h55l3-11 19-55 29-87 16-52 7-28 2-10v-14l-10-3-8-1h-15l-59 2h-52l-27-2-24-5-21-7-15-8-10-8-8-9-10-17-6-18-3-16-1-9v-27l3-27 5-24 1-3h-9l1-8 2-8-18-12-16-12-11-9-10-9-9-10-5-10v-11l6-14 10-15 8-10 11-13 15-16 8-8 8-7 10-9 14-11 15-12 17-12 4-3-1-11-1-19 2-15 4-13 7-16 1-3-9 14-4 11-2 13-1 22h-1l-1-10v-12l2-15 4-12 7-11 12-16 6-12 3-16 2-12 4-11 7-10 8-7 8-4 3-1-15-1-12-4-8-6-6-8-1-3v-11l6-12 8-6 7-3 1-157h203v202l-105 1 8 7 6 8 5 12 3 13 4 30 3 7 21 28 8 16 4 12 2 12v18h-1l-4-26-5-15-8-15-9-12-10-14 7 11 12 21 7 21 4 24v11h-8l-10-20 3 21h-15l-8-33-3-10v26l-2 16-1 2-17 2 9 10 11 12 7 8 17 17v2l4 2 29 29 2 1v2l4 2 10 9 3 2 5-1 13-14 3-4 1-763 2-17 6-16 8-11 8-9 14-9 13-5 9-2h693l16 4 14 7 10 8 10 12 6 12 3 9 2 17v70l19-13 6-4-1-18-4-38v-8h31zm-1093 761 1 2zm-1 2-2 7 1 9 4 6 8 7 12 5 4-1-14-7-8-9-3-9-1-8zm47 29m-1 1m-19 4m12 2m-47 86m-1 1 1 2zm17 50-3 6-1 9 7-4-2-11zm131 208 2 27-9 1 5 6 14-2 12-2-2-4-3-1-2-4-9-11-7-10zm1073 376 1 9 2 7 11 15 12 19 2 2-1-7-14-43-1-2zm19 0 2 9 14 46 2 5h1l7-36 5-22v-2zm39 0-6 21-10 47-1 6h2l11-18 10-13 12-14 13-12 7-6 5-11zm-227 2v102l44 1h79v-15h79l1-7-12-25-12-20-11-16-18-1h-49l-46 2h-18l-10-2-14-7-7-7h-2l-2-4zm268 13-10 9-8 7-12 13-12 16-12 20-1 5 2 5h74v15h24l-1-14-10-69-6-2-24-5zm-71 37 1 2z" fill="#F5952B"/>
<path transform="translate(1458)" d="m0 0h4v269h31l-6 60-1 4 4 2 12 8 23 16 16 11 23 16 18 12-9 21-1 1h-165v234h368l10 4 8 9 4 9 1 110v213l-4 10-6 8-8 5-6 2-7 1h-360v170l43-1 12-6 16-4h26l18 4 13 5 2 1 256 1v15l-1 8 6 2 9 7 9 11 7 14 4 15 2 19-1 22-1 11h9v13l-1 23h-1l-1-33-7-1-2 16-6 23-2 4h8v1l-8 1-9 19-8 11-9 11-7 6-2 33h18l9 4 7 6 5 10 2 8v15l-4 17-7 14-7 9-8 8-14 7-8 2-9 1h-16l-9-1v79h-20l-12-83-29-6-3-2 10-7 2-1h20l37 5h18l-28-3-30-5-10-1 5-4 15-9 10-5 11 1 17 2h17l20-3 3-1-26 2h-11l-21-2-3-2 14-7 37-15-14 4-10 4h-3l2-5 13-14 2-2-9 7-7 8-6 9-29 12-19 9 2-5 10-11 7-8 10-9-9 6-7 7-6 5-9 11-6 9-14 9-9 6 2-6 2-4-42-1 4-18 14-45 14-38 13-31 8-3 40-14 21-8 21-10 10-7-23 10-36 13-22 7-15 6 3-9 17-36 10-19 10-18 21-8 16-8 10-7 5-5-15 9-23 11-11 4 2-6 8-14 1-4h-3l-2 5-14 21-14 24-11 20-2-3-2-17-1-25v-14l-1 9v39l2 19-16 34-12 29-2-4-8-28-5-25-1-10v-26l-1 10v32l2 17 5 23 6 18-1 7-11 30-12 38-6 23-1 2-32 1-16-50-15-43-15-39-6-15v-11l3-25 6-26 7-24v-2l-11 27-7 23-2 11-1 12-3-4-11-25-14-30-5-11-1-22 2-37-3 21-1 31-3-4-15-29-10-17v-2l-2 1 20 41 9 19 13 29-1 2-13-11-20-12-21-10-7-2 20 10 20 13 12 9 15 13 10 23 17 43-1 2-7-7-15-11-13-8-16-8-18-8-25-8v2l9 2 22 9 18 10 22 15 14 11 14 12 3 5 11 30 19 54 6 20h-12l2 9v5l-5-5-7-8-17-17-12-9-7-16-8-11-8-8-14-9-4-1 15 11 8 7 10 16 2 6-11-6-23-11-24-9-21-7-12-13-9-7-7-3 17 13 6 7-8-1-29-8h-2l44 16 28 10 1 2-2 1-26 3-28 1 1 1h30l30-4 7 1 17 8 16 10 16 12 5 4-1 3-5-1h-35l-28 2h-20l-15-2-9-2 12 5 19 3 27-1 26-2h11l17 1 9 2 9 10 10 13v1h-66l-46 2h-18l-10-2-14-7-12-12-1 101h-1l-1-105-7-10-10-21-5-15-3-13v-19l4-11 5-6 9-4 7-1 1-495v-644h1v70l19-13 6-4-1-18-4-38v-8h31z" fill="#E4E4E4"/>
<path transform="translate(217,1117)" d="m0 0 4 1 11 12 10 9 17 13 17 12 9 6-4 16h9l-2 12-4 22-2 20v27l3 21 5 17 8 16 9 12 9 8 16 9 19 7 22 5 16 2 17 1h52l33-1 2 5 1 7h57l-1 11-6 26-4 14-85-1-1 11-9 50-36 194-11 60-1 2 31-4 9-1h10l1-7 3-7 3-8 18 1 65 7 5 5 7 6 15 6 21 4-4 3-6 4 36-6 14-1 2-1-8-2 3-2 11-4 5 1 2-5 9-7 2-2 3 18 6 1-6-23-1-9-4-11v-7l3-7 100-22 5-1-12-5-6-7-1-2v-7l4-7 10-4 12 1 16 6 12 7 7 6 3 1 1-9 5-13 4-8 8-11 7-6 6-2h6l6 4 3 4 1 8-4 10-9 10-12 9h7l-1 3-12 4h9l12-2h6v2l-8 3h-3v2l19-2h6v2l-7 3 55 13 21 6 8 5 7 7 7 14v9l-5 3-32 8-65 14h498l16-4 12-6 9-7 75 5 83 7 10 1 1-4 6 67h107l5-45 1-2 12 1 36 7 28 7 21 7 16 8 7 6 2 3v8l-6 7-14 8-22 8-36 9-43 8-50 7-59 7-78 7-53 4-108 6-77 3-67 2-50 1-94 1h-72l-95-1-85-2-87-3-96-5-61-4-83-7-47-5-62-8-43-7-37-8-25-7-16-6-11-6-7-6-2-3v-8l6-7 10-6 14-6 23-7 30-7 38-7 50-7 5-1 15-112 1-5h-173l-32 173-1 3h-10l1-15 43-319 5-41 1-2h-34v-12l3-48-38 1-1-20v-29h42l1-24 10-171zm-50 205v41h36l2-34v-7zm95 104-6 34-30 162v3h173l1-1 22-162 4-36z" fill="#E4E4E4"/>
<path transform="translate(653,211)" d="m0 0h693l16 4 14 7 10 8 10 12 6 12 3 9 1 6 1 697-1 453-1 1-10 2-8 5-5 10-1 4v19l6 23 8 18 7 13 4 5v105h45l79 1v-15h79v-7l-12-25-12-20-11-16-9-11-10-12-9-2-17-1h-11l-43 3h-10l-19-3-12-5-2-2 8 1 8 2 10 1h20l28-2h35l5 1 1-2-4-2-11-9-15-10-16-8-11-5-18 2-16 2h-30l-8-2v-1h17l18-1 26-3 1-1-28-10-44-16-1-2 10 2 25 7h4l-7-7-18-13 2-1 11 6 10 9 8 9 35 12 23 10 17 9 3 1-6-11-8-11-10-8-11-8 1-2 14 8 12 11 7 9 8 16v3l4 2 11 9 21 21 8 10 12 17 10 16-3-11-18-55-10-30-16-45-6-16-12-11-17-13-24-16-18-10-26-10-3-1v-2l12 3 18 6 22 10 14 8 14 10 10 8 4 3-18-45-9-21-10-9-13-10-15-10-16-9-15-8 2-1 19 8 19 10 12 8 12 10-9-21-13-28-13-26-7-16h3l14 25 13 25 1-29 3-21 2-1-2 42 1 18 17 36 14 32 3-21 7-23 11-27 2-1-2 10-7 25-4 18-3 25v11l16 41 11 30 16 47 10 31 14 45 3 11 8-40 11-44 15-47 9-24-1-7-6-19-5-25-1-11v-32l2-13 1 4v25l3 21 6 25 6 19 13-31 14-30-2-19v-39l2-14h1v24l1 20 2 17h2l11-21 12-20 17-26h3l-1 6-9 16h2l21-9 19-10 6-4 2 1-9 8-17 10-20 8-8 3-18 35-8 16-12 25-1 4 19-8 29-9 31-12 15-7 2 1-11 8-23 11-53 19-13 4-16 39-13 36-13 43-11 44-9 43 1-1 12-19 13-16 11-12 10-9 13-10 15-10h2l2-4 7-10 10-11 8-7 9-7 2 1-16 15-7 8-6 9 22-11 25-10 8-12 8-8 7-5 2 1-12 11-8 11 22-8 7-1-2 2-37 15-13 6 10 2 13 1h11l22-2h8l-4 2-14 3-9 1h-17l-17-2-11-1-19 10-9 6 28 4 17 3 23 2-2 2h-18l-37-5h-20l-6 4-12 9-16 15-12 14-12 17-9 16 1 8h74v15h81v1l-37 1h-43l-1 17h-13l-1 16-12 104-4 36-1 1h-107l-1-1-6-67-2-17-5-56-1-16h-13v-17h-123v47l-2 15-4 12-6 11-8 10-13 10-12 6-16 4h-503v-1l70-15 32-8 4-2v-9l-4-9v-2l365-1 15-4 11-6 11-10 7-10 6-13 3-14v-1320l-3-21-5-15-7-11-9-8-12-5-10-2h-140l-5 5-3 8-1 15-3 9-6 5-7 2h-304l-9-3-4-4-3-8-1-16-4-10-4-3h-144l-16 4-11 8-7 11-5 15-3 21v560l6-16 4-5 2-1h12l54 8 5 2 1 4-7 16-4 10-8 8-5 8-7-6-12-10-10-7-14-7-4-1h-8l-4 2v6l5 8 9 10 8 7 10 9 1 3-9-3-20-7-16-3-11 1-6 4-1 2v7l4 6 4 4-13 2-5 3-2 5 1 6 5 6 2 2-10 5v-694l3-12 4-10 8-11 8-9 14-9 13-5zm951 1361 1 2z" fill="#263238"/>
<path transform="translate(634,1158)" d="m0 0h2v11l14 2 18 5 16 8 10 9 5 5 10 12 6 8 6 11 12 24 10 24 5 15 4 10 4 14 7 24 9 34 8 37 5 24 5 25 8 50 9 64 4 32v9l-9 3-132 28-3 4-17 42v7l4 11 2 13 4 15v4h-6l-2-6-2-11-8 7-2 1-1 5-6-1-11 4 6 3-3 2-21 2-22 4-8 1 5-5 4-2-22-5-12-5-9-8-3-3-95-10 1-5 19-54 10-28-53-1v-2h55l3-11 19-55 29-87 16-52 7-28 2-10v-14l-10-3-8-1h-15l-59 2h-52l-27-2-24-5-21-7-15-8-10-8-8-9-10-17-6-18-3-16-1-9v-27l3-27 5-24 2-4h18l3 2 4-1 3-2 5 1 10 9 14 9 19 8 6 2 4 33 4 17 6 12 5 3 7-1 2-5 3-14h1l4 22 5 10 2 1h7l4-5 4-10h1l3 15 4 8 3 2h6l5-5 3-8 1-9v-36l-1-15v-13h1l2 13 1 12v39l4 13 3 4h6l5-5 4-9 3-16v-37l-3-19-7-21-7-15 13-1h16l4 4 14-2 6-1h8l12 6 14 3 7 1h10l20-2 16-4 11-7 11-9z" fill="#37474F"/>
<path transform="translate(679,255)" d="m0 0h144l5 4 4 10 1 16 3 10 5 2 7 2h304l9-3 4-5 2-7 1-15 3-8 4-5 2-1h140l16 4 10 6 7 7 7 12 4 13 3 21v161h-728v-164l3-21 5-15 7-11 9-7 9-4z" fill="#F5962B"/>
<path transform="translate(1478,1184)" d="m0 0h26l18 4 13 5 2 1 256 1v15l-1 8 6 2 9 7 9 11 7 14 4 15 2 19-1 22-1 11h9v13l-1 23h-1l-1-33-7-1-2 16-6 23-2 4h8v1l-8 1-9 19-8 11-9 11-7 6-2 33h18l9 4 7 6 5 10 2 8v15l-4 17-7 14-7 9-8 8-14 7-8 2-9 1h-16l-9-1v79h-20l-12-83-29-6-3-2 10-7 2-1h20l37 5h18l-28-3-30-5-10-1 5-4 15-9 10-5 11 1 17 2h17l20-3 3-1-26 2h-11l-21-2-3-2 14-7 37-15-14 4-10 4h-3l2-5 13-14 2-2-9 7-7 8-6 9-29 12-19 9 2-5 10-11 7-8 10-9-9 6-7 7-6 5-9 11-6 9-14 9-9 6 2-6 2-4-42-1 4-18 14-45 14-38 13-31 8-3 40-14 21-8 21-10 10-7-23 10-36 13-22 7-15 6 3-9 17-36 10-19 10-18 21-8 16-8 10-7 5-5-15 9-23 11-11 4 2-6 8-14 1-4h-3l-2 5-14 21-14 24-11 20-2-3-2-17-1-25v-14l-1 9v39l2 19-16 34-12 29-2-4-8-28-5-25-1-10v-26l-1 10v32l2 17 5 23 6 18-1 7-11 30-12 38-6 23-1 2-32 1-16-50-15-43-15-39-6-15v-11l3-25 6-26 7-24v-2l-11 27-7 23-2 11-1 12-3-4-11-25-14-30-5-11-1-22 2-37-3 21-1 31-3-4-15-29-10-17v-2l-2 1 20 41 9 19 13 29-1 2-13-11-20-12-21-10-7-2 20 10 20 13 12 9 15 13 10 23 17 43-1 2-7-7-15-11-13-8-16-8-18-8-25-8v2l9 2 22 9 18 10 22 15 14 11 14 12 3 5 11 30-2 1-19-9-20-7-32-13-16-8-14-9-11-9-7-8-6-8-8-14-7-19-4-17-3-19-1-16v-15l1-16 4-19 4-12 8-15 8-10 9-8 11-6 10-4z" fill="#F5952B"/>
<path transform="translate(593,280)" d="m0 0h1l1 682 4-3 3-2-6-7-1-6 3-6 5-3 12-2-6-5-2-4v-7l4-5 9-3 14 1 15 4 21 8-7-8-8-7-9-8-7-9-2-4v-6l5-3h8l13 5 11 7 10 8 12 11 8-10 6-7 9-4 7 1 3 6-1 10-6 18-1 5v20l3 21 1 21-3 21-7 24-8 21-5 10v3l5 3-2 5-9 12-14 18-9 11-11 13-11 12-19 19-9 8-10 7-8 4-13 3-20 2h-10l-16-3-10-3-9-5-7-8-8-9-8-12 2 26-1 1-36 3 9 19 6 20 2 15v37l-3 16-4 9-4 5-2 1h-6l-4-5-4-13v-39l-2-19 1 22v36l-2 13-5 8-3 2h-6l-5-5-4-9-2-10-4 10-4 4h-7l-5-5-4-11-2-12-4 10-4 4-5 1-6-4-6-12-4-17-3-26v-7l-9-2-18-8-13-9-10-9-6 1-2 2-4-1-2-1h-28l1-8 2-8-18-12-16-12-11-9-10-9-9-10-5-10v-11l6-14 10-15 8-10 11-13 15-16 8-8 8-7 6-5 9 3 18 8 24 9 18 6 8-11 6-9v3l5-4h3l-14 14-14 24-13 23 10 5 18 8 14 7h51l32-2 45-5 3-10 2-9 1-13-2-11-4-12-8-17-7-12 2-1 5 9-1-7 3 4 4 10 1 6 12-8h2l1-2 31 31 2 1v2l4 2 10 9 3 2 5-1 13-14 3-4z" fill="#F5952B"/>
<path transform="translate(634,1158)" d="m0 0h2v11l14 2 18 5 16 8 10 9 5 5 10 12 6 8 6 11 12 24 10 24 5 15 4 10 4 14 7 24 9 34 8 37 5 24 5 25 8 50 9 64 4 32v9l-9 3-132 28h-3l16-49 17-59 11-41 13-55 9-47 5-35 2-23v-33l-3-19-4-11-6-8-6-5-11-4-6-1h-24l-20 4-18 14-20 15-18 14-47 36-11 8 21 2 7 2 1 1-1 11-7 31-17 58-17 55-23 70-12 36-12 35-5 13h-2l2-9 16-49 15-47 21-66 19-62 14-49 5-21v-4l-8-1h-24l-12 9-1 1-9 1-59 2h-52l-27-2-24-5-21-7-15-8-10-8-8-9-10-17-6-18-3-16-1-9v-27l3-27 5-24 2-4h18l3 2 4-1 3-2 5 1 10 9 14 9 19 8 6 2 4 33 4 17 6 12 5 3 7-1 2-5 3-14h1l4 22 5 10 2 1h7l4-5 4-10h1l3 15 4 8 3 2h6l5-5 3-8 1-9v-36l-1-15v-13h1l2 13 1 12v39l4 13 3 4h6l5-5 4-9 3-16v-37l-3-19-7-21-7-15 13-1h16l4 4 14-2 6-1h8l12 6 14 3 7 1h10l20-2 16-4 11-7 11-9z" fill="#37474F"/>
<path transform="translate(230,285)" d="m0 0h226v226h-226z" fill="#E5E5E5"/>
<path transform="translate(217,1117)" d="m0 0 4 1 11 12 10 9 17 13 17 12 9 6-4 16h9l-2 12-4 22-2 20v27l3 21 5 17 8 16 9 12 9 8 16 9 19 7 22 5 16 2 17 1h52l33-1 2 5 1 7h57l-1 11-6 26-4 14-85-1-1 11-3 18-1 1h-28l2-20 1-9-163-1-1 12-8 44-26 140-1 3h173v2h-173l-32 173-1 3h-10l1-15 43-319 5-41 1-2h-34v-12l3-48-38 1-1-20v-29h42l1-24 10-171zm-50 205v41h36l2-34v-7z" fill="#E4E4E4"/>
<path transform="translate(593,280)" d="m0 0h1l1 682 4-3 3-2-6-7-1-6 3-6 5-3 12-2-6-5-2-4v-7l4-5 9-3 14 1 15 4 21 8-7-8-8-7-9-8-7-9-2-4v-6l5-3h8l13 5 11 7 10 8 12 11 8-10 6-7 9-4 7 1 3 6-1 10-6 18-1 5v20l3 21 1 21-3 21-7 24-8 21-5 10v3l5 3-2 5-9 12-14 18-9 11-11 13-11 12-19 19-9 8-10 7-8 4-13 3-20 2h-10l-16-3-10-3-9-5-7-8-8-9-10-15-2-10-3-26 9-17 5-15 2-18-2-11-4-12-8-17-7-12 2-1 5 9-1-7 3 4 4 10 1 6 12-8h2l1-2 31 31 2 1v2l4 2 10 9 3 2 5-1 13-14 3-4z" fill="#F5952B"/>
<path transform="translate(381,590)" d="m0 0h203v202h-108l-17-8-5-1h-18l-13 4-11 6-1-3 1-5v-11l-3-10-6-9-9-6-13-2z" fill="#E4E4E4"/>
<path transform="translate(1505,1229)" d="m0 0h1l-2 42 1 18 17 36 14 32 3-21 7-23 11-27 2-1-2 10-7 25-4 18-3 25v11l16 41 11 30 16 47 10 31 14 45 3 11 8-40 11-44 15-47 9-24-1-7-6-19-5-25-1-11v-32l2-13 1 4v25l3 21 6 25 6 19 13-31 14-30-2-19v-39l2-14h1v24l1 20 2 17h2l11-21 12-20 17-26h3l-1 6-9 16h2l21-9 19-10 6-4 2 1-9 8-17 10-20 8-8 3-18 35-8 16-12 25-1 4 19-8 29-9 31-12 15-7 2 1-11 8-23 11-53 19-13 4-16 39-13 36-13 43-11 44-9 43 1-1 12-19 13-16 11-12 10-9 13-10 15-10h2l2-4 7-10 10-11 8-7 9-7 2 1-16 15-7 8-6 9 22-11 25-10 8-12 8-8 7-5 2 1-12 11-8 11 22-8 7-1-2 2-37 15-13 6 10 2 13 1h11l22-2h8l-4 2-14 3-9 1h-17l-17-2-11-1-19 10-9 6 28 4 17 3 23 2-2 2h-18l-37-5h-20l-6 4-12 9-16 15-12 14-12 17-9 16 1 8h74v15h81v1l-37 1h-43l-1 17h-13l-1 16-12 104-4 36-1 1h-107l-1-1-6-67-2-17-5-56-1-16h-13v-34h79v-7l-12-25-12-20-11-16-9-11-10-12-9-2-17-1h-11l-43 3h-10l-19-3-12-5-2-2 8 1 8 2 10 1h20l28-2h35l5 1 1-2-4-2-11-9-15-10-16-8-11-5-18 2-16 2h-30l-8-2v-1h17l18-1 26-3 1-1-28-10-44-16-1-2 10 2 25 7h4l-7-7-18-13 2-1 11 6 10 9 8 9 35 12 23 10 17 9 3 1-6-11-8-11-10-8-11-8 1-2 14 8 12 11 7 9 8 16v3l4 2 11 9 21 21 8 10 12 17 10 16-3-11-18-55-10-30-16-45-6-16-12-11-17-13-24-16-18-10-26-10-3-1v-2l12 3 18 6 22 10 14 8 14 10 10 8 4 3-18-45-9-21-10-9-13-10-15-10-16-9-15-8 2-1 19 8 19 10 12 8 12 10-9-21-13-28-13-26-7-16h3l14 25 13 25 1-29 3-21zm99 343 1 2z" fill="#455A64"/>
<path transform="translate(1478,1184)" d="m0 0h26l18 4 13 5 13 8 13 11 11 14 9 15 8 18 6 20 4 21 1 12v26l-2 18-5 23-6 18-10 24-4 13-2 14-2-3-15-41-12-30v-11l3-25 6-26 7-24v-2l-11 27-7 23-2 11-1 12-3-4-11-25-14-30-5-11-1-22 2-37-3 21-1 31-3-4-15-29-10-17v-2l-2 1 20 41 9 19 13 29-1 2-13-11-20-12-21-10-7-2 20 10 20 13 12 9 15 13 10 23 17 43-1 2-7-7-15-11-13-8-16-8-18-8-25-8v2l9 2 22 9 18 10 22 15 14 11 14 12 3 5 11 30-2 1-19-9-20-7-32-13-16-8-14-9-11-9-7-8-6-8-8-14-7-19-4-17-3-19-1-16v-15l1-16 4-19 4-12 8-15 8-10 9-8 11-6 10-4z" fill="#F5952A"/>
<path transform="translate(833,1602)" d="m0 0h6l6 4 3 4 1 8-4 10-9 10-12 9h7l-1 3-12 4h9l12-2h6v2l-8 3h-3v2l19-2h6v2l-7 3 55 13 21 6 8 5 7 7 7 14v9l-5 3-32 8-70 15-85 17-63 11-15 2h-8l-3-3-5-13-10-37-1-9-4-11v-7l3-7 100-22 5-1-12-5-6-7-1-2v-7l4-7 10-4 12 1 16 6 12 7 7 6 3 1 1-9 5-13 4-8 8-11 7-6z" fill="#F5952A"/>
<path transform="translate(735,1086)" d="m0 0h530v47h-530z" fill="#E5E5E5"/>
<path transform="translate(735,852)" d="m0 0h530v47h-530z" fill="#E4E4E4"/>
<path transform="translate(735,739)" d="m0 0h530v47h-530z" fill="#E4E4E4"/>
<path transform="translate(454,1716)" d="m0 0 18 1 65 7 5 5 7 6 15 6 21 4-4 3-6 4 36-6 5 2 23 3v3l-10 1 4 2 16 2 3 1v2l-6 1 4 3 24 13 23 13 14 8 6 5 6 10 3 8 1 13-3 5-1 1h-29l-79-4-62-4-65-5-36-4-9-2-3-3v-24l3-41 3-15 2-9 3-7z" fill="#F5952A"/>
<path transform="translate(1719)" d="m0 0h4v223h27l27 1v24l-1 15h-1l-1-35-51-1v42h31v1l-5 1h-26v67h31l-1 16-5 49 5 2 14 10 16 11 23 16 16 11 20 14 1 2-9 20-1 1h-224l-7-15-3-7 11-8 16-11 23-16 16-11 23-16 6-4-6-59v-5h31v-67l-22 1h-29v-49h51zm-47 227-1 23v18l25 1h23v-42z" fill="#E5E5E5"/>
<path transform="translate(1008,1195)" d="m0 0h257v78h-257z" fill="#E5E5E5"/>
<path transform="translate(735,1195)" d="m0 0h257v78h-250l-1 2-7-17z" fill="#E4E4E4"/>
<path transform="translate(1538,1195)" d="m0 0h255v15l-1 7-12-3-7-1h-13l-18 2-20 5-15 5-18 8-15 9-12 9-14 12-10 11-12 17-8 16-6 15-2 14v15l2 17 6 25 8 24 12 28 6 11-1 7-11 36-6 21-32 1-16-50-7-20v-10l3-14 5-13 11-28 4-15 4-21 1-12v-26l-2-18-5-22-6-18-8-17-10-15-11-13-12-9-7-4z" fill="#E4E4E4"/>
<path transform="translate(1071,517)" d="m0 0 11 1 9 4 8 7 5 8 2 8v9l-4 11-6 8-10 6-7 2-1 55-4 5-3 1h-142l-5-3-2-2v-95l4-4 2-1h117l2-5 7-8 6-4z" fill="#495D66"/>
<path transform="translate(593,280)" d="m0 0h1l1 682 4-3 3-2-6-7-1-6 3-6 5-3 12-2-6-5-2-4v-7l4-5 9-3 14 1 15 4 21 8-7-8-8-7-9-8-7-9-2-4v-6l5-3h8l13 5 11 7 10 8 12 11 8-10 6-7 9-4 7 1 3 6-1 10-6 18-1 5v20l3 21 1 21-3 21-7 24-8 21-6 13-44-22-40-21v-3l7-7-3-12-1-16-11-5-12-5-2-2-1 67h-1z" fill="#F2A89F"/>
<path transform="translate(1781,1414)" d="m0 0h1v13l-1 19h18l9 4 7 6 5 10 2 8v15l-4 17-7 14-7 9-8 8-14 7-8 2-9 1h-16l-9-1v79h-20l-12-83-29-6-3-2 10-7 2-1h20l37 5h18l-28-3-30-5-10-1 5-4 15-9 10-5 11 1 17 2h17l20-3 3-1-26 2h-11l-21-2-3-2 14-7 37-15-14 4-10 4h-3l2-5 13-14 2-2-9 7-7 8-6 9-29 12-19 9 2-5 10-11 7-8 10-9-9 6-7 7-6 5-9 11-6 9-14 9-9 6 2-6 2-4-42-1 4-18 13-42 53-15 23-7 17-5 19-8 14-8z" fill="#F4952B"/>
<path transform="translate(405,1119)" d="m0 0 6 2 19 12 14 11 5 5 10 11 11 17 8 17 6 20 2 15v37l-3 16-4 9-4 5-2 1h-6l-4-5-4-13v-39l-2-19 1 22v36l-2 13-5 8-3 2h-6l-5-5-4-9-2-10-4 10-4 4h-7l-5-5-4-11-2-12-4 10-4 4-5 1-6-4-6-12-4-17-3-26v-7l-9-2-18-8-13-9-10-9-1-3 18-14 19-14 18-14 16-12z" fill="#F4A89E"/>
<path transform="translate(1458)" d="m0 0h4v269h31l-6 60-1 4 4 2 12 8 23 16 16 11 23 16 18 12-9 21-1 1h-165v504h-1v-644h1v70l19-13 6-4-1-18-4-38v-8h31z" fill="#E2E2E2"/>
<path transform="translate(1405,1419)" d="m0 0h28l24 3 40 9 15 5 16 9 14 12 9 10 10 15 8 16 6 18 3 13v5l-5-5-7-8-17-17-12-9-7-16-8-11-8-8-14-9-4-1 15 11 8 7 10 16 2 6-11-6-23-11-24-9-21-7-12-13-9-7-7-3 17 13 6 7-8-1-29-8h-2l44 16 28 10 1 2-2 1-26 3-28 1 1 1h30l30-4 7 1 17 8 16 10 16 12 5 4-1 3-5-1h-35l-28 2h-20l-15-2-9-2 12 5 19 3 27-1 26-2h11l17 1 9 2 9 10 10 13v1h-66l-46 2h-18l-10-2-14-7-12-12-1 101h-1l-1-105-7-10-10-21-5-15-3-13v-19l4-11 5-6 9-4z" fill="#F4952B"/>
<path transform="translate(882,1502)" d="m0 0h231v64h-231z" fill="#F5962B"/>
<path transform="translate(380,747)" d="m0 0h11l10 5 7 8 4 9 1 5v11l-2 8 12-7 13-4h18l9 3 16 8 8 7 6 8 5 12 3 13v6l-10-6-10-9-6-8-5-9-5 16-7 10-8 7-14 7-7 1 3-2 14-7 10-9h-1l-8 7-14 7-16 5-3 12-4 8-4-2-5-5-6-5h-8l-2 5 1 10 4 10 5 7 10 5 6 12-2 25-2 4-19 5-11 6h-2l-3-9-5 15-23 14h-2l-2-10-1-19 2-15 4-13 7-16 1-3-9 14-4 11-2 13-1 22h-1l-1-10v-12l2-15 4-12 7-11 12-16 6-12 3-16 2-12 4-11 7-10 8-7 8-4 3-1-15-1-12-4-8-6-6-8-1-3v-11l6-12 8-6zm-15 14 1 2zm-1 2-2 7 1 9 4 6 8 7 12 5 4-1-14-7-8-9-3-9-1-8zm46 30m-19 4m12 2m-47 86m-1 1 1 2z" fill="#273339"/>
<path transform="translate(1505,1229)" d="m0 0h1l-2 42 1 18 17 36 14 32 3-21 7-23 11-27 2-1-2 10-7 25-4 18-3 25v11l16 41 11 30 16 47 10 31 14 45 3 11 8-40 11-44 15-47 9-24-1-7-6-19-5-25-1-11v-32l2-13 1 4v25l3 21 6 25 6 19 13-31 14-30-2-19v-39l2-14h1v24l1 20 2 17h2l11-21 12-20 17-26h3l-1 6-9 16h2l21-9 19-10 6-4 2 1-9 8-17 10-20 8-8 3-18 35-8 16-12 25-1 4 19-8 29-9 31-12 15-7 2 1-11 8-23 11-53 19-13 4-16 39-13 36-13 43-11 44-9 43 1-1 12-19 13-16 11-12 10-9 13-10 15-10h2l2-4 7-10 10-11 8-7 9-7 2 1-16 15-7 8-6 9 22-11 25-10 8-12 8-8 7-5 2 1-12 11-8 11 22-8 7-1-2 2-37 15-13 6 10 2 13 1h11l22-2h8l-4 2-14 3-9 1h-17l-17-2-11-1-19 10-9 6 28 4 17 3 23 2-2 2h-18l-37-5h-20l-6 4-12 9-16 15-12 14-12 17-9 16v8l-1 1h-10l-2-10-11-23-12-20-11-16-9-11-10-12-9-2-17-1h-11l-43 3h-10l-19-3-12-5-2-2 8 1 8 2 10 1h20l28-2h35l5 1 1-2-4-2-11-9-15-10-16-8-11-5-18 2-16 2h-30l-8-2v-1h17l18-1 26-3 1-1-28-10-44-16-1-2 10 2 25 7h4l-7-7-18-13 2-1 11 6 10 9 8 9 35 12 23 10 17 9 3 1-6-11-8-11-10-8-11-8 1-2 14 8 12 11 7 9 8 16v3l4 2 11 9 21 21 8 10 12 17 10 16-3-11-18-55-10-30-16-45-6-16-12-11-17-13-24-16-18-10-26-10-3-1v-2l12 3 18 6 22 10 14 8 14 10 10 8 4 3-18-45-9-21-10-9-13-10-15-10-16-9-15-8 2-1 19 8 19 10 12 8 12 10-9-21-13-28-13-26-7-16h3l14 25 13 25 1-29 3-21zm99 343 1 2z" fill="#29363C"/>
<path transform="translate(492 1e3)" d="m0 0h2l5 9-1-7 3 4 8 20 5 13 2 9 1 15 17-11 4 2 14 17 11 14 14 17 11 14 11 13 11 14 14 17 1 4-10 8-10 5-13 3-20 2h-10l-16-3-10-3-9-5-7-8-8-9-10-15-2-10-3-26 9-17 5-15 2-18-2-11-4-12-8-17-7-12z" fill="#DD8827"/>
<path transform="translate(505,1031)" d="m0 0h2l4 10 2 7 1 9-2 17-4 12-3 3-43 5-32 2h-51l-22-11-21-9 7-14 14-24h83l27-2z" fill="#E4E4E4"/>
<path transform="translate(469,804)" d="m0 0 2 3 7 12 9 10 10 7 4 3 3 15 2 13 10 14 11 14 8 14 5 13 3 16v18h-1l-4-26-5-15-8-15-9-12-10-14-2 12-3 12-7 14-4 5-8 6-10 5-8 2h-19l-13-4-10-6-8-8-7-11-3-7-9-4-7-10-3-8-1-10 3-6h8l9 7 4 5 2 1 7-21 16-5 14-7 10-9v3l-8 8-14 8 12-5 10-8 7-10 4-13z" fill="#F4A89D"/>
<path transform="translate(344,321)" d="m0 0 7 1 3 3v8l9 1 14 5 9 6 2 7-2 5-6 4-7-1-10-5-9-3v34l9 2 12 5 8 6 6 7 3 8 1 12-4 13-9 10-12 6-14 3v14l-5 4-7-1-3-4v-14l-10-1-12-4-10-5-8-6-2-3v-7l4-5 2-1h8l11 7 12 5 5 1v-35l-10-2-14-7-9-8-4-9-1-4v-13l4-10 7-8 9-6 16-4h2v-6z" fill="#FEFEFE"/>
<path transform="translate(217,1117)" d="m0 0 4 1 11 12 8 7v13l-14 259-1 16h-26v-11l3-48-38 1-1-20v-29h42l1-24 10-171zm-50 205v41h36l2-34v-7z" fill="#A6A6A6"/>
<path transform="translate(233,1426)" d="m0 0h29l-1 12-8 44-26 140-1 3h173v2h-173l-32 173-1 3h-10l1-15 43-319 5-41z" fill="#DFE0E0"/>
<path transform="translate(1406,966)" d="m0 0h1v229h42l-4 4-8 7-9 13-7 15-4 15-2 11-1 16v15l2 23 5 25 6 18 8 16 8 11 6 6v2l4 2 8 7 18 11 25 11 31 12 14 5 14 7 6 16 13 37 6 20h-13l-5-17-7-16-10-16-13-15-12-10-16-9-15-5-40-9-24-3-27-1z" fill="#E0E0E0"/>
<path transform="translate(484,622)" d="m0 0 5 1 3 3 1 7 9 1 12 5 7 5 1 2v6l-4 5-7 1-16-7-3-1v30l11 3 12 6 8 8 3 7 1 13-4 11-7 8-11 6-7 2h-5v11l-3 5-6 1-5-4v-13l-9-1-14-5-10-6-4-4v-8l4-4 7-1 16 9 10 3v-31l-11-3-12-6-8-9-3-9v-12l4-10 4-5 9-6 9-3 8-1v-6z" fill="#FEFEFE"/>
<path transform="translate(1781,1414)" d="m0 0h1v13l-1 19-21 6-16 7-17 9-12 9-13 11-10 11-10 14-4 7h-44l4-18 13-42 53-15 23-7 17-5 19-8 14-8z" fill="#E4E4E4"/>
<path transform="translate(1609,1608)" d="m0 0 1 3 10-1 2-2v2h74v15h81v1l-37 1h-43l-1 17h-152v6h-1v-6h-13v-34h79z" fill="#495D66"/>
<path transform="translate(657,1259)" d="m0 0 3 1-18 14-20 15-18 14-47 36-11 8 21 2 7 2 1 1-1 11-7 31-17 58-17 55-23 70-12 36-12 35-5 13h-2l2-9 16-49 15-47 21-66 19-62 14-49 5-21v-4l-8-1h-24l-12 9-1 1-9 1-59 2h-37l3-2 20-3 19-5 22-8 24-11 25-13 21-12 26-15 23-13 27-14 20-9z" fill="#263238"/>
<path transform="translate(505,875)" d="m0 0 4 4 11 18 7 14 6 20 3 20v11h-8l-10-20 3 21h-15l-8-33-3-10v26l-2 16-1 2-9 1h-10l-14-14-10-7-14-7-13-11-8-11-3-5 1-2 10 11 10 6 13 4h19l13-4 9-6 4-2 2-4 6-10 4-11 2-15z" fill="#28343B"/>
<path transform="translate(805,1616)" d="m0 0 4 1h-3l1 11 2 1-5 13-2 9-4-1-9-7-16-8-9-3-12-1-10 4-3 6v7l4 6 8 5 9 2-3 2-78 17-23 5-4-1 15-36 3-3 132-28z" fill="#E4E3E3"/>
<path transform="translate(410,908)" d="m0 0 4 5 6 9 6 7 11 8 15 8 10 8 5 5v9l-3 7-4 5-8 4-9 2-12-1-13-4-16-8-18-12-12-10v-2l14-8 16-5 5-1 1-3z" fill="#F6A89F"/>
<path transform="translate(287,1009)" d="m0 0 9 3 18 8 24 9 18 6-2 6-8 13-10 17-11-3-22-8-26-11-21-10 6-7 11-11 8-7z" fill="#E4E4E4"/>
<path transform="translate(649,853)" d="m0 0h12l54 8 5 2 1 4-7 16-4 10-8 8-5 8-7-6-12-10-10-7-14-7-4-1h-8l-4 2v6l5 8 9 10 8 7 10 9 1 3-9-3-20-7-16-3-2-1 1-5 12-29 6-16 4-5z" fill="#455A64"/>
<path transform="translate(833,1602)" d="m0 0h6l6 4 3 4 1 8-4 10-9 10-12 9h7l-1 3-19 7-20 9-7 4h-2l2-4 4-4h-28l-11-3-6-4-4-5-1-2v-7l4-7 10-4 12 1 16 6 12 7 7 6 3 1 1-9 5-13 4-8 8-11 7-6z" fill="#2A363D"/>
<path transform="translate(1682,707)" d="m0 0h56l8 4 5 6 2 6v7l-3 8-7 6-6 2h-55l-10-5-5-8v-12l3-6 8-7z" fill="#FEFEFE"/>
<path transform="translate(1722,920)" d="m0 0 10 1 9 4 6 5 5 9 2 8-1 10-5 10-5 5-8 5-3 1h-15l-10-5-7-7-4-9v-15l5-10 5-5 8-5z" fill="#F5952A"/>
<path transform="translate(1544,1644)" d="m0 0h139l-1 16-1 2h-136l-1-2z" fill="#263238"/>
<path transform="translate(684,1252)" d="m0 0h24l13 4 6 4 7 7 7 14 4 16 1 7v40l-3 27-6 37-8 38-15 60-16 55-13 42 16-5 31-8 26-6 30-6h6l-3 2-26 7-37 9-31 7-12 2-4 10-11 31h-3l16-49 17-59 11-41 13-55 9-47 5-35 2-23v-33l-3-19-4-11-6-8-6-5-11-4-6-1h-24l-12 2h-5l3-2z" fill="#263238"/>
<path transform="translate(1719)" d="m0 0h4v223h27l27 1v24l-1 15h-1l-1-35-51-1v42h31v1l-5 1h-26v67h-4v-67l-22 1h-29v-49h51zm-47 227-1 23v18l25 1h23v-42z" fill="#C8C8C8"/>
<path transform="translate(921,543)" d="m0 0h1l1 94 3 3 3 1 22 1-2 6-7 8-12 6-11 1-9-2-10-6-7-9-3-8v-14l4-10 7-8 8-5 7-2h5z" fill="#E2E2E2"/>
<path transform="translate(1709,1542)" d="m0 0 12 1 19 3v79h-20l-11-76z" fill="#E4E4E4"/>
<path transform="translate(1407,924)" d="m0 0h146v13l-113 1h-33v15h-1v-16z" fill="#A6A6A6"/>
<path transform="translate(1683,921)" d="m0 0h12l10 4 1 3h-2l-7 14v15l5 10 4 4-1 3-9 4h-14l-10-5-5-4-5-8-2-9 1-10 3-7 7-8 8-5z" fill="#A6A6A6"/>
<path transform="translate(1071,517)" d="m0 0 11 1 9 4 8 7 5 8 2 8v9l-4 11-6 8-10 6-8 2-1-36-2-5-5-2-25-1 2-5 7-8 6-4z" fill="#F5952A"/>
<path transform="translate(306,1192)" d="m0 0h1l-1 15-1 11v33l3 20 5 17 8 15 8 10 8 7 10 6 16 6 18 4 8 1h34l23-3 28-7 20-7 20-8 34-16 19-10 35-18 28-13 22-7 23-4h12l14 2v1h-27l-17 3-16 5-20 8-26 13-19 10-29 15-22 11-26 11-25 9-29 7-24 3h-23l-21-2-18-4-13-5-11-7-10-9-8-9-8-14-6-18-3-19v-23l3-25z" fill="#263238"/>
<path transform="translate(1515,712)" d="m0 0h131v12h-131z" fill="#A6A6A6"/>
<path transform="translate(594,974)" d="m0 0 12 6 12 5 3 2 1 16 3 12-9 9-5-1-12 13-5 5z" fill="#263238"/>
<path transform="translate(454,1716)" d="m0 0 18 1 65 7 5 5 7 6 3 3-99-7-3-1 3-12z" fill="#E2E2E2"/>
<path transform="translate(520,1015)" d="m0 0 7 6 23 23-4 4-12 8-17 11h-1l-1-16-4-15-4-9 2-4 9-6h2z" fill="#E3E3E3"/>
<path transform="translate(648,1697)" d="m0 0 2 2 4 11 2 13 4 15v4h-6l-2-6-2-11-8 7-2 1-1 5-6-1-11 4 6 3-3 2-21 2-22 4-8 1 5-5 4-2-22-5-12-5-9-8v-3l6 1 7 6 11 4 26 5h5l-9-9v-2l5 1 6 8 3-4 2-3h4l-2 4-3 4 9-1 15-5h6l4-9 2 1v2l5-3 5-6 1-8-1-3-3-2 1-4h3z" fill="#29353C"/>
<path transform="translate(805,1616)" d="m0 0 4 1h-3l1 11 2 1-5 13-2 9-4-1-9-7-16-8-9-3-12-1-9 3-10 1-48 9h-5l4-2 118-25z" fill="#E2E2E2"/>
<path transform="translate(1407,953)" d="m0 0h69v13h-69z" fill="#A6A6A6"/>
<path transform="translate(426,1426)" d="m0 0h29l-1 11-3 18-1 1h-28l2-20 1-9z" fill="#A7A7A7"/>
<path transform="translate(233,1426)" d="m0 0h29l-1 12-3 18h-28v-12l2-16z" fill="#A7A7A7"/>
<path transform="translate(907,1405)" d="m0 0 5 1v3l6 1 4 2v5l-4 1-7-3v11l9 3 4 4v9l-3 5-6 3h-3l-1 6h-4v-6l-9-2-5-3v-5l4-1 9 4v-11l-9-4-3-5v-8l5-5 5-2h3z" fill="#28353B"/>
<path transform="translate(959,262)" d="m0 0h82l2 2v5l-4 3h-78l-4-3v-5z" fill="#F4F4F4"/>
<path transform="translate(1051,1408)" d="m0 0 9 2 5 5 2 3v11l-3 11-6 7-8 3-5-1v-5l9-3 2-4h-8l-8-6-2-5v-7l4-7 4-3z" fill="#2A363D"/>
<path transform="translate(755,1635)" d="m0 0 10 1 17 7 18 10-1 2-19 2h-21l-10-3-5-6-1-2v-6l5-4z" fill="#E2E1E0"/>
<path transform="translate(999,1408)" d="m0 0 9 2 5 4 2 4v13l-4 11-6 6-10 2-2-2 1-4 8-3 3-4h-9l-7-5-3-5v-8l4-6 4-4z" fill="#29363C"/>
<path transform="translate(833,1607)" d="m0 0h6l4 4 1 8-4 8-9 9-15 10-10 6-3-1 10-23 7-11 7-7z" fill="#F9F9F9"/>
<path transform="translate(1458)" d="m0 0h3v269h-3z" fill="#C7C7C7"/>
<path transform="translate(1090,1408)" d="m0 0 9 2 5 6 1 2v14l-3 9-4 5-5 3-9 1-1-5 2-2 8-2 2-4h-7l-6-3-5-6v-11l5-6 3-2z" fill="#28353B"/>
<path transform="translate(223,223)" d="m0 0h55l53 1v36h-1l-1-33-102 1-1 40h38l45 1v1l-5 1-53 1h-28l-1-48z" fill="#E5E5E5"/>
<path transform="translate(1727,279)" d="m0 0 108 1 1 1v13l-1 23h-1v-34l-78 1h-25v37l-1 3 62 1 31 1v1l-41 1h-55z" fill="#E5E5E5"/>
<path transform="translate(1270,280)" d="m0 0h39v4h4v10h-4v4h-39z" fill="#FCFCFC"/>
<path transform="translate(460,1817)" d="m0 0h21l65 3 53 3 49 3 58 4v1h-24l-47-2-41-2-83-5-31-2-20-2z" fill="#2A373E"/>
<path transform="translate(960,1408)" d="m0 0h7l6 4 4 4 1 3v8l-5 7-8 7-2 2 14 1 1 5-2 1h-24l-2-1 1-5 15-14 4-4v-6l-4-4h-6l-4 3-5-1 1-5z" fill="#2A373D"/>
<path transform="translate(910,1714)" d="m0 0h7l-1 2-16 3-47 10-27 6-34 7-27 6-36 7-20 4h-7l3-2 36-8 52-11 53-11 30-6 19-4z" fill="#2A383E"/>
<path transform="translate(472,1676)" d="m0 0h16l57 5 66 7 26 4v1h-15l-89-8-55-7-6-1z" fill="#263238"/>
<path transform="translate(944,552)" d="m0 0h11l6 3 3 4v7l-5 6-3 1h-13l-6-3-3-7 2-6 4-4z" fill="#F3942A"/>
<path transform="translate(924,1519)" d="m0 0 7 1 3 5v6h3v16h-22v-16h3l1-8z" fill="#FAFAFA"/>
<path transform="translate(1668,223)" d="m0 0h51v4h-47v23l-1 18h25l23 1v2l-22 1h-29z" fill="#E5E5E5"/>
<path transform="translate(996,939)" d="m0 0 236 1v1l-236 1-228-1v-1z" fill="#E5E5E5"/>
<path transform="translate(163,1318)" d="m0 0h42v4h-38v41h36v8h-1v-5l-38 1-1-20z" fill="#E4E4E4"/>
<path transform="translate(638,888)" d="m0 0 4 5 10 11 8 7 10 9 1 3-9-3-20-7-12-3 7-18z" fill="#455A64"/>
<path transform="translate(354,407)" d="m0 0 10 4 5 4 2 4v10l-4 6-8 4h-5z" fill="#E5E5E5"/>
<path transform="translate(338,350)" d="m0 0h1v32l-9-3-6-5-2-5v-7l3-6 8-5z" fill="#E5E5E5"/>
<path transform="translate(1488,842)" d="m0 0 5 1 2 4-1 5v2l4 5v7l-4 5-2 1h-7l-5-5-1-7 3-5 2-1-1-8 2-3z" fill="#E7E7E7"/>
<path transform="translate(546,1726)" d="m0 0h9l28 3 8 7 5 6-11-1-25-5-10-5z" fill="#E0DDDA"/>
<path transform="translate(376,1013)" d="m0 0 2 1-14 14-14 24-13 23 10 5 18 8 24 12 21 12-2 1-36-18-37-16-3-2 14-25 13-21 10-15 2-1v3z" fill="#2C3940"/>
<path transform="translate(649,853)" d="m0 0h6l-6 12-5 12-6 3v12l-7 17-5 1-2-1 1-5 12-29 6-16 4-5z" fill="#394A52"/>
<path transform="translate(1056,612)" d="m0 0 6 1 3 3 1 6-3 5-4 2-8-1-1 1-7-1-4-5 1-7 3-3h10z" fill="#F3942A"/>
<path transform="translate(492,699)" d="m0 0 9 3 5 4 2 4v8l-4 6-8 4h-4z" fill="#E5E5E5"/>
<path transform="translate(802,1617)" d="m0 0h3v4l-24 5-20 4-3 1-10 1-5 2-10 1-48 9h-5l4-2z" fill="#EEA79B"/>
<path transform="translate(492 1e3)" d="m0 0h2l5 9-1-7 3 4 8 20 5 13 2 9v18l-4 14-7 16-5 7 1 13v10h-1l-3-23 9-17 5-15 2-18-2-11-4-12-8-17-7-12z" fill="#2B3940"/>
<path transform="translate(474,649)" d="m0 0h5v27l-6-1-6-4-3-5v-8l4-6z" fill="#E5E5E5"/>
<path transform="translate(1747,842)" d="m0 0h5l-3 2-6 2-2 8 4-2 8 1 4 6v6l-4 5-2 1h-7l-5-4-1-2v-11l4-9z" fill="#E6E6E6"/>
<path transform="translate(1437,843)" d="m0 0h5l-4 2-5 4-2 6 3-2h7l4 2 2 3v9l-5 5h-8l-5-5-1-3v-7l3-9z" fill="#E6E6E6"/>
<path transform="translate(1273,283)" d="m0 0h26v12h-26z" fill="#FCFCFC"/>
<path transform="translate(1037,1524)" d="m0 0h6l6 5 1 6-2 5-3 3-7 1-5-3-2-2-1-6 3-7z" fill="#F8F8F8"/>
<path transform="translate(478,840)" d="m0 0 2 2 5 18 1 1 3-4 11 1-2 4-2 1-2 6-4 1h-3l1 11-7-1 1 2v6l-6 3-4 1-4-4-2-1 1-3 13 3-2-10h6l-4-23z" fill="#2F3D45"/>
<path transform="translate(505,867)" d="m0 0 4 4 10 14 8 10 8 14 5 13 3 16v18h-1l-4-26-5-15-8-15-9-12-10-14z" fill="#354148"/>
<path transform="translate(937,1409)" d="m0 0h5l1 2v38l-5 1-1-1v-31l-6 1-2-2 1-4z" fill="#273339"/>
<path transform="translate(970,405)" d="m0 0 4 2 5 7h2l6-9 4 1v23l-4 1-1-15-4 6-4-1-4-5-1 15-4-1v-23z" fill="#F8F8F8"/>
<path transform="translate(984,1363)" d="m0 0 7 3 2 3v9l-5 5h-8l-5-6v-8l5-5z" fill="#2B393F"/>
<path transform="translate(586,1823)" d="m0 0h13l49 3 58 4v1h-24l-47-2-41-2-5-1v-2z" fill="#2C3940"/>
<path transform="translate(910,405)" d="m0 0h9l5 3 1 2v6l-4 4-9 1v9l-4-1v-22z" fill="#F7F7F7"/>
<path transform="translate(1020,405)" d="m0 0 4 2 9 12 1-12 1-2 3 1v24l-4-1-10-14-1 15-4-1v-23z" fill="#F8F8F8"/>
<path transform="translate(702,398)" d="m0 0 4 4-16 15 2 4 14 14-4 3-12-11-7-7-2-1v-2l8-7z" fill="#FAFAFA"/>
<path transform="translate(920,753)" d="m0 0h9l5 6v6l-4 4-6-1 4 1v2l-5 1-5-3-3-4 1-8z" fill="#CDCDCD"/>
<path transform="translate(1297,398)" d="m0 0 8 6 13 13-2 4-14 14-5 3-3-4 12-11 4-4-2-4-7-7-7-6z" fill="#FAFAFA"/>
<path transform="translate(623,1758)" d="m0 0h20l9 2v2l-32 4-21 4 1-3 14-7z" fill="#28353B"/>
<path transform="translate(839,1652)" d="m0 0h6v2l-28 11-20 10v-3l5-6 13-8 16-5z" fill="#28353B"/>
<path transform="translate(617,1749)" d="m0 0 17 1 6 2-1 2-21 2-28 5-3-1 5-4 12-5z" fill="#28353B"/>
<path transform="translate(370,752)" d="m0 0m-1 1m-2 1h2l-2 6-3 6-1 10 4 8 8 7 12 5 18 2-2 2h-17l-12-4-8-6-6-8-1-3v-11l6-12z" fill="#364349"/>
<path transform="translate(853,1657)" d="m0 0h6v2l-24 9-19 9-6 3 2-5 8-7 14-7 11-3z" fill="#29353C"/>
<path transform="translate(1723,223)" d="m0 0h27l27 1v24l-1 15h-1l-1-35-51-1z" fill="#E6E6E6"/>
<path transform="translate(1044,552)" d="m0 0h18l3 3-1 7-2 1h-18l-3-3v-5z" fill="#F9F9F9"/>
<path transform="translate(934,405)" d="m0 0h3l8 20v5l-4-1-1-5h-9l-2 6-4-1 7-20z" fill="#F9F1E8"/>
<path transform="translate(998,405)" d="m0 0h15v4h-11v6h8l2 1v3l-2 1h-8v6h10l1 4h-15z" fill="#F9F9F9"/>
<path transform="translate(285,1171)" d="m0 0 12 5 11 8v1l-27 1 1-8z" fill="#DC892C"/>
<path transform="translate(1076,404)" d="m0 0 7 1 4 3-1 3-6-2-6 1v3l10 3 4 4-1 7-5 3h-7l-6-3v-4l5 2h8l1-4-11-4-3-3 1-6 3-3z" fill="#F8F8F8"/>
<path transform="translate(935,614)" d="m0 0h74v3h-74z" fill="#FEFEFE"/>
<path transform="translate(929,989)" d="m0 0 9 1 4 4v8l-4 5-2 1h-7z" fill="#2D3940"/>
<path transform="translate(801,1208)" d="m0 0h5l3 4 1 9-3 5-1 1h-6l-4-6 1-9z" fill="#C7C7C7"/>
<path transform="translate(918,1099)" d="m0 0 6 1 3 5v7l-3 5-6 1-4-4-1-2 1-9z" fill="#C7C7C7"/>
<path transform="translate(1088,1416)" d="m0 0h6l5 5v6l-5 5-8-1-3-4v-6z" fill="#F2F2F2"/>
<path transform="translate(1806,1317)" d="m0 0v3l-13 8-11 5-19 6-10 2v-2l29-12 19-8z" fill="#29363C"/>
<path transform="translate(910,1714)" d="m0 0h7l-1 2-16 3-70 15-2-1 3-3 35-7 29-6z" fill="#2C3A40"/>
<path transform="translate(998,1416)" d="m0 0h6l5 6-1 6-3 3-7 1-5-5v-6z" fill="#F5F5F5"/>
<path transform="translate(373,1107)" d="m0 0 2 1-11 10-11 9-14 12-14 11-16 13-6 5-2-1 7-7 11-9 13-11 17-14 16-13z" fill="#2A373E"/>
<path transform="translate(1050,1416)" d="m0 0 7 1 3 3v8l-5 4-7-1-3-3v-8z" fill="#F8F8F8"/>
<path transform="translate(372,1226)" d="m0 0h2v6l-9 7-12 6-15 4-10 1 1-2 21-7 12-6 9-7z" fill="#263238"/>
<path transform="translate(875,1099)" d="m0 0 4 1 1 7 2 4-1 5-3 2h-6l-3-3v-6l2-4 1-5z" fill="#C9C9C9"/>
<path transform="translate(803,1046)" d="m0 0 3 1v5h6l4 3v7l-3 3-8 1h-2z" fill="#2F3C43"/>
<path transform="translate(1272,282)" d="m0 0h35v14h-35zm1 1v12h26v-12z" fill="#F6962B"/>
<path transform="translate(1789,1502)" d="m0 0h8l-4 2-14 3-9 1h-17l-17-2-2-1v-2l33 1z" fill="#2C3A41"/>
<path transform="translate(606,1042)" d="m0 0 6 2 28 15 23 13 20 12-2 1-25-13-11-6-26-15-13-8z" fill="#2B393F"/>
<path transform="translate(771,1161)" d="m0 0h8l4 3v7l-3 3-6 1-1 5h-3v-18z" fill="#2B383E"/>
<path transform="translate(635,882)" d="m0 0 3 4-1 9-6 14-5 1-2-1 1-5 8-20z" fill="#37474F"/>
<path transform="translate(911,989)" d="m0 0h9l3 3v5 4l1 6-3 1-2-6-5-1v7h-3z" fill="#2C3A40"/>
<path transform="translate(376,1013)" d="m0 0 2 1-14 14-14 24-13 23h-3l2-5 10-18 13-21 10-15 2-1v3z" fill="#2B393F"/>
<path transform="translate(896,1156)" d="m0 0h3v18l-2 1-8-1-3-4 1-7 2-2h6z" fill="#2B383F"/>
<path transform="translate(956,1524)" d="m0 0h7l4 2 1 7-3 3h-6v7l-3 1-1-2v-16z" fill="#F4F4F4"/>
<path transform="translate(860,813)" d="m0 0h2v19h-10l-3-4v-6l3-3 5-1 3 1z" fill="#2C393F"/>
<path transform="translate(786,989)" d="m0 0h2l5 7 4-4 2-3h3v19h-3l-1-11-3 4-4-1-2-3-1 11h-3v-18z" fill="#2E3C43"/>
<path transform="translate(843,1099)" d="m0 0h2v3l-4 2 6 3 2 2-1 7-3 2h-6l-3-3v-9l4-6z" fill="#C7C7C7"/>
<path transform="translate(1026,1099)" d="m0 0 4 1-1 2-4 2 3 1 5 4-1 7-3 2h-6l-3-4v-8l4-6z" fill="#C7C7C7"/>
<path transform="translate(900,1099)" d="m0 0 6 1 2 2v10l-5 6-5-1 1-2 4-2-5-2-3-4 1-5z" fill="#C7C7C7"/>
<path transform="translate(1488,842)" d="m0 0 5 1 2 4-1 5v2l4 5v7l-4 5-2 1h-7l-3-2 1-2 2 1h7l3-3 1-5-3-5-7-1-2-1-1-8 2-3z" fill="#FEFEFE"/>
<path transform="translate(1064,1208)" d="m0 0h3v3l-5 2 4 1 4 4v6l-3 3h-6l-3-2-1-8 3-6z" fill="#C7C7C7"/>
<path transform="translate(907,1161)" d="m0 0h10v13l-5 1h-5l-3-4v-6z" fill="#313F46"/>
<path transform="translate(1011,1525)" d="m0 0 4 1 7 10 1-11h3v19h-3l-8-11-1 11-3-1z" fill="#F8F8F8"/>
<path transform="translate(809,1161)" d="m0 0h10v13l-5 1h-5l-3-4v-6z" fill="#303D44"/>
<path transform="translate(947,405)" d="m0 0 4 2 4 6 5-5 2-3 3 1-1 5-5 6-1 12-4 1-1-12-7-9z" fill="#F8F8F8"/>
<path transform="translate(1043,613)" d="m0 0h8l1 2-1 2v7l1 3-2 2-7-1-4-5 1-7z" fill="#F4F4F4"/>
<path transform="translate(1045,405)" d="m0 0h18v4h-7v21l-4-1v-20h-7z" fill="#F9F9F9"/>
<path transform="translate(643,1706)" d="m0 0 5 2 1 7-3 7-6 6h-3v-8z" fill="#DCDCDC"/>
<path transform="translate(935,622)" d="m0 0h52v3h-52z" fill="#FEFEFE"/>
<path transform="translate(824,989)" d="m0 0 4 2 7 10 1-12 3 1v17h-4l-7-10-1 11h-3z" fill="#2D3A41"/>
<path transform="translate(796,758)" d="m0 0h8l1 1v12l-7 1-5-3-1-1v-6z" fill="#C7C7C7"/>
<path transform="translate(783,705)" d="m0 0h9v14h-9l-3-3-1-5 3-5z" fill="#29363D"/>
<path transform="translate(1658,1277)" d="m0 0 1 4-2 16-1 26-1 6-2-3-1-5v-19l4-20z" fill="#29363C"/>
<path transform="translate(852,752)" d="m0 0h2v19h-9l-3-3v-7l4-3h5z" fill="#C7C7C7"/>
<path transform="translate(998,552)" d="m0 0h38v4h-38z" fill="#EDEDED"/>
<path transform="translate(492 1e3)" d="m0 0h2l5 9-1-7 3 4 8 20 5 13 2 12h-2l-1 2-2-11-4-12-8-17-7-12z" fill="#29363D"/>
<path transform="translate(738,989)" d="m0 0h9l3 3-1 7-4 2h-4v7h-3z" fill="#2B3940"/>
<path transform="translate(758,818)" d="m0 0 7 1v13h-9l-3-3-1-6 4-4z" fill="#2B383F"/>
<path transform="translate(738,813)" d="m0 0h9l3 3-1 7-4 2h-4v7h-3z" fill="#334047"/>
<path transform="translate(898,989)" d="m0 0 4 2 5 14-1 4-2-1-1-3h-7l-2 4h-2l1-8z" fill="#414D53"/>
<path transform="translate(758,989)" d="m0 0h2l6 16-1 4-2-1-1-3-7-1-2 5-2-1 2-9 4-9z" fill="#414C52"/>
<path transform="translate(827,758)" d="m0 0h9v13h-9l-3-3-1-4 3-5z" fill="#C7C7C7"/>
<path transform="translate(755,704)" d="m0 0h6l4 1 4-1 5 3v11h-2l-1-9-4-1-1 10-3 1-1-9-5-1v9l-3-1v-12z" fill="#2C3940"/>
<path transform="translate(973,758)" d="m0 0h8v13h-9l-3-3v-7z" fill="#C7C7C7"/>
<path transform="translate(827,818)" d="m0 0 5 2 2 2v6l-4 4-7-1-2-3v-6l3-3z" fill="#2D3B41"/>
<path transform="translate(975,1525)" d="m0 0h3l6 15v4l-3-1-1-4h-7l-2 5h-2l1-6z" fill="#F8F0E6"/>
<path transform="translate(847,1161)" d="m0 0h5l4 4-1 7-4 3-5-1-3-4v-5z" fill="#2F3D43"/>
<path transform="translate(1019,1364)" d="m0 0 3 1 5 15v3l-3-1v-3h-8l-1 4h-3l2-9 4-9z" fill="#424E53"/>
<path transform="translate(983,1366)" d="m0 0 6 2 2 6-3 5-1 1h-6l-3-3v-7z" fill="#F6F6F6"/>
<path transform="translate(807,989)" d="m0 0h12v3h-9v5h8v3h-8v5h9v3h-12z" fill="#2E3C42"/>
<path transform="translate(777,1052)" d="m0 0h8 3l7 1 2 2v10h-3l-1-9h-4l-1 9h-3l-1-9h-4l-1 9h-2z" fill="#2A383E"/>
<path transform="translate(1026,758)" d="m0 0 7 1 2 3v6l-3 3h-6l-3-3-1-5z" fill="#C7C7C7"/>
<path transform="translate(738,699)" d="m0 0h11l1 3h-9v6h8l-1 3h-7v5h8v3h-11z" fill="#2E3C43"/>
<path transform="translate(1038,1527)" d="m0 0 6 1 2 3v6l-3 3-4 1-4-2-1-2v-6z" fill="#F6962B"/>
<path transform="translate(1056,1525)" d="m0 0h3l4 10v2h2l2-7h4l4 8-2 5h-2l-3-7-4 8-3-3-5-12z" fill="#F7F7F7"/>
<path transform="translate(802,1099)" d="m0 0h1l1 11 3 1-2 6-3 1v-3h-9l-1-4z" fill="#ccc"/>
<path transform="translate(944,758)" d="m0 0h17l2 2v11h-2l-1-9-4-1-1 10h-3l-1-9h-4l-1 9-3-1v-11z" fill="#C7C7C7"/>
<path transform="translate(738,1047)" d="m0 0h3l8 11 1-11h2v18l-4-2-6-8-1 10h-3z" fill="#2A373E"/>
<path transform="translate(767,758)" d="m0 0h17l3 3v9h-3l-1-9h-4l-1 10h-3l-1-9-4 1-1 8h-2z" fill="#C7C7C7"/>
<path transform="translate(738,1155)" d="m0 0h11l1 3h-9v6h8v2h-8v6h9v3h-12z" fill="#313F46"/>
<path transform="translate(994,1100)" d="m0 0h1v10h4l-1 5-1 3-3-1v-2h-9v-4l8-10z" fill="#CBCBCB"/>
<path transform="translate(1041,758)" d="m0 0h17l3 4v8l-3 1-1-10h-4l-1 10h-3l-1-9-4-1-1 10h-2z" fill="#C7C7C7"/>
<path transform="translate(826,1209)" d="m0 0h1v11l4 1-2 6h-3v-3h-10l1-4 8-10z" fill="#ccc"/>
<path transform="translate(1015,1155)" d="m0 0h9l3 2-1 3-9-1-3 3 1 7 1 1h11l-1 3-7 2-6-3-3-4v-7z" fill="#2F3C42"/>
<path transform="translate(1031,1209)" d="m0 0h2v11l4 1-3 6h-2v-3h-10v-3z" fill="#CDCDCD"/>
<path transform="translate(935,1161)" d="m0 0 7 1 3 3-1 4h-9v2h8l-2 4h-6l-3-3-1-4 3-6z" fill="#49545A"/>
<path transform="translate(618,934)" d="m0 0h9l16 3 15 6 12 7-2 1-14-6-22-7-14-3z" fill="#313E43"/>
<path transform="translate(465,814)" d="m0 0 2 1-1 5-6 11-10 9-14 7-7 1 3-2 14-7 10-9z" fill="#2F3E45"/>
<path transform="translate(820,1099)" d="m0 0h10l1 3h-9v3l7 1 2 4-1 5-3 3h-6l-2-4h7l1-4v-2l-8 1z" fill="#C7C7C7"/>
<path transform="translate(1e3 1099)" d="m0 0h9l1 3-8 1-1 2 7 1 2 3-1 6-3 3h-6l-2-4h7l1-5h-8l1-9z" fill="#C7C7C7"/>
<path transform="translate(881,988)" d="m0 0 6 2 1 3-8-1-4 2-1 7 3 3h10l-1 3-2 1h-8l-5-5-1-2v-7l6-5z" fill="#2B393F"/>
<path transform="translate(750,1747)" d="m0 0 3 1-3 3-35 7-13 1 3-2 36-8z" fill="#2C3940"/>
<path transform="translate(1041,1209)" d="m0 0h11l-1 3h-7l1 2 5 1 2 2v7l-3 3h-7l-2-3 3-1 3 1 3-3-1-3h-7z" fill="#C7C7C7"/>
<path transform="translate(459,858)" d="m0 0 4 1 2 4-1 7-2 2-5-2-2-5-4-2-1-4 5 1z" fill="#2A383F"/>
<path transform="translate(824,1052)" d="m0 0h6l4 4v3h-10v3h8l-1 3-5 1-5-3-1-5 3-5z" fill="#2B393F"/>
<path transform="translate(1611,842)" d="m0 0 8 1 4 6-1 8-8 8-5 4 14 1v2h-18l2-4 7-7 5-4 1-2v-9l-3-1h-7l-5 2 4-4z" fill="#FEFEFE"/>
<path transform="translate(456,1215)" d="m0 0h1l2 13 1 12v28l-1 9h-1l-1-34-1-15z" fill="#2E3C43"/>
<path transform="translate(606,1732)" d="m0 0 15 1 3 2-18 6h-6z" fill="#D8D8D8"/>
<path transform="translate(776,1099)" d="m0 0h11l-1 4v4l1 7-4 4-7-1-1-3h7l1-5-4-2 2-4-5-2z" fill="#C7C7C7"/>
<path transform="translate(946,1099)" d="m0 0h5l3 3 1 4-3 5-3 3 5 2v2h-12l2-4 7-7-1-4-7 1v-3z" fill="#C7C7C7"/>
<path transform="translate(761,1099)" d="m0 0h6l3 3v7l-5 5 5 2v2h-12l2-4 7-7-1-4-7 1v-3z" fill="#C7C7C7"/>
<path transform="translate(875,758)" d="m0 0 7 1 2 3v3h-10l2 3h6l-1 3h-7l-3-3v-7z" fill="#CBCBCB"/>
<path transform="translate(753,758)" d="m0 0 7 1 2 3v3h-10l2 3h6v2l-2 1h-6l-3-3v-7z" fill="#CBCBCB"/>
<path transform="translate(969,1099)" d="m0 0h10v3l-2 4 2 2v7l-4 3-7-1v-3h7l1-4-5-5 2-2-4-1z" fill="#C7C7C7"/>
<path transform="translate(608,958)" d="m0 0h13l18 4 16 7-3 1-20-6-24-5z" fill="#2F3E45"/>
<path transform="translate(489,857)" d="m0 0 11 1-2 4-2 1-2 6-4 1-3-1v-10z" fill="#29363C"/>
<path transform="translate(1053,1155)" d="m0 0 3 2 4 11 6-12h2l-1 6-5 12h-3l-7-16z" fill="#2B383F"/>
<path transform="translate(1032,1156)" d="m0 0 3 1 4 9v3h2l3-9 2-4h2l-1 6-5 12h-4l-6-15z" fill="#2B383F"/>
<path transform="translate(910,1714)" d="m0 0h7l-1 2-16 3-27 6h-2l-1-3 36-7z" fill="#2D3C43"/>
<path transform="translate(985,1525)" d="m0 0h3l3 4v2l5-5 4-1-2 5-3 4-1 9-3 1-1-9-5-7z" fill="#F7F7F7"/>
<path transform="translate(1437,843)" d="m0 0h5l-4 2-5 4-2 6 3-2h7l4 2 2 3v9l-2 1v-8l-4-4h-6l-4 4-1 7-2-3v-7l3-9z" fill="#FEFEFE"/>
<path transform="translate(957,1364)" d="m0 0h15v3h-6v16h-3v-16h-5z" fill="#2E3C43"/>
<path transform="translate(996,1364)" d="m0 0h15l-1 3h-5v16h-3v-16h-5z" fill="#2B383E"/>
<path transform="translate(1734,1240)" d="m0 0h2l-3 10-6 19h-1v-11l3-11z" fill="#29363C"/>
<path transform="translate(801,1211)" d="m0 0 5 1 1 2v7l-3 4-4-2-1-2v-7z" fill="#E5E5E5"/>
<path transform="translate(931,992)" d="m0 0 6 1 2 2v7l-3 3h-5z" fill="#EDEDED"/>
<path transform="translate(1551,1261)" d="m0 0h2l-2 6-8 17-5 14-2-1 6-20 8-15z" fill="#2C383E"/>
<path transform="translate(918,1102)" d="m0 0 5 1 1 2v7l-2 3-5-1-1-2v-7z" fill="#E5E5E5"/>
<path transform="translate(768,989)" d="m0 0 5 5h3l5-5 1 2-5 8-1 9h-3l-1-9-5-7z" fill="#2A373E"/>
<path transform="translate(341,905)" d="m0 0 1 4-3 11-1 8-1 22h-1l-1-10v-12l2-15 3-7z" fill="#424E54"/>
<path transform="translate(1700,842)" d="m0 0h1v22l3 1-2 1-1 5h-1v-6h-17l2-4 11-14zm-1 4-8 9-6 9h15v-18z" fill="#FEFEFE"/>
<path transform="translate(1747,842)" d="m0 0h5l-3 2-6 2-2 8 4-1-4 4-1 7 5 5 7-1 3-4 1-5h1v6l-4 5-2 1h-7l-5-4-1-2v-11l4-9z" fill="#FEFEFE"/>
<path transform="translate(1444,1335)" d="m0 0 9 1 15 5 10 5v2l-5-1-24-9-5-2z" fill="#2A373D"/>
<path transform="translate(658,1827)" d="m0 0 19 1 29 2v1h-24l-29-1v-1l5-1z" fill="#314048"/>
<path transform="translate(1031,1364)" d="m0 0h3v16h9v3h-12z" fill="#324148"/>
<path transform="translate(853,1099)" d="m0 0h12l-1 6-6 13h-2l1-6 4-10h-8z" fill="#C7C7C7"/>
<path transform="translate(800,819)" d="m0 0 3 1 3 6 1-4 4 1 2 1 3-5 2 1-6 11-3-1-1-2-2 3h-2l-4-9z" fill="#4C565B"/>
<path transform="translate(787,818)" d="m0 0 5 1 2 1v2h-6l4 2 2 2-1 5-1 1h-6l-2-4 7 1-1-2-5-2-1-5z" fill="#303D44"/>
<path transform="translate(861,1161)" d="m0 0h8l3 3v10h-2l-1-9h-4l-1 9h-3z" fill="#29363C"/>
<path transform="translate(478,877)" d="m0 0 5 1-2 1 1 9-6 3-4 1-4-4-2-1 1-3 13 3z" fill="#2B3940"/>
<path transform="translate(775,818)" d="m0 0 5 2v2h-6l6 3 1 4-3 3-7-1-1-3 8 1v-2l-7-2v-5z" fill="#2C3A41"/>
<path transform="translate(754,1161)" d="m0 0 3 1 2 2 3-3h2l-2 8 2 5h-3l-1-2-6 3 1-5v-4z" fill="#2C3A41"/>
<path transform="translate(1659,842)" d="m0 0h15l-2 4-5 5 6 5 1 2v6l-2 2-1-8-3-3-4-2 2-4 4-4-11-1z" fill="#FEFEFE"/>
<path transform="translate(891,758)" d="m0 0 6 1v3l-5-1-1 2 6 1 1 5-2 2h-7l-1-4 6 1 1-2-5-1-2-2 1-4z" fill="#C7C7C7"/>
<path transform="translate(1421,1432)" d="m0 0 6 2 10 6 12 12-3 1-7-7-18-13z" fill="#2B383F"/>
<path transform="translate(746,283)" d="m0 0h6l2 2v5l-2 2h-6l-2-3 1-5z" fill="#FAFAFA"/>
<path transform="translate(904,758)" d="m0 0h5l2 3-2 1-3-1-1 1 6 3v5l-2 1h-6l-2-1 1-3 6 1-6-4v-5z" fill="#C7C7C7"/>
<path transform="translate(925,1522)" d="m0 0 4 1 2 3v5h-10l1-7z" fill="#F6962B"/>
<path transform="translate(759,1052)" d="m0 0h3l1 10 4-1 1-9h2v10l-2 3-4 1-4-2-1-2z" fill="#2E3B42"/>
<path transform="translate(844,989)" d="m0 0h14v3h-6v16h-2v-16h-6z" fill="#273339"/>
<path transform="translate(731,283)" d="m0 0h6l2 3-1 5-1 1h-6l-2-3 1-5z" fill="#F9F9F9"/>
<path transform="translate(716,283)" d="m0 0h5l3 3-1 5-1 1h-6l-2-2v-5z" fill="#F9F9F9"/>
<path transform="translate(825,1156)" d="m0 0h3v5h2v3h-2v8h2v3l-5-1v-10h-2v-3h2z" fill="#354249"/>
<path transform="translate(375,1094)" d="m0 0 6 2 28 15 1 2-6-2-30-15z" fill="#303F46"/>
<path transform="translate(923,1156)" d="m0 0h3v5h2v3h-2v8h2v3l-5-1-1-10-1-3h2z" fill="#344248"/>
<path transform="translate(701,283)" d="m0 0h5l3 5-2 4h-6l-2-2v-5z" fill="#FBFBFB"/>
<path transform="translate(634,1158)" d="m0 0h2v11l-11-1v-2l8-7z" fill="#273339"/>
<path transform="translate(595,947)" d="m0 0 2 3 5 6 2 2-10 5v-14z" fill="#2A373E"/>
<path transform="translate(686,283)" d="m0 0h5l2 2v5l-2 2h-5l-2-2v-5z" fill="#FCFCFC"/>
<path transform="translate(784,278)" d="m0 0 9 2 4 3v2l-4-1-6-2-8 1-6 3v-4l6-3z" fill="#F6F6F6"/>
<path transform="translate(1774,1464)" d="m0 0 2 1-12 11-7 9v3h-2l-1-4 7-9 10-9z" fill="#2C3A41"/>
<path transform="translate(1595,842)" d="m0 0h2v29h-2v-26l-5 2v-2z" fill="#FEFEFE"/>
<path transform="translate(1826,1319)" d="m0 0h10v13l-1 23h-1l-1-33-7-1z" fill="#E5E5E5"/>
<path transform="translate(660,860)" d="m0 0 5 2 1 5-2 2h-6l-1-1v-6z" fill="#263238"/>
<path transform="translate(1486,844)" d="m0 0h5l2 2v5l-2 2-6-1-1-5z" fill="#E5E5E5"/>
<path transform="translate(1011,758)" d="m0 0 7 1v3h-7l-1 5 5 1 3-1v3l-2 1h-6l-3-3v-7z" fill="#C7C7C7"/>
<path transform="translate(761,1208)" d="m0 0 3 1v18h-3l-1-14-2-1 1-3z" fill="#C7C7C7"/>
<path transform="translate(393,865)" d="m0 0 5 2 6 7 3 9v4h-2l-4-6-5-2v-1h6l-4-8z" fill="#2F3E45"/>
<path transform="translate(1397,1468)" d="m0 0 31 2 3 2h-23l-11-3z" fill="#2A373E"/>
<path transform="translate(1027,1442)" d="m0 0h5l2 2-1 5-1 1h-5l-2-2 1-5z" fill="#28343B"/>
<path transform="translate(795,1161)" d="m0 0h9l-1 3h-3l-2 10-3-1z" fill="#303F46"/>
<path transform="translate(845,818)" d="m0 0 2 1v2l-4 2-2 9h-3v-13z" fill="#334148"/>
<path transform="translate(591,1730)" d="m0 0 11 1-2 6-3 3-6-8z" fill="#D6D6D6"/>
<path transform="translate(912,409)" d="m0 0h7l2 4-1 3h-8z" fill="#F6962B"/>
<path transform="translate(911,1433)" d="m0 0 5 2 1 1v6l-3 2h-3z" fill="#E2E2E2"/>
<path transform="translate(819,752)" d="m0 0 2 1v18h-3v-18z" fill="#C7C7C7"/>
<path transform="translate(808,1639)" d="m0 0h2l1 10-5 3-3-1z" fill="#DBDBDB"/>
<path transform="translate(325,1146)" d="m0 0m-1 1m-1 1 1 3-14 11-7 6-2-1 7-7 11-9z" fill="#30393C"/>
<path transform="translate(838,1052)" d="m0 0h8l-1 3-3 2-1 8h-3z" fill="#2B383F"/>
<path transform="translate(1478,1444)" d="m0 0 10 5 8 7-1 2-11-7-7-5z" fill="#2B3940"/>
<path transform="translate(784,1208)" d="m0 0 2 1-3 9-4 9h-2l1-6 5-12z" fill="#C7C7C7"/>
<path transform="translate(376,1013)" d="m0 0 2 1-14 14-2 3-2-1 9-14 2-1v3z" fill="#2C373B"/>
<path transform="translate(460,1817)" d="m0 0h21l19 1v1l-20 1-20-2z" fill="#384951"/>
<path transform="translate(905,1414)" d="m0 0h2v11l-5-2-1-1v-5z" fill="#E8E8E8"/>
<path transform="translate(509,1035)" d="m0 0 3 1 4 15v3h-2l-1 2-2-11z" fill="#2E3C43"/>
<path transform="translate(1804,1491)" d="m0 0 3 1-9 4-4 1h-11l1-2 16-3z" fill="#2B383F"/>
<path transform="translate(456,841)" d="m0 0h7l1 4-5 2h-5v-4z" fill="#2B393F"/>
<path transform="translate(757,821)" d="m0 0 5 1 1 5-2 2h-5l-1-6z" fill="#E8E8E8"/>
<path transform="translate(1026,761)" d="m0 0h5l2 5-2 3-5-1-1-5z" fill="#E5E5E5"/>
<path transform="translate(780,284)" d="m0 0h9l5 3-1 2-4-1h-9l-4 1 2-4z" fill="#F6F6F6"/>
<path transform="translate(745,1629)" d="m0 0 3 1-4 4-16 1 3-3z" fill="#ECA79A"/>
<path transform="translate(908,1164)" d="m0 0 5 1 1 5-2 2-5-1-1-4z" fill="#EBEBEB"/>
<path transform="translate(810,1164)" d="m0 0 5 1 1 5-2 2-5-1-1-4z" fill="#EDEDED"/>
<path transform="translate(487,840)" d="m0 0h7l3 4-2 2-8-1-1-4z" fill="#29363C"/>
<path transform="translate(972,761)" d="m0 0h5l2 2-1 5-4 1-3-2z" fill="#E5E5E5"/>
<path transform="translate(845,761)" d="m0 0h5l2 2-1 5-4 1-3-2z" fill="#E5E5E5"/>
<path transform="translate(827,761)" d="m0 0h5l2 2-1 5-4 1-3-2z" fill="#E5E5E5"/>
<path transform="translate(784,708)" d="m0 0 5 1 1 4-2 3-5-1-1-5z" fill="#eee"/>
<path transform="translate(1062,1217)" d="m0 0 5 1 1 4-3 3-5-2 1-5z" fill="#E5E5E5"/>
<path transform="translate(751,1208)" d="m0 0 3 1v18h-2v-15l-3 1-1-3z" fill="#C7C7C7"/>
<path transform="translate(775,1164)" d="m0 0 5 1 1 4-3 3-4-1-1-5z" fill="#EDEDED"/>
<path transform="translate(873,1108)" d="m0 0h5l1 1v5l-1 1h-6l-1-5z" fill="#E5E5E5"/>
<path transform="translate(790,1052)" d="m0 0 5 1 2 2v10h-3l-1-9-5-1z" fill="#303D44"/>
<path transform="translate(796,761)" d="m0 0h5l1 1v5l-5 2-2-1-1-4z" fill="#E5E5E5"/>
<path transform="translate(890,1164)" d="m0 0 5 1 1 5-2 2-5-1v-6z" fill="#F0F0F0"/>
<path transform="translate(847,1164)" d="m0 0h5l1 1v5l-2 2-4-1-1-1v-5z" fill="#F0F0F0"/>
<path transform="translate(752,1099)" d="m0 0 2 1v18h-2v-15l-3 1-1-3z" fill="#C7C7C7"/>
<path transform="translate(807,1055)" d="m0 0h5l1 1v5l-2 2-4-1-1-1v-5z" fill="#EFEFEF"/>
<path transform="translate(826,821)" d="m0 0 4 1 1 1v5l-1 1h-5l-1-1v-5z" fill="#EFEFEF"/>
<path transform="translate(783,705)" d="m0 0h5l-4 3-1 6 4 3 1 2h-5l-3-3-1-5 3-5z" fill="#35434A"/>
<path transform="translate(936,1099)" d="m0 0 2 1v18h-2v-15l-3 1v-3z" fill="#C7C7C7"/>
<path transform="translate(465,814)" d="m0 0 2 1-1 5-4 8-4 1 1-4z" fill="#41494D"/>
<path transform="translate(586,1730)" d="m0 0 5 1 7 9-2 2-10-10z" fill="#2E3C43"/>
<path transform="translate(910,1714)" d="m0 0h7l-1 2-16 3-6 1-4-2z" fill="#515045"/>
<path transform="translate(854,821)" d="m0 0 4 1 1 1v5l-5 1-2-2 1-5z" fill="#F1F1F1"/>
<path transform="translate(1024,1108)" d="m0 0h5l1 1v5l-1 1h-5l-1-1v-5z" fill="#E5E5E5"/>
<path transform="translate(1726,856)" d="m0 0 2 1 1 6-2 5-4 3-5 1-5-2v-3l4 2 8-1 1-3z" fill="#FEFEFE"/>
<path transform="translate(861,758)" d="m0 0h8v2l-4 2-2 9h-2z" fill="#C7C7C7"/>
<path transform="translate(847,1161)" d="m0 0h5l3 3-1 5-2-4h-5l-2 3h-2l1-4z" fill="#2A383E"/>
<path transform="translate(900,1102)" d="m0 0 5 1 1 3-2 3-5-1-1-4z" fill="#E5E5E5"/>
<path transform="translate(830,1053)" d="m0 0h2l2 3v3l-11-1 2-4z" fill="#808A8E"/>
<path transform="translate(540,934)" d="m0 0h2l1 4v18h-1l-2-15z" fill="#4A575E"/>
<path transform="translate(798,705)" d="m0 0h3v14h-3z" fill="#28353C"/>
<path transform="translate(840,1108)" d="m0 0 5 1 1 4-2 2-5-1v-5z" fill="#E5E5E5"/>
<path transform="translate(359,1031)" d="m0 0 3 1-9 15h-3l2-5z" fill="#2E3D44"/>
<path transform="translate(1309,284)" d="m0 0h4v10h-4z" fill="#EFEFEF"/>
<path transform="translate(1782,1478)" d="m0 0 3 1-20 8 2-4z" fill="#2C3A41"/>
<path transform="translate(373,1107)" d="m0 0 2 1-11 10-6 4 2-5z" fill="#2C3940"/>
<path transform="translate(990,590)" d="m0 0 3 1 1 6-1 2-5-1 1-7z" fill="#8E9599"/>
<path transform="translate(988,758)" d="m0 0h2v13h-3v-12z" fill="#C7C7C7"/>
<path transform="translate(718,1754)" d="m0 0 3 1-1 2-11 2h-7l3-2z" fill="#303E46"/>
<path transform="translate(732,1751)" d="m0 0h5v2l-11 3h-6l1-2z" fill="#29353C"/>
<path transform="translate(866,1723)" d="m0 0h5v2l-13 3-4-1 2-2z" fill="#2A373D"/>
<path transform="translate(478,840)" d="m0 0 2 2 4 16-3 1-3-16z" fill="#314047"/>
<path transform="translate(800,819)" d="m0 0 3 1 3 6 2 1-2 4h-2l-4-9z" fill="#2B383F"/>
<path transform="translate(1688,1278)" d="m0 0h1v19l-3-1z" fill="#303F46"/>
<path transform="translate(492 1e3)" d="m0 0h2l5 9-1-7 3 4 2 5-5 1z" fill="#3C413F"/>
<path transform="translate(608,958)" d="m0 0h13l6 1-1 3-18-3z" fill="#314048"/>
<path transform="translate(1e3 590)" d="m0 0 5 1-1 7-1-2-4-1z" fill="#8D9497"/>
<path transform="translate(914,992)" d="m0 0h5l1 5-1 1h-5z" fill="#ECECEC"/>
<path transform="translate(741,992)" d="m0 0h5l1 5-1 1h-5z" fill="#F0F0F0"/>
<path transform="translate(1061,592)" d="m0 0 6 2-1 5-5-1z" fill="#969DA0"/>
<path transform="translate(665,1074)" d="m0 0 10 5 8 5-2 1-15-8z" fill="#28353B"/>
<path transform="translate(777,1052)" d="m0 0h5l-2 4-1 9h-2z" fill="#273339"/>
<path transform="translate(1538,843)" d="m0 0 3 1-6 5 1 9 3 1-2 1-4-4v-8z" fill="#FAFAFA"/>
<path transform="translate(974,592)" d="m0 0 5 2v4l-5 1-1-4z" fill="#969C9F"/>
<path transform="translate(700,1758)" d="m0 0 6 1-4 2-14 1 3-2z" fill="#AF7633"/>
<path transform="translate(626,960)" d="m0 0 10 1 2 3-10-1-2-1z" fill="#2C3A41"/>
<path transform="translate(932,1709)" d="m0 0h7v2l-4 1h-10l1-2z" fill="#996C35"/>
<path transform="translate(782,289)" d="m0 0h6l2 3-3 1h-7v-3z" fill="#F4F4F4"/>
<path transform="translate(1549,846)" d="m0 0 3 3v9l-2 3-1-2h-3l3-3 1-6z" fill="#FEFEFE"/>
<path transform="translate(457,827)" d="m0 0v3l-8 8-4 2v-3l9-7z" fill="#DFA28C"/>
<path transform="translate(741,816)" d="m0 0h5l1 5h-6z" fill="#FAFAFA"/>
<path transform="translate(959,1528)" d="m0 0h5l1 4-1 1h-5z" fill="#F6962B"/>
<path transform="translate(824,1059)" d="m0 0h9l-1 3-6 1-2-1z" fill="#D3D3D3"/>
<path transform="translate(1025,591)" d="m0 0 3 1-2 4-4 2v-6z" fill="#455A64"/>
<path transform="translate(852,1726)" d="m0 0 3 1-5 3-7 1 3-4z" fill="#2E3D44"/>
<path transform="translate(602,1732)" d="m0 0h4l-2 4-3 3h-2l2-6z" fill="#2D3B42"/>
<path transform="translate(955,591)" d="m0 0h1l1 6-2 2-4-1 2-5z" fill="#A4A7A8"/>
<path transform="translate(337,950)" d="m0 0h1v7h-1z" fill="#6E7A80"/>
<path transform="translate(338,958)" d="m0 0" fill="#A6A6A6"/>
</svg>
